<svg width="270" height="91" viewBox="0 0 270 91" fill="none" xmlns="http://www.w3.org/2000/svg">
<path d="M62.7778 1.31348H1.06653V89.6945H62.7778V1.31348Z" fill="#AAAAAA"/>
<path d="M60.2551 87.1773H3.59066V3.78963H60.2551V87.1773ZM1.06653 89.6945H62.7778V1.31348H1.06653V89.6945Z" fill="#AAAAAA"/>
<path d="M27.1439 68.8733V49.7137C27.1439 49.7137 36.7939 51.1049 36.7939 58.2298C36.7939 68.7797 27.1439 68.8733 27.1439 68.8733ZM27.1439 22.4151C27.1439 22.4151 34.8471 21.7641 34.8471 29.9116C34.8471 39.4432 27.1439 40.5522 27.1439 40.5522V22.4151ZM42.5475 42.5901C42.5475 42.5901 49.9749 38.147 49.9749 26.7632C49.9749 15.3809 39.857 12.6949 32.6188 11.7702C25.3806 10.8427 12.2963 10.752 12.2963 10.752V82.2014C12.2963 82.2014 28.8134 83.0324 38.3724 78.4956C47.93 73.9603 52.664 69.52 52.664 59.526C52.664 46.5681 42.5475 42.5901 42.5475 42.5901Z" fill="#D1D1D1"/>
<path d="M27.1439 68.8733V49.7137C27.1439 49.7137 36.7939 51.1049 36.7939 58.2298C36.7939 68.7797 27.1439 68.8733 27.1439 68.8733ZM27.1439 22.4151C27.1439 22.4151 34.8471 21.7641 34.8471 29.9116C34.8471 39.4432 27.1439 40.5522 27.1439 40.5522V22.4151ZM42.5475 42.5901C42.5475 42.5901 49.9749 38.147 49.9749 26.7632C49.9749 15.3809 39.857 12.6949 32.6188 11.7702C25.3806 10.8427 12.2963 10.752 12.2963 10.752V82.2014C12.2963 82.2014 28.8134 83.0324 38.3724 78.4956C47.93 73.9603 52.664 69.52 52.664 59.526C52.664 46.5681 42.5475 42.5901 42.5475 42.5901Z" stroke="#AAAAAA" stroke-width="0.0693334"/>
<path d="M71.6698 48.5727H268.713V45.5137H71.6698V48.5727Z" fill="#AAAAAA"/>
<path d="M90.3595 86.8156C96.7246 86.8156 99.5204 84.1892 101.72 84.1892C102.97 84.1892 103.802 84.8472 103.802 85.8712C103.802 87.7162 97.7954 89.9356 90.3595 89.9356C78.1057 89.9356 71.799 82.6718 71.799 75.0817C71.799 67.493 78.1057 60.2305 90.6568 60.2305C98.1524 60.2305 102.912 63.0214 102.912 64.4978C102.912 65.4408 102.079 66.2194 100.769 66.2194C98.3913 66.2194 97.1996 63.3505 90.6568 63.3505C81.2584 63.3505 77.3919 69.5011 77.3919 75.0817C77.3919 80.6608 81.3779 86.8156 90.3595 86.8156Z" fill="#AAAAAA"/>
<path d="M109.474 75.0817C109.474 82.6718 115.958 89.9357 128.034 89.9357C140.108 89.9357 146.591 82.6718 146.591 75.0817C146.591 67.493 140.108 60.2305 128.034 60.2305C115.958 60.2305 109.474 67.493 109.474 75.0817ZM115.067 75.0817C115.067 69.5025 118.517 63.3505 128.034 63.3505C137.551 63.3505 141.001 69.5025 141.001 75.0817C141.001 80.6608 137.551 86.8157 128.034 86.8157C118.517 86.8157 115.067 80.6608 115.067 75.0817Z" fill="#AAAAAA"/>
<path d="M161.121 88.0073C161.121 89.1972 160.109 89.936 158.504 89.936C156.896 89.936 155.886 89.1972 155.886 88.0073V62.4446C155.886 61.3384 156.718 60.4775 158.682 60.4775H173.553C175.04 60.4775 176.112 61.0108 176.112 62.1595C176.112 63.3068 175.04 63.8429 173.553 63.8429H161.121V73.4014H172.125C173.612 73.4014 174.683 73.9332 174.683 75.082C174.683 76.2321 173.612 76.7639 172.125 76.7639H161.121V88.0073Z" fill="#AAAAAA"/>
<path d="M190.93 88.0073C190.93 89.1972 189.917 89.936 188.312 89.936C186.705 89.936 185.694 89.1972 185.694 88.0073V62.4446C185.694 61.3384 186.529 60.4775 188.492 60.4775H203.363C204.85 60.4775 205.921 61.0108 205.921 62.1595C205.921 63.3068 204.85 63.8429 203.363 63.8429H190.93V73.4014H201.935C203.423 73.4014 204.493 73.9332 204.493 75.082C204.493 76.2321 203.423 76.7639 201.935 76.7639H190.93V88.0073Z" fill="#AAAAAA"/>
<path d="M221.54 86.3244H234.151C235.638 86.3244 236.709 86.8562 236.709 88.0077C236.709 89.155 235.638 89.6869 234.151 89.6869H219.1C217.14 89.6869 216.307 88.8275 216.307 87.717V62.445C216.307 61.3388 217.14 60.4766 219.1 60.4766H234.151C235.638 60.4766 236.709 61.0112 236.709 62.1599C236.709 63.3073 235.638 63.8434 234.151 63.8434H221.54V73.4019H233.023C234.509 73.4019 235.58 73.9337 235.58 75.0824C235.58 76.2325 234.509 76.7644 233.023 76.7644H221.54V86.3244Z" fill="#AAAAAA"/>
<path d="M253.548 86.3244H266.16C267.651 86.3244 268.72 86.8562 268.72 88.0077C268.72 89.155 267.651 89.6869 266.16 89.6869H251.111C249.147 89.6869 248.315 88.8275 248.315 87.717V62.445C248.315 61.3388 249.147 60.4766 251.111 60.4766H266.16C267.651 60.4766 268.72 61.0112 268.72 62.1599C268.72 63.3073 267.651 63.8434 266.16 63.8434H253.548V73.4019H265.03C266.516 73.4019 267.587 73.9337 267.587 75.0824C267.587 76.2325 266.516 76.7644 265.03 76.7644H253.548V86.3244Z" fill="#AAAAAA"/>
<path d="M80.3221 29.7879H87.1749C90.3091 29.7879 92.6313 28.2861 92.6313 25.5674C92.6313 23.287 90.5423 21.7369 86.4767 21.7369H80.3221V29.7879ZM80.3221 15.3296H84.8513C87.6968 15.3296 89.5554 13.9213 89.5554 11.4977C89.5554 9.21722 87.4067 8.05147 84.8513 8.05147H80.3221V15.3296ZM71.6134 5.28597C71.6134 2.95588 73.5303 1.64551 76.2009 1.64551H87.3513C93.3879 1.64551 98.2641 5.04492 98.2641 10.1872C98.2641 13.5838 96.5818 15.8642 92.866 17.3179V17.4155C97.8019 17.9998 101.691 21.4446 101.691 25.6651C101.691 32.5078 96.2334 36.1951 88.2201 36.1951H76.2578C73.5872 36.1951 71.6134 34.7868 71.6134 32.5078V5.28597Z" fill="#AAAAAA"/>
<path d="M106.104 5.13916C106.104 2.71548 107.962 1.35547 110.457 1.35547C112.955 1.35547 114.814 2.71548 114.814 5.13916V32.7001C114.814 35.1238 112.955 36.4838 110.457 36.4838C107.962 36.4838 106.104 35.1238 106.104 32.7001V5.13916Z" fill="#AAAAAA"/>
<path d="M153.366 15.7175C157.027 15.7175 158.476 17.2704 158.476 20.3763C158.476 29.7391 151.159 36.7761 139.548 36.7761C127.762 36.7761 119.575 28.9648 119.575 18.9198C119.575 8.82657 127.702 1.06348 139.548 1.06348C148.312 1.06348 155.513 4.50965 155.513 7.90618C155.513 9.99235 153.948 11.3028 151.917 11.3028C147.967 11.3028 147.153 7.76013 139.548 7.76013C132.29 7.76013 128.632 13.0485 128.632 18.9198C128.632 24.8407 132.173 30.0795 139.548 30.0795C144.137 30.0795 149.416 27.9451 149.416 22.4142H143.497C141.115 22.4142 139.432 21.0073 139.432 19.0176C139.432 16.9769 141.29 15.7175 143.497 15.7175H153.366Z" fill="#AAAAAA"/>
<path d="M195.407 15.7175C199.063 15.7175 200.516 17.2704 200.516 20.3763C200.516 29.7391 193.2 36.7761 181.586 36.7761C169.799 36.7761 161.612 28.9648 161.612 18.9198C161.612 8.82657 169.741 1.06348 181.586 1.06348C190.353 1.06348 197.554 4.50965 197.554 7.90618C197.554 9.99235 195.989 11.3028 193.951 11.3028C190.003 11.3028 189.191 7.76013 181.586 7.76013C174.331 7.76013 170.671 13.0485 170.671 18.9198C170.671 24.8407 174.213 30.0795 181.586 30.0795C186.174 30.0795 191.457 27.9451 191.457 22.4142H185.537C183.155 22.4142 181.47 21.0073 181.47 19.0176C181.47 16.9769 183.327 15.7175 185.537 15.7175H195.407Z" fill="#AAAAAA"/>
<path d="M213.988 29.7879H220.838C223.974 29.7879 226.297 28.2861 226.297 25.5674C226.297 23.287 224.207 21.7369 220.142 21.7369H213.988V29.7879ZM213.988 15.3296H218.514C221.36 15.3296 223.217 13.9213 223.217 11.4977C223.217 9.21722 221.071 8.05147 218.514 8.05147H213.988V15.3296ZM205.276 5.28597C205.276 2.95588 207.195 1.64551 209.865 1.64551H221.013C227.052 1.64551 231.927 5.04492 231.927 10.1872C231.927 13.5838 230.242 15.8642 226.529 17.3179V17.4155C231.463 17.9998 235.353 21.4446 235.353 25.6651C235.353 32.5078 229.896 36.1951 221.882 36.1951H209.922C207.253 36.1951 205.276 34.7868 205.276 32.5078V5.28597Z" fill="#AAAAAA"/>
<path d="M248.36 19.9871L237.382 7.08164C236.863 6.44913 236.574 5.67479 236.574 4.89619C236.574 2.95612 238.316 1.35645 240.752 1.35645C242.264 1.35645 243.596 1.88827 244.354 2.8101L252.716 12.9543L261.076 2.8101C261.831 1.88827 263.165 1.35645 264.678 1.35645C267.112 1.35645 268.856 2.95612 268.856 4.89619C268.856 5.67479 268.566 6.44913 268.045 7.08164L257.069 19.9871V32.945C257.069 34.7348 255.79 36.4848 252.716 36.4848C249.64 36.4848 248.36 34.7348 248.36 32.945V19.9871Z" fill="#AAAAAA"/>
<path d="M264.738 32.6134C265.131 32.6134 265.371 32.5185 265.371 32.0901C265.371 31.6603 265.131 31.5525 264.738 31.5525H263.841V32.6134H264.738ZM263.841 34.8782C263.841 35.2126 263.722 35.4511 263.304 35.4511C262.885 35.4511 262.765 35.2598 262.765 34.8782V31.1951C262.765 30.9214 262.861 30.696 263.315 30.696H264.667C265.633 30.696 266.446 30.981 266.446 32.0901C266.446 32.9353 266.017 33.365 265.252 33.4018L266.099 34.7832C266.148 34.878 266.17 34.9616 266.17 35.0328C266.17 35.2965 266.004 35.4512 265.61 35.4512C265.227 35.4512 265.108 35.1646 264.953 34.8782L264.199 33.4728H263.841L263.841 34.8782ZM264.535 36.3091C266.374 36.3091 267.857 34.8299 267.857 32.9962C267.857 31.1583 266.374 29.6819 264.535 29.6819C262.694 29.6819 261.212 31.1583 261.212 32.9962C261.212 34.8299 262.694 36.3091 264.535 36.3091ZM264.535 28.6084C266.961 28.6084 268.933 30.5754 268.933 32.9962C268.933 35.4157 266.961 37.3813 264.535 37.3813C262.108 37.3813 260.135 35.4157 260.135 32.9962C260.135 30.5754 262.108 28.6084 264.535 28.6084Z" fill="#AAAAAA"/>
</svg>
