<svg width="120" height="40" viewBox="0 0 120 40" fill="none" xmlns="http://www.w3.org/2000/svg">
<g clip-path="url(#clip0_104_478)">
<path d="M27.9012 0.578125H0.473999V39.4269H27.9012V0.578125Z" fill="#AAAAAA"/>
<path d="M26.78 38.3205H1.59584V1.66654H26.78V38.3205ZM0.473999 39.4269H27.9012V0.578125H0.473999V39.4269Z" fill="#AAAAAA"/>
<path d="M12.0639 30.2744V21.8526C12.0639 21.8526 16.3528 22.4641 16.3528 25.5959C16.3528 30.2333 12.0639 30.2744 12.0639 30.2744ZM12.0639 9.85321C12.0639 9.85321 15.4876 9.56707 15.4876 13.1484C15.4876 17.3381 12.0639 17.8256 12.0639 17.8256V9.85321ZM18.91 18.7214C18.91 18.7214 22.211 16.7683 22.211 11.7645C22.211 6.76128 17.7142 5.58059 14.4972 5.17415C11.2802 4.76647 5.46497 4.72656 5.46497 4.72656V36.1329C5.46497 36.1329 12.8059 36.4982 17.0544 34.504C21.3022 32.5104 23.4062 30.5586 23.4062 26.1657C23.4062 20.4699 18.91 18.7214 18.91 18.7214Z" fill="#D1D1D1"/>
<path d="M12.0639 30.2744V21.8526C12.0639 21.8526 16.3528 22.4641 16.3528 25.5959C16.3528 30.2333 12.0639 30.2744 12.0639 30.2744ZM12.0639 9.85321C12.0639 9.85321 15.4876 9.56707 15.4876 13.1484C15.4876 17.3381 12.0639 17.8256 12.0639 17.8256V9.85321ZM18.91 18.7214C18.91 18.7214 22.211 16.7683 22.211 11.7645C22.211 6.76128 17.7142 5.58059 14.4972 5.17415C11.2802 4.76647 5.46497 4.72656 5.46497 4.72656V36.1329C5.46497 36.1329 12.8059 36.4982 17.0544 34.504C21.3022 32.5104 23.4062 30.5586 23.4062 26.1657C23.4062 20.4699 18.91 18.7214 18.91 18.7214Z" stroke="#AAAAAA" stroke-width="0.0693334"/>
<path d="M31.8533 21.3515H119.428V20.0068H31.8533V21.3515Z" fill="#AAAAAA"/>
<path d="M40.1598 38.1614C42.9887 38.1614 44.2313 37.0069 45.209 37.0069C45.7646 37.0069 46.1343 37.2961 46.1343 37.7462C46.1343 38.5572 43.4646 39.5328 40.1598 39.5328C34.7137 39.5328 31.9106 36.3399 31.9106 33.0036C31.9106 29.6679 34.7137 26.4756 40.2919 26.4756C43.6233 26.4756 45.7387 27.7024 45.7387 28.3513C45.7387 28.7659 45.3683 29.1081 44.7862 29.1081C43.7295 29.1081 43.1998 27.847 40.2919 27.847C36.1149 27.847 34.3964 30.5506 34.3964 33.0036C34.3964 35.4559 36.1679 38.1614 40.1598 38.1614Z" fill="#AAAAAA"/>
<path d="M48.6553 33.0036C48.6553 36.3399 51.5367 39.5328 56.9038 39.5328C62.2703 39.5328 65.1517 36.3399 65.1517 33.0036C65.1517 29.6679 62.2703 26.4756 56.9038 26.4756C51.5367 26.4756 48.6553 29.6679 48.6553 33.0036ZM51.141 33.0036C51.141 30.5512 52.6743 27.847 56.9038 27.847C61.1339 27.847 62.6672 30.5512 62.6672 33.0036C62.6672 35.456 61.1339 38.1614 56.9038 38.1614C52.6743 38.1614 51.141 35.456 51.141 33.0036Z" fill="#AAAAAA"/>
<path d="M71.6093 38.685C71.6093 39.208 71.1593 39.5328 70.4464 39.5328C69.7316 39.5328 69.2828 39.208 69.2828 38.685V27.4486C69.2828 26.9624 69.6526 26.584 70.5254 26.584H77.1345C77.7956 26.584 78.2721 26.8184 78.2721 27.3233C78.2721 27.8276 77.7956 28.0633 77.1345 28.0633H71.6093V32.2648H76.4999C77.161 32.2648 77.6369 32.4986 77.6369 33.0035C77.6369 33.5091 77.161 33.7428 76.4999 33.7428H71.6093V38.685Z" fill="#AAAAAA"/>
<path d="M84.8576 38.685C84.8576 39.208 84.4076 39.5328 83.6941 39.5328C82.9799 39.5328 82.5305 39.208 82.5305 38.685V27.4486C82.5305 26.9624 82.9015 26.584 83.7743 26.584H90.3834C91.0445 26.584 91.5204 26.8184 91.5204 27.3233C91.5204 27.8276 91.0445 28.0633 90.3834 28.0633H84.8576V32.2648H89.7489C90.4099 32.2648 90.8858 32.4986 90.8858 33.0035C90.8858 33.5091 90.4099 33.7428 89.7489 33.7428H84.8576V38.685Z" fill="#AAAAAA"/>
<path d="M98.4621 37.9447H104.067C104.728 37.9447 105.204 38.1784 105.204 38.6846C105.204 39.1889 104.728 39.4227 104.067 39.4227H97.3775C96.5066 39.4227 96.1362 39.0449 96.1362 38.5568V27.4483C96.1362 26.962 96.5066 26.583 97.3775 26.583H104.067C104.728 26.583 105.204 26.818 105.204 27.323C105.204 27.8273 104.728 28.0629 104.067 28.0629H98.4621V32.2645H103.566C104.226 32.2645 104.702 32.4982 104.702 33.0032C104.702 33.5087 104.226 33.7425 103.566 33.7425H98.4621V37.9447Z" fill="#AAAAAA"/>
<path d="M112.688 37.9447H118.294C118.956 37.9447 119.431 38.1784 119.431 38.6846C119.431 39.1889 118.956 39.4227 118.294 39.4227H111.605C110.732 39.4227 110.362 39.0449 110.362 38.5568V27.4483C110.362 26.962 110.732 26.583 111.605 26.583H118.294C118.956 26.583 119.431 26.818 119.431 27.323C119.431 27.8273 118.956 28.0629 118.294 28.0629H112.688V32.2645H117.791C118.452 32.2645 118.927 32.4982 118.927 33.0032C118.927 33.5087 118.452 33.7425 117.791 33.7425H112.688V37.9447Z" fill="#AAAAAA"/>
<path d="M35.6986 13.0939H38.7444C40.1373 13.0939 41.1694 12.4338 41.1694 11.2387C41.1694 10.2364 40.241 9.55501 38.434 9.55501H35.6986V13.0939ZM35.6986 6.73861H37.7116C38.9763 6.73861 39.8024 6.11959 39.8024 5.05425C39.8024 4.05186 38.8474 3.53944 37.7116 3.53944H35.6986V6.73861ZM31.8281 2.32384C31.8281 1.29962 32.6801 0.723633 33.867 0.723633H38.8227C41.5057 0.723633 43.6729 2.21788 43.6729 4.47824C43.6729 5.97122 42.9252 6.97362 41.2737 7.61259V7.65551C43.4675 7.91234 45.196 9.42652 45.196 11.2817C45.196 14.2895 42.7703 15.9103 39.2089 15.9103H33.8923C32.7054 15.9103 31.8281 15.2912 31.8281 14.2895V2.32384Z" fill="#AAAAAA"/>
<path d="M47.1573 2.25887C47.1573 1.19351 47.9834 0.595703 49.092 0.595703C50.2024 0.595703 51.0285 1.19351 51.0285 2.25887V14.3736C51.0285 15.4389 50.2024 16.0367 49.092 16.0367C47.9834 16.0367 47.1573 15.4389 47.1573 14.3736V2.25887Z" fill="#AAAAAA"/>
<path d="M68.1628 6.90911C69.7896 6.90911 70.4336 7.59172 70.4336 8.95691C70.4336 13.0724 67.1819 16.1656 62.0214 16.1656C56.7832 16.1656 53.1447 12.7321 53.1447 8.31669C53.1447 3.88012 56.7567 0.467773 62.0214 0.467773C65.9165 0.467773 69.1171 1.98258 69.1171 3.47556C69.1171 4.39255 68.4213 4.96856 67.5187 4.96856C65.763 4.96856 65.4015 3.41136 62.0214 3.41136C58.7956 3.41136 57.17 5.73592 57.17 8.31669C57.17 10.9193 58.7437 13.2221 62.0214 13.2221C64.0609 13.2221 66.407 12.2839 66.407 9.8527H63.7765C62.7179 9.8527 61.9696 9.2343 61.9696 8.3597C61.9696 7.46267 62.7956 6.90911 63.7765 6.90911H68.1628Z" fill="#AAAAAA"/>
<path d="M86.8477 6.90911C88.4726 6.90911 89.1185 7.59172 89.1185 8.95691C89.1185 13.0724 85.8668 16.1656 80.705 16.1656C75.4662 16.1656 71.8276 12.7321 71.8276 8.31669C71.8276 3.88012 75.4403 0.467773 80.705 0.467773C84.6014 0.467773 87.802 1.98258 87.802 3.47556C87.802 4.39255 87.1061 4.96856 86.2005 4.96856C84.446 4.96856 84.0851 3.41136 80.705 3.41136C77.4804 3.41136 75.8536 5.73592 75.8536 8.31669C75.8536 10.9193 77.428 13.2221 80.705 13.2221C82.7439 13.2221 85.0919 12.2839 85.0919 9.8527H82.4608C81.4021 9.8527 80.6532 9.2343 80.6532 8.3597C80.6532 7.46267 81.4786 6.90911 82.4608 6.90911H86.8477Z" fill="#AAAAAA"/>
<path d="M95.1057 13.0939H98.1501C99.5437 13.0939 100.576 12.4338 100.576 11.2387C100.576 10.2364 99.6474 9.55501 97.8411 9.55501H95.1057V13.0939ZM95.1057 6.73861H97.1174C98.3821 6.73861 99.2075 6.11959 99.2075 5.05425C99.2075 4.05186 98.2538 3.53944 97.1174 3.53944H95.1057V6.73861ZM91.2339 2.32384C91.2339 1.29962 92.0865 0.723633 93.2734 0.723633H98.2279C100.912 0.723633 103.079 2.21788 103.079 4.47824C103.079 5.97122 102.33 6.97362 100.679 7.61259V7.65551C102.873 7.91234 104.601 9.42652 104.601 11.2817C104.601 14.2895 102.176 15.9103 98.614 15.9103H93.2987C92.1124 15.9103 91.2339 15.2912 91.2339 14.2895V2.32384Z" fill="#AAAAAA"/>
<path d="M110.382 8.78596L105.503 3.11325C105.272 2.83522 105.144 2.49485 105.144 2.15261C105.144 1.29983 105.918 0.59668 107.001 0.59668C107.673 0.59668 108.265 0.830448 108.602 1.23565L112.318 5.69464L116.034 1.23565C116.369 0.830448 116.962 0.59668 117.635 0.59668C118.717 0.59668 119.492 1.29983 119.492 2.15261C119.492 2.49485 119.363 2.83522 119.131 3.11325L114.253 8.78596V14.4818C114.253 15.2685 113.685 16.0377 112.318 16.0377C110.951 16.0377 110.382 15.2685 110.382 14.4818V8.78596Z" fill="#AAAAAA"/>
<path d="M117.661 14.3356C117.836 14.3356 117.943 14.2939 117.943 14.1056C117.943 13.9167 117.836 13.8693 117.661 13.8693H117.263V14.3356H117.661ZM117.263 15.3311C117.263 15.4782 117.21 15.583 117.024 15.583C116.838 15.583 116.784 15.4989 116.784 15.3311V13.7122C116.784 13.5919 116.827 13.4928 117.029 13.4928H117.63C118.059 13.4928 118.421 13.6181 118.421 14.1056C118.421 14.4771 118.23 14.666 117.89 14.6822L118.266 15.2894C118.288 15.3311 118.298 15.3678 118.298 15.3991C118.298 15.515 118.224 15.583 118.049 15.583C117.879 15.583 117.826 15.457 117.757 15.3312L117.422 14.7134H117.263L117.263 15.3311ZM117.571 15.9601C118.388 15.9601 119.047 15.3099 119.047 14.5039C119.047 13.696 118.388 13.0471 117.571 13.0471C116.753 13.0471 116.094 13.696 116.094 14.5039C116.094 15.3099 116.753 15.9601 117.571 15.9601ZM117.571 12.5752C118.649 12.5752 119.526 13.4398 119.526 14.5039C119.526 15.5674 118.649 16.4314 117.571 16.4314C116.492 16.4314 115.616 15.5674 115.616 14.5039C115.616 13.4398 116.492 12.5752 117.571 12.5752Z" fill="#AAAAAA"/>
</g>
<defs>
<clipPath id="clip0_104_478">
<rect width="120" height="40" fill="white"/>
</clipPath>
</defs>
</svg>
