<svg width="270" height="127" viewBox="0 0 270 127" fill="none" xmlns="http://www.w3.org/2000/svg">
<g clip-path="url(#clip0_104_456)">
<path fill-rule="evenodd" clip-rule="evenodd" d="M74.7009 99.0303C71.0808 99.0303 68.6311 101.699 68.6311 105.193V119.929C68.6311 124.814 71.9225 126.244 74.7748 126.244C78.1023 126.244 80.6982 123.349 80.6982 120.041V118.387H76.968V119.702C76.968 121.808 75.6527 122.409 74.627 122.409C72.9466 122.409 72.3598 121.205 72.3598 119.665V105.982C72.3598 104.18 72.8006 102.864 74.6663 102.864C76.0902 102.864 76.968 104.142 76.968 105.645V106.922H80.6982V105.419C80.6982 101.7 78.1385 99.0303 74.7009 99.0303Z" fill="#AAAAAA"/>
<path fill-rule="evenodd" clip-rule="evenodd" d="M98.7989 99.0303C95.8726 99.0303 92.7653 101.21 92.7653 105.571V119.702C92.7653 124.064 95.8726 126.244 98.7989 126.244C101.728 126.244 104.832 124.064 104.832 119.702V105.571C104.832 101.21 101.728 99.0303 98.7989 99.0303ZM98.7989 122.41C97.4941 122.41 96.3644 121.544 96.3644 119.702V105.571C96.3644 103.728 97.4956 102.864 98.7989 102.864C100.105 102.864 101.235 103.728 101.235 105.571V119.702C101.235 121.544 100.105 122.41 98.7989 122.41Z" fill="#AAAAAA"/>
<path fill-rule="evenodd" clip-rule="evenodd" d="M116.899 99.0303V126.244H120.444V114.625H126.553V110.956H120.444V102.701H127.458V99.0303H116.899Z" fill="#AAAAAA"/>
<path fill-rule="evenodd" clip-rule="evenodd" d="M141.033 99.0303V126.244H144.575V114.625H150.689V110.956H144.575V102.701H151.592V99.0303H141.033Z" fill="#AAAAAA"/>
<path fill-rule="evenodd" clip-rule="evenodd" d="M165.168 99.0303V126.244H175.726V122.344H168.712V114.358H174.821V110.687H168.712V102.703H175.726V99.0303H165.168Z" fill="#AAAAAA"/>
<path fill-rule="evenodd" clip-rule="evenodd" d="M187.793 99.0303V126.244H198.352V122.344H191.338V114.358H197.449V110.687H191.338V102.703H198.352V99.0303H187.793Z" fill="#AAAAAA"/>
<path fill-rule="evenodd" clip-rule="evenodd" d="M77.8233 1.04883H62.9839V5.04328H67.595V39.932H78.1386C83.3334 39.932 85.6654 39.0929 87.9989 37.6717C93.2978 34.4695 96.9556 27.743 96.9556 20.439C96.9556 13.0821 93.2978 6.40853 87.9446 3.25772C85.6141 1.83955 83.071 1.04883 77.8233 1.04883ZM77.3452 5.04328H79.0421C80.8446 5.04328 81.9563 5.46208 82.9111 6.35712C85.5598 8.87898 87.3095 13.8713 87.3095 20.4904C87.3095 27.1125 85.5598 32.1033 82.9111 34.6267C81.9563 35.5187 80.8446 35.9406 79.0421 35.9406H77.3452V5.04328Z" fill="#AAAAAA"/>
<path fill-rule="evenodd" clip-rule="evenodd" d="M133.492 0.755859H114.35V4.76535H119.278V30.1321C119.278 30.9757 119.227 31.9768 118.651 32.8748C117.967 33.8757 116.762 34.5076 115.347 34.5076C113.982 34.5076 112.777 33.8757 112.095 32.8748C111.519 31.9768 111.466 30.9757 111.466 30.1321V0.755859H101.816V28.6566C101.816 30.0264 101.921 31.1331 102.078 31.9767C103.441 38.3584 109.525 41.5772 115.398 41.5772C121.219 41.5772 127.304 38.3584 128.668 31.9767C128.824 31.1331 128.929 30.0264 128.929 28.6566V4.76535H133.491L133.492 0.755859Z" fill="#AAAAAA"/>
<path fill-rule="evenodd" clip-rule="evenodd" d="M169.693 0.755859H150.779V4.637H152.728C154.88 4.637 156.262 4.94379 156.262 8.61928V23.0776L146.013 0.755859H138.017V38.5535H151.754V34.6708H147.396V18.5314L156.675 38.5535H163.644V8.61928C163.644 4.89242 165.131 4.637 167.285 4.637H169.693V0.755859Z" fill="#AAAAAA"/>
<path fill-rule="evenodd" clip-rule="evenodd" d="M205.894 0.755859H186.979V4.637H188.928C191.079 4.637 192.463 4.94379 192.463 8.61928V23.0776L182.212 0.755859H174.218V38.5535H187.953V34.6708H183.597V18.5314L192.873 38.5535H199.844V8.61928C199.844 4.89242 201.331 4.637 203.483 4.637H205.894V0.755859Z" fill="#AAAAAA"/>
<path fill-rule="evenodd" clip-rule="evenodd" d="M86.75 47.625H86.7157C80.8541 47.625 74.783 50.7849 73.4209 57.0518C73.2658 57.8833 73.1587 58.9688 73.1587 60.316V75.7585C73.1587 77.1026 73.2641 78.1927 73.4209 79.0197C74.7814 85.2865 80.8541 88.4464 86.6644 88.4464H86.8063C92.6151 88.4464 98.6864 85.2865 100.047 79.0197C100.205 78.1912 100.309 77.1041 100.309 75.7585V60.316C100.309 58.9688 100.204 57.8818 100.047 57.0518C98.6864 50.7849 92.6146 47.625 86.75 47.625ZM82.7874 58.8659C82.7874 58.0374 82.8387 57.0518 83.4179 56.1718C84.0967 55.1876 85.3004 54.5661 86.6609 54.5661C88.0743 54.5661 89.2794 55.1861 89.9597 56.1718C90.5359 57.0518 90.5857 58.0374 90.5857 58.8659V77.2054C90.5857 78.0339 90.5344 79.0197 89.9597 79.9011C89.2779 80.8838 88.0744 81.5068 86.7138 81.5068C85.3005 81.5068 84.0953 80.8838 83.4165 79.9011C82.8403 79.0197 82.7874 78.0339 82.7874 77.2054V58.8659Z" fill="#AAAAAA"/>
<path fill-rule="evenodd" clip-rule="evenodd" d="M16.6389 49.3135H0.75415V53.3049H5.20387V84.2022H0.75415V88.1936H5.28834V88.1966H17.3041C19.5018 88.1966 21.342 88.0908 22.4688 87.8277C28.807 86.4625 32.0817 81.7348 32.0817 76.5308C32.0817 72.2219 30.3425 68.6991 26.1492 66.2861C27.78 64.5713 28.6948 62.2961 28.7059 59.927C28.7059 56.3544 26.7119 52.7304 23.849 50.9932C21.4461 49.5236 18.9392 49.3135 16.6389 49.3135ZM14.6101 53.3049H16.0763C17.099 53.3049 17.9165 53.3593 18.6315 53.6738C20.4219 54.5144 21.1354 56.4058 21.1354 58.5603C21.1354 60.7163 20.4219 62.6061 18.6315 63.4468C17.915 63.7627 17.099 63.8142 16.0763 63.8142H14.6101V53.3049ZM14.6101 72.1175H16.6887C18.4278 72.1175 19.7567 72.3262 20.7266 73.0625C22.057 74.1132 22.7735 76.056 22.7735 78.212C22.7735 80.2622 22.057 82.2065 20.7266 83.2572C19.7567 83.9905 18.4278 84.2037 16.6887 84.2037H14.6101V72.1175Z" fill="#AAAAAA"/>
<path fill-rule="evenodd" clip-rule="evenodd" d="M135 49.1367H103.324V57.1529H114.174V83.0365H109.591V86.9177H114.198V86.9347H123.861V86.9177H128.478V83.0365H123.898V57.1529H135V49.1367Z" fill="#AAAAAA"/>
<path fill-rule="evenodd" clip-rule="evenodd" d="M218.655 49.1367H207.402V88.608H216.98V72.8691H217.293L227.429 88.6261C230.204 92.8927 233.236 94.4939 238.054 94.4939C241.297 94.4939 243.603 93.2662 243.603 93.2662V89.1069C243.603 89.1069 242.87 89.5303 241.403 89.5303C239.415 89.5303 238.158 87.4515 237.27 86.1195L227.084 70.8447C227.084 70.8447 233.363 68.2321 233.363 61.1383C233.363 56.1778 231.06 52.2317 226.507 50.363C224.572 49.5632 222.37 49.1367 218.655 49.1367ZM216.98 53.1915H218.971C222.16 53.1915 223.733 56.3363 223.733 60.9779C223.733 64.9255 222.634 67.8057 220.331 68.6055C219.912 68.7655 219.285 68.8169 218.709 68.8169H216.98V53.1915Z" fill="#AAAAAA"/>
<path fill-rule="evenodd" clip-rule="evenodd" d="M49.7675 49.1367H33.9385V53.1915H38.4818V88.6064H48.0962V72.8721H48.4085L58.5239 88.6261C61.2918 92.8942 64.3205 94.4939 69.1278 94.4939C72.3663 94.4939 74.665 93.2662 74.665 93.2662V89.1069C74.665 89.1069 73.9334 89.5303 72.4703 89.5303C70.4868 89.5303 69.2318 87.4515 68.3449 86.1195L58.1784 70.8447C58.1784 70.8447 64.4472 68.2321 64.4472 61.1383C64.4472 56.1778 62.1485 52.2316 57.6037 50.3644C55.67 49.5631 53.4751 49.1367 49.7675 49.1367ZM48.0962 53.1915H50.0812C53.2669 53.1915 54.8326 56.3363 54.8326 60.9779C54.8326 64.9255 53.7375 67.8057 51.4387 68.6055C51.0209 68.7655 50.3934 68.8169 49.8202 68.8169H48.0962V53.1915Z" fill="#AAAAAA"/>
<path fill-rule="evenodd" clip-rule="evenodd" d="M255.228 47.625C246.993 47.625 242.095 51.9762 242.095 58.7632C242.095 64.1486 245.377 66.5842 249.235 68.657L256.74 72.6968C258.616 73.7325 259.708 74.5111 259.708 76.1682C259.708 78.9123 256.948 80.2594 254.082 80.2594C248.661 80.2594 246.525 76.8925 246.16 71.5056H242.199V83.1094C242.199 83.1094 247.62 88.4464 255.124 88.4464C263.567 88.4464 269.246 83.0065 269.246 75.961C269.246 70.9369 266.798 68.2942 262.107 65.7558L254.236 61.5074C252.049 60.316 250.121 58.9159 250.121 56.1188C250.121 53.1676 252.257 51.5635 254.655 51.5635C258.928 51.5635 260.701 54.5645 261.951 60.3173H266.38V50.3691C262.524 48.5564 258.616 47.625 255.228 47.625Z" fill="#AAAAAA"/>
<path fill-rule="evenodd" clip-rule="evenodd" d="M166.676 49.1367H157.03V64.0002H149.206V49.1367H139.56V83.0487H135V86.9342L149.168 86.9358L149.208 86.9342V72.0708H157.032V86.9342H166.678L166.676 49.1367Z" fill="#AAAAAA"/>
<path fill-rule="evenodd" clip-rule="evenodd" d="M199.85 49.1367H174.218V86.9342H199.85L199.861 73.6992H195.92V75.6389C195.92 77.6814 195.558 78.9091 191.512 78.9091L183.655 78.9149V71.304H191.096V64.2054H183.655V57.1555L191.512 57.1613C195.558 57.1613 195.92 58.3874 195.92 60.43V62.3712H199.861L199.85 49.1367Z" fill="#AAAAAA"/>
<path fill-rule="evenodd" clip-rule="evenodd" d="M210.443 99.0303L212.185 104.11L213.935 99.0303H214.944V105.078H214.247V100.046H214.23L212.503 105.078H211.876L210.148 100.046H210.131V105.078H209.433V99.0303H210.443ZM204.385 99.7076V99.0303H208.81V99.7076H206.965V105.078H206.229V99.7076H204.385Z" fill="#AAAAAA"/>
</g>
<defs>
<clipPath id="clip0_104_456">
<rect width="270" height="127" fill="white"/>
</clipPath>
</defs>
</svg>
