<svg width="120" height="56" viewBox="0 0 120 56" fill="none" xmlns="http://www.w3.org/2000/svg">
<g clip-path="url(#clip0_104_456)">
<path fill-rule="evenodd" clip-rule="evenodd" d="M33.2005 43.666C31.5916 43.666 30.5028 44.8427 30.5028 46.3833V52.8813C30.5028 55.0353 31.9656 55.666 33.2334 55.666C34.7122 55.666 35.8659 54.3893 35.8659 52.9306V52.2013H34.2081V52.7813C34.2081 53.7099 33.6235 53.9747 33.1676 53.9747C32.4208 53.9747 32.16 53.444 32.16 52.7647V46.7313C32.16 45.9366 32.3559 45.3566 33.1851 45.3566C33.8179 45.3566 34.2081 45.92 34.2081 46.5826V47.146H35.8659V46.4833C35.8659 44.8433 34.7283 43.666 33.2005 43.666Z" fill="#AAAAAA"/>
<path fill-rule="evenodd" clip-rule="evenodd" d="M43.9106 43.666C42.61 43.666 41.229 44.6273 41.229 46.55V52.7813C41.229 54.7046 42.61 55.666 43.9106 55.666C45.2125 55.666 46.5921 54.7046 46.5921 52.7813V46.55C46.5921 44.6273 45.2125 43.666 43.9106 43.666ZM43.9106 53.9753C43.3307 53.9753 42.8286 53.5933 42.8286 52.7813V46.55C42.8286 45.7373 43.3314 45.3566 43.9106 45.3566C44.4912 45.3566 44.9933 45.7373 44.9933 46.55V52.7813C44.9933 53.5933 44.4912 53.9753 43.9106 53.9753Z" fill="#AAAAAA"/>
<path fill-rule="evenodd" clip-rule="evenodd" d="M51.9553 43.666V55.666H53.5307V50.5426H56.2458V48.9246H53.5307V45.2846H56.6481V43.666H51.9553Z" fill="#AAAAAA"/>
<path fill-rule="evenodd" clip-rule="evenodd" d="M62.6815 43.666V55.666H64.2556V50.5426H66.9727V48.9246H64.2556V45.2846H67.3743V43.666H62.6815Z" fill="#AAAAAA"/>
<path fill-rule="evenodd" clip-rule="evenodd" d="M73.4078 43.666V55.666H78.1006V53.946H74.9832V50.4246H77.6983V48.806H74.9832V45.2853H78.1006V43.666H73.4078Z" fill="#AAAAAA"/>
<path fill-rule="evenodd" clip-rule="evenodd" d="M83.4637 43.666V55.666H88.1565V53.946H85.0391V50.4246H87.7549V48.806H85.0391V45.2853H88.1565V43.666H83.4637Z" fill="#AAAAAA"/>
<path fill-rule="evenodd" clip-rule="evenodd" d="M34.5882 0.461914H27.9929V2.22325H30.0423V17.6072H34.7283C37.0372 17.6072 38.0736 17.2372 39.1107 16.6106C41.4658 15.1986 43.0915 12.2326 43.0915 9.01191C43.0915 5.76791 41.4658 2.82525 39.0866 1.43591C38.0508 0.810581 36.9205 0.461914 34.5882 0.461914ZM34.3757 2.22325H35.1299C35.931 2.22325 36.4251 2.40791 36.8495 2.80258C38.0267 3.91458 38.8043 6.11591 38.8043 9.03458C38.8043 11.9546 38.0267 14.1552 36.8495 15.2679C36.4251 15.6612 35.931 15.8472 35.1299 15.8472H34.3757V2.22325Z" fill="#AAAAAA"/>
<path fill-rule="evenodd" clip-rule="evenodd" d="M59.3296 0.333008H50.8223V2.10097H53.0125V13.2863C53.0125 13.6583 52.9897 14.0997 52.7336 14.4957C52.4299 14.937 51.8943 15.2157 51.2655 15.2157C50.6588 15.2157 50.1231 14.937 49.8201 14.4957C49.564 14.0997 49.5405 13.6583 49.5405 13.2863V0.333008H45.2513V12.6357C45.2513 13.2397 45.2983 13.7277 45.3679 14.0997C45.974 16.9137 48.6776 18.333 51.2881 18.333C53.8751 18.333 56.5795 16.9137 57.1856 14.0997C57.2552 13.7277 57.3016 13.2397 57.3016 12.6357V2.10097H59.3295L59.3296 0.333008Z" fill="#AAAAAA"/>
<path fill-rule="evenodd" clip-rule="evenodd" d="M75.419 0.333008H67.013V2.04438H67.8791C68.8358 2.04438 69.4499 2.17966 69.4499 3.80034V10.1757L64.8946 0.333008H61.3408V16.9997H67.4461V15.2876H65.5093V8.17104L69.6336 16.9997H72.7308V3.80034C72.7308 2.157 73.3918 2.04438 74.3491 2.04438H75.419V0.333008Z" fill="#AAAAAA"/>
<path fill-rule="evenodd" clip-rule="evenodd" d="M91.5084 0.333008H83.1017V2.04438H83.9679C84.9239 2.04438 85.5392 2.17966 85.5392 3.80034V10.1757L80.9832 0.333008H77.4302V16.9997H83.5348V15.2876H81.5986V8.17104L85.7216 16.9997H88.8194V3.80034C88.8194 2.157 89.4805 2.04438 90.4371 2.04438H91.5084V0.333008Z" fill="#AAAAAA"/>
<path fill-rule="evenodd" clip-rule="evenodd" d="M38.5556 21H38.5404C35.9352 21 33.2369 22.3934 32.6315 25.1567C32.5626 25.5234 32.515 26.002 32.515 26.596V33.4053C32.515 33.998 32.5619 34.4787 32.6315 34.8433C33.2362 37.6067 35.9352 39 38.5175 39H38.5806C41.1623 39 43.8606 37.6067 44.4653 34.8433C44.5358 34.478 44.5819 33.9987 44.5819 33.4053V26.596C44.5819 26.002 44.535 25.5227 44.4653 25.1567C43.8606 22.3934 41.1621 21 38.5556 21ZM36.7944 25.9566C36.7944 25.5913 36.8172 25.1567 37.0747 24.7687C37.3763 24.3347 37.9113 24.0606 38.516 24.0606C39.1442 24.0606 39.6798 24.334 39.9821 24.7687C40.2382 25.1567 40.2604 25.5913 40.2604 25.9566V34.0433C40.2604 34.4087 40.2375 34.8433 39.9821 35.232C39.6791 35.6653 39.1442 35.94 38.5395 35.94C37.9114 35.94 37.3757 35.6653 37.0741 35.232C36.8179 34.8433 36.7944 34.4087 36.7944 34.0433V25.9566Z" fill="#AAAAAA"/>
<path fill-rule="evenodd" clip-rule="evenodd" d="M7.39509 21.7441H0.335205V23.5041H2.31286V37.1281H0.335205V38.8881H2.3504V38.8895H7.69074C8.6675 38.8895 9.48537 38.8428 9.98616 38.7268C12.8031 38.1248 14.2586 36.0401 14.2586 33.7455C14.2586 31.8455 13.4856 30.2921 11.6219 29.2281C12.3467 28.472 12.7533 27.4688 12.7582 26.4241C12.7582 24.8488 11.872 23.2508 10.5996 22.4848C9.53163 21.8368 8.41744 21.7441 7.39509 21.7441ZM6.49342 23.5041H7.14504C7.59956 23.5041 7.96291 23.5281 8.28068 23.6668C9.07643 24.0375 9.39353 24.8715 9.39353 25.8215C9.39353 26.7721 9.07643 27.6055 8.28068 27.9761C7.96224 28.1155 7.59956 28.1381 7.14504 28.1381H6.49342V23.5041ZM6.49342 31.7995H7.41722C8.19018 31.7995 8.78079 31.8915 9.21185 32.2161C9.80314 32.6795 10.1216 33.5361 10.1216 34.4868C10.1216 35.3908 9.80314 36.2481 9.21185 36.7115C8.78079 37.0348 8.19018 37.1288 7.41722 37.1288H6.49342V31.7995Z" fill="#AAAAAA"/>
<path fill-rule="evenodd" clip-rule="evenodd" d="M60 21.666H45.9218V25.2007H50.7439V36.614H48.7073V38.3253H50.7546V38.3329H55.0492V38.3253H57.1012V36.614H55.0659V25.2007H60V21.666Z" fill="#AAAAAA"/>
<path fill-rule="evenodd" clip-rule="evenodd" d="M97.1798 21.666H92.1787V39.0707H96.4357V32.1307H96.5745L101.08 39.0787C102.313 40.96 103.661 41.666 105.802 41.666C107.243 41.666 108.268 41.1247 108.268 41.1247V39.2907C108.268 39.2907 107.942 39.4774 107.29 39.4774C106.407 39.4774 105.848 38.5607 105.453 37.9734L100.926 31.238C100.926 31.238 103.717 30.086 103.717 26.9581C103.717 24.7707 102.693 23.0308 100.67 22.2067C99.8099 21.8541 98.831 21.666 97.1798 21.666ZM96.4357 23.454H97.3206C98.7378 23.454 99.4371 24.8407 99.4371 26.8873C99.4371 28.628 98.9484 29.898 97.9247 30.2507C97.7384 30.3212 97.46 30.3439 97.2039 30.3439H96.4357V23.454Z" fill="#AAAAAA"/>
<path fill-rule="evenodd" clip-rule="evenodd" d="M22.1189 21.666H15.0837V23.454H17.103V39.07H21.3761V32.132H21.5149L26.0106 39.0787C27.2408 40.9607 28.5869 41.666 30.7234 41.666C32.1628 41.666 33.1844 41.1247 33.1844 41.1247V39.2907C33.1844 39.2907 32.8593 39.4774 32.209 39.4774C31.3274 39.4774 30.7696 38.5607 30.3755 37.9734L25.857 31.238C25.857 31.238 28.6432 30.086 28.6432 26.9581C28.6432 24.7707 27.6215 23.0307 25.6016 22.2074C24.7422 21.854 23.7667 21.666 22.1189 21.666ZM21.3761 23.454H22.2583C23.6741 23.454 24.37 24.8407 24.37 26.8873C24.37 28.628 23.8833 29.898 22.8616 30.2507C22.6759 30.3212 22.397 30.3439 22.1423 30.3439H21.3761V23.454Z" fill="#AAAAAA"/>
<path fill-rule="evenodd" clip-rule="evenodd" d="M113.435 21C109.775 21 107.598 22.9187 107.598 25.9113C107.598 28.286 109.057 29.36 110.771 30.274L114.107 32.0553C114.941 32.512 115.426 32.8553 115.426 33.586C115.426 34.796 114.199 35.39 112.925 35.39C110.516 35.39 109.567 33.9054 109.404 31.53H107.644V36.6467C107.644 36.6467 110.053 39 113.389 39C117.141 39 119.665 36.6013 119.665 33.4946C119.665 31.2793 118.577 30.114 116.492 28.9947L112.994 27.1214C112.022 26.596 111.165 25.9786 111.165 24.7453C111.165 23.444 112.114 22.7367 113.18 22.7367C115.079 22.7367 115.867 24.06 116.423 26.5966H118.391V22.21C116.678 21.4107 114.941 21 113.435 21Z" fill="#AAAAAA"/>
<path fill-rule="evenodd" clip-rule="evenodd" d="M74.0782 21.666H69.791V28.22H66.3137V21.666H62.0265V36.6193H60V38.3326L66.297 38.3333L66.3147 38.3326V31.7787H69.792V38.3326H74.0792L74.0782 21.666Z" fill="#AAAAAA"/>
<path fill-rule="evenodd" clip-rule="evenodd" d="M88.8221 21.666H77.4302V38.3326H88.8221L88.8272 32.4967H87.0754V33.352C87.0754 34.2527 86.9146 34.794 85.1166 34.794L81.6246 34.7965V31.4406H84.9316V28.3105H81.6246V25.2019L85.1166 25.2044C86.9146 25.2044 87.0754 25.7451 87.0754 26.6457V27.5017H88.8272L88.8221 21.666Z" fill="#AAAAAA"/>
<path fill-rule="evenodd" clip-rule="evenodd" d="M93.5304 43.666L94.3046 45.906L95.0823 43.666H95.5307V46.3326H95.2211V44.114H95.2135L94.4459 46.3326H94.167L93.3994 44.114H93.3918V46.3326H93.0814V43.666H93.5304ZM90.838 43.9647V43.666H92.8043V43.9647H91.9844V46.3326H91.6573V43.9647H90.838Z" fill="#AAAAAA"/>
</g>
<defs>
<clipPath id="clip0_104_456">
<rect width="120" height="56" fill="white"/>
</clipPath>
</defs>
</svg>
