<svg width="120" height="22" viewBox="0 0 120 22" fill="none" xmlns="http://www.w3.org/2000/svg">
<g clip-path="url(#clip0_104_429)">
<path d="M48.4534 12.159C48.3786 12.2732 48.416 12.4064 48.416 12.5206C48.416 14.3663 48.416 16.1931 48.416 18.0388C48.416 18.5526 48.3598 19.0473 48.2101 19.5421C47.761 21.1214 46.4509 22.0729 44.8227 21.9587C42.8202 21.8255 41.6785 20.5886 41.5475 18.4384C41.5288 18.2291 41.5288 18.0008 41.5288 17.7915C41.5288 13.0534 41.5288 8.33429 41.5288 3.59619C41.5288 2.11196 42.0715 0.951225 43.4565 0.380369C44.8788 -0.209514 46.2263 -0.000200774 47.3866 1.0654C48.023 1.63625 48.4721 2.39739 48.9774 3.08242C50.5308 5.23264 52.1777 7.32578 53.6375 9.55211C53.7872 9.78045 53.9182 10.0088 54.1428 10.2181C54.1428 10.1039 54.1428 9.97074 54.1428 9.85657C54.1428 7.89663 54.1428 5.91767 54.1428 3.95773C54.1428 3.1395 54.2738 2.35933 54.6856 1.65528C55.4342 0.361341 56.6132 -0.0572863 57.9981 0.0949418C59.6264 0.24717 60.7118 1.36985 60.9364 3.04436C60.9926 3.42493 61.0113 3.8055 61.0113 4.18607C61.0113 8.92417 61.0113 13.6813 61.0113 18.4194C61.0113 19.8846 60.506 21.0453 59.1585 21.6542C57.7174 22.2822 56.3325 22.0538 55.1534 20.9692C54.4235 20.3032 53.8808 19.4469 53.2632 18.6477C51.635 16.5356 49.8945 14.4995 48.5096 12.1971C48.5096 12.178 48.4908 12.178 48.4534 12.159Z" fill="#AAAAAA"/>
<path d="M98.9282 12.1972C98.9282 12.3304 98.9282 12.4636 98.9282 12.5968C98.9282 14.5947 98.9095 16.5737 98.8908 18.5717C98.8908 19.1426 98.7224 19.6754 98.4791 20.1701C97.8989 21.3689 96.6637 22.0539 95.2975 21.9398C93.3511 21.7875 92.1908 20.5507 92.0597 18.5336C92.0597 18.4195 92.041 18.3053 92.041 18.1911C92.041 13.2057 92.0223 8.2202 92.041 3.23473C92.041 1.95982 92.6399 0.989365 93.7628 0.437538C95.0355 -0.171374 96.2707 -0.0762316 97.4684 0.703937C97.824 0.932279 98.1235 1.23674 98.3668 1.56022C100.257 4.1481 102.203 6.67889 104 9.34288C104.206 9.64734 104.393 9.95179 104.636 10.3514C104.636 10.123 104.636 9.98985 104.636 9.85665C104.636 7.85866 104.636 5.84163 104.636 3.84364C104.636 2.89222 104.842 1.97885 105.46 1.21771C106.377 0.095025 107.612 -0.0952601 108.922 0.15211C110.157 0.399481 110.925 1.23674 111.28 2.43553C111.449 3.00639 111.486 3.57724 111.486 4.16713C111.486 8.92425 111.486 13.6814 111.486 18.4385C111.486 19.8847 110.962 21.0454 109.633 21.6353C108.248 22.2442 106.92 22.0539 105.741 21.0644C105.553 20.9122 105.366 20.7219 105.217 20.5316C103.345 18.077 101.342 15.7174 99.602 13.1676C99.3774 12.8441 99.1715 12.5206 98.9656 12.1972C98.9844 12.1781 98.9656 12.1781 98.9282 12.1972Z" fill="#AAAAAA"/>
<path d="M6.62516 0.494821C7.84165 0.51385 9.22657 0.399679 10.5928 0.666078C14.3919 1.38916 17.3115 3.33007 18.6403 7.11674C20.0065 11.0176 19.5573 14.7281 16.8436 17.963C15.178 19.961 12.9322 21.0076 10.4243 21.3691C8.10366 21.7116 5.76426 21.4833 3.44359 21.5213C3.3313 21.5213 3.219 21.4833 3.10671 21.4642C1.27263 21.1408 0 19.6185 0 17.7347C0 13.263 0 8.77222 0 4.30052C0 2.18836 1.59079 0.532878 3.68688 0.494821C4.60393 0.475793 5.53968 0.494821 6.62516 0.494821ZM6.86846 11.0176C6.86846 12.1783 6.86846 13.32 6.86846 14.4808C6.86846 14.652 6.84974 14.8043 7.11175 14.8043C7.84165 14.7852 8.55282 14.8423 9.28271 14.7472C11.1917 14.5188 12.4643 13.0536 12.483 11.0366C12.5017 9.05765 11.2291 7.53537 9.32014 7.288C8.60897 7.19286 7.89779 7.26897 7.18662 7.23091C6.9246 7.21188 6.84974 7.30703 6.84974 7.57343C6.86846 8.71514 6.86846 9.87588 6.86846 11.0176Z" fill="#AAAAAA"/>
<path d="M70.2379 6.62211C71.4731 5.00469 72.7457 3.46338 73.9435 1.86498C74.6359 0.951613 75.4594 0.304644 76.6197 0.171445C78.641 -0.037869 80.5874 1.86498 80.4376 3.92006C80.3628 4.87149 79.9885 5.67068 79.4083 6.39377C78.2292 7.8209 77.0315 9.22901 75.8337 10.6371C75.6653 10.8464 75.6653 10.9606 75.8337 11.1509C77.1251 12.5971 78.379 14.0813 79.6516 15.5275C80.3441 16.3266 80.7371 17.221 80.6997 18.2866C80.6248 20.57 78.3603 22.3397 76.2829 21.7117C75.5717 21.5024 74.9915 21.0647 74.5237 20.4749C73.1762 18.8004 71.7912 17.1449 70.4812 15.4323C70.425 15.3562 70.3689 15.2801 70.294 15.1849C70.163 15.2611 70.2192 15.3752 70.2192 15.4513C70.2192 16.4598 70.2379 17.4493 70.2005 18.4578C70.1443 20.4939 68.722 21.921 66.7756 21.902C64.8105 21.902 63.3507 20.4749 63.3507 18.4578C63.332 13.4533 63.332 8.42982 63.3507 3.42532C63.3694 1.4083 64.8479 -0.0188405 66.7943 0.000188026C68.7407 0.0192165 70.1443 1.4083 70.2005 3.42532C70.2566 4.52897 70.2379 5.57554 70.2379 6.62211Z" fill="#AAAAAA"/>
<path d="M39.2083 9.00096C39.1896 10.371 39.2645 12.0836 39.1709 13.7771C38.9463 17.9824 35.8583 21.3124 31.741 21.8452C29.9069 22.0735 28.129 21.9784 26.4072 21.2553C23.3379 19.9804 21.6535 17.6018 21.1856 14.3099C21.1295 13.8913 21.1108 13.4536 21.0921 13.016C21.0921 9.87627 21.0733 6.7556 21.0921 3.6159C21.1108 1.52276 22.5518 0.0385356 24.5356 0.0575641C26.5382 0.0765926 27.9605 1.56082 27.9605 3.69201C27.9605 6.64143 27.9605 9.60988 27.9605 12.5593C27.9605 13.5488 28.2974 14.348 29.1957 14.8047C30.5994 15.5277 32.1714 14.5192 32.3211 12.8638C32.3399 12.6544 32.3399 12.4261 32.3399 12.2168C32.3399 9.34348 32.3399 6.45114 32.3399 3.57784C32.3399 1.69402 33.5938 0.266878 35.4091 0.0765926C37.2058 -0.113692 38.7404 1.00899 39.1147 2.8167C39.1709 3.10213 39.1896 3.38755 39.1896 3.69201C39.2083 5.34749 39.2083 7.00297 39.2083 9.00096Z" fill="#AAAAAA"/>
<path d="M82.8518 10.9797C82.8518 8.48697 82.8331 6.01327 82.8518 3.52053C82.8705 2.07436 83.4694 0.951682 84.7982 0.380827C86.1644 -0.209057 87.4932 -0.0568289 88.6348 0.970711C89.3273 1.57962 89.6829 2.41688 89.6829 3.33025C89.7016 8.44891 89.7203 13.5486 89.6829 18.6672C89.6641 20.5891 88.1108 22.0162 86.2393 21.9592C84.2742 21.9021 82.8705 20.513 82.8518 18.5531C82.8331 16.0223 82.8518 13.5105 82.8518 10.9797Z" fill="#AAAAAA"/>
<path d="M113.582 5.09957C113.564 4.24329 113.582 3.40603 113.769 2.56878C114.144 0.818157 115.585 -0.171325 117.363 0.114102C119.066 0.380501 120.151 1.80764 119.983 3.55826C119.833 5.00443 119.44 6.39351 118.879 7.72551C118.542 8.50567 118.036 9.13362 117.213 9.41904C115.865 9.87573 114.462 9.20973 113.957 7.83968C113.62 6.96437 113.601 6.03197 113.582 5.09957Z" fill="#AAAAAA"/>
</g>
<defs>
<clipPath id="clip0_104_429">
<rect width="120" height="22" fill="white"/>
</clipPath>
</defs>
</svg>
