<svg width="270" height="50" viewBox="0 0 270 50" fill="none" xmlns="http://www.w3.org/2000/svg">
<g clip-path="url(#clip0_104_429)">
<path d="M109.02 27.6353C108.852 27.8948 108.936 28.1975 108.936 28.457C108.936 32.6519 108.936 36.8036 108.936 40.9985C108.936 42.1661 108.81 43.2906 108.473 44.415C107.462 48.0044 104.515 50.1668 100.851 49.9073C96.3455 49.6046 93.7768 46.7935 93.4821 41.9067C93.4399 41.4309 93.4399 40.912 93.4399 40.4363C93.4399 29.6679 93.4399 18.9427 93.4399 8.17431C93.4399 4.80107 94.6611 2.16303 97.7772 0.86563C100.977 -0.475015 104.009 0.00069783 106.62 2.42251C108.052 3.71991 109.062 5.44977 110.199 7.00665C113.694 11.8935 117.4 16.6506 120.685 21.7105C121.021 22.2295 121.316 22.7484 121.821 23.2241C121.821 22.9646 121.821 22.6619 121.821 22.4024C121.821 17.948 121.821 13.4504 121.821 8.99599C121.821 7.13639 122.116 5.36328 123.043 3.76315C124.727 0.822383 127.38 -0.129042 130.496 0.216931C134.159 0.562904 136.602 3.11445 137.107 6.92016C137.233 7.78509 137.275 8.65002 137.275 9.51495C137.275 20.2834 137.275 31.095 137.275 41.8634C137.275 45.1934 136.139 47.8314 133.107 49.2153C129.864 50.6425 126.748 50.1235 124.095 47.6585C122.453 46.1448 121.232 44.1987 119.842 42.3824C116.179 37.582 112.263 32.9546 109.147 27.7218C109.147 27.6785 109.105 27.6785 109.02 27.6353Z" fill="#AAAAAA"/>
<path d="M222.589 27.7213C222.589 28.0241 222.589 28.3268 222.589 28.6295C222.589 33.1704 222.547 37.6681 222.504 42.209C222.504 43.5064 222.125 44.7173 221.578 45.8417C220.273 48.5662 217.493 50.1231 214.419 49.8636C210.04 49.5176 207.429 46.7066 207.135 42.1225C207.135 41.863 207.092 41.6035 207.092 41.344C207.092 30.0134 207.05 18.6828 207.092 7.35219C207.092 4.45467 208.44 2.24909 210.966 0.994938C213.83 -0.388954 216.609 -0.172721 219.304 1.60039C220.104 2.11935 220.778 2.8113 221.325 3.54649C225.578 9.42803 229.958 15.1798 234 21.2344C234.463 21.9263 234.884 22.6182 235.432 23.5264C235.432 23.0075 235.432 22.7047 235.432 22.402C235.432 17.8611 235.432 13.277 235.432 8.73608C235.432 6.57375 235.895 4.49791 237.285 2.76805C239.348 0.216499 242.127 -0.215968 245.075 0.346238C247.854 0.908444 249.581 2.8113 250.381 5.53583C250.76 6.83323 250.844 8.13063 250.844 9.47127C250.844 20.2829 250.844 31.0946 250.844 41.9062C250.844 45.193 249.665 47.831 246.675 49.1717C243.559 50.5556 240.569 50.1231 237.916 47.8743C237.495 47.5283 237.074 47.0958 236.737 46.6634C232.526 41.0845 228.021 35.722 224.105 29.9269C223.599 29.1917 223.136 28.4565 222.673 27.7213C222.715 27.6781 222.673 27.6781 222.589 27.7213Z" fill="#AAAAAA"/>
<path d="M14.9066 1.12477C17.6437 1.16802 20.7598 0.908538 23.8337 1.51399C32.3819 3.15736 38.9509 7.56852 41.9406 16.1746C45.0146 25.0401 44.004 33.4732 37.8982 40.8252C34.1505 45.3661 29.0974 47.7446 23.4548 48.5663C18.2332 49.3447 12.9696 48.8258 7.74807 48.9123C7.49541 48.9123 7.24276 48.8258 6.99011 48.7825C2.86342 48.0473 0 44.5876 0 40.3062C0 30.1432 0 19.937 0 9.77409C0 4.97372 3.57927 1.21126 8.29549 1.12477C10.3588 1.08152 12.4643 1.12477 14.9066 1.12477ZM15.454 25.0401C15.454 27.6782 15.454 30.273 15.454 32.911C15.454 33.3003 15.4119 33.6462 16.0014 33.6462C17.6437 33.603 19.2438 33.7327 20.8861 33.5165C25.1812 32.9975 28.0446 29.6675 28.0867 25.0834C28.1289 20.5857 25.2654 17.126 20.9703 16.5638C19.3702 16.3476 17.77 16.5206 16.1699 16.4341C15.5804 16.3908 15.4119 16.6071 15.4119 17.2125C15.454 19.8073 15.454 22.4454 15.454 25.0401Z" fill="#AAAAAA"/>
<path d="M158.035 15.0502C160.815 11.3743 163.678 7.87131 166.373 4.2386C167.931 2.16276 169.784 0.692373 172.395 0.389647C176.942 -0.0860659 181.322 4.2386 180.985 8.90923C180.816 11.0716 179.974 12.8879 178.669 14.5313C176.016 17.7748 173.321 20.975 170.626 24.1753C170.247 24.651 170.247 24.9105 170.626 25.3429C173.532 28.6297 176.353 32.0029 179.216 35.2897C180.774 37.106 181.659 39.1386 181.574 41.5604C181.406 46.75 176.311 50.7719 171.637 49.3448C170.037 48.8691 168.731 47.8744 167.678 46.5338C164.647 42.7281 161.53 38.9656 158.583 35.0734C158.457 34.9004 158.33 34.7275 158.162 34.5112C157.867 34.6842 157.993 34.9437 157.993 35.1167C157.993 37.4087 158.035 39.6576 157.951 41.9496C157.825 46.577 154.625 49.8205 150.245 49.7773C145.824 49.7773 142.539 46.5338 142.539 41.9496C142.497 30.5758 142.497 19.1587 142.539 7.78482C142.581 3.20068 145.908 -0.0428193 150.287 0.000427331C154.667 0.0436739 157.825 3.20068 157.951 7.78482C158.078 10.2931 158.035 12.6717 158.035 15.0502Z" fill="#AAAAAA"/>
<path d="M88.2185 20.4562C88.1764 23.57 88.3449 27.4622 88.1343 31.3111C87.629 40.8686 80.681 48.4368 71.417 49.6477C67.2903 50.1666 63.29 49.9504 59.4159 48.307C52.51 45.4095 48.7202 40.0037 47.6675 32.522C47.5412 31.5706 47.4991 30.5759 47.4569 29.5812C47.4569 22.4455 47.4148 15.3531 47.4569 8.21741C47.4991 3.46028 50.7415 0.0870482 55.205 0.130295C59.7107 0.173541 62.911 3.54678 62.911 8.3904C62.911 15.0936 62.911 21.8401 62.911 28.5433C62.911 30.7921 63.6689 32.6085 65.6902 33.6464C68.8484 35.2898 72.3855 32.9977 72.7224 29.2353C72.7645 28.7596 72.7645 28.2406 72.7645 27.7649C72.7645 21.2346 72.7645 14.6612 72.7645 8.13092C72.7645 3.8495 75.5858 0.606007 79.6704 0.173541C83.7129 -0.258925 87.1658 2.29263 88.008 6.40105C88.1343 7.04975 88.1764 7.69845 88.1764 8.3904C88.2185 12.1529 88.2185 15.9153 88.2185 20.4562Z" fill="#AAAAAA"/>
<path d="M186.417 24.9535C186.417 19.2882 186.375 13.6662 186.417 8.00085C186.459 4.71411 187.806 2.16256 190.796 0.865161C193.87 -0.475484 196.86 -0.129512 199.428 2.20581C200.987 3.5897 201.787 5.49255 201.787 7.56839C201.829 19.2017 201.871 30.7918 201.787 42.4252C201.744 46.7931 198.249 50.0366 194.039 49.9068C189.617 49.7771 186.459 46.6201 186.417 42.1657C186.375 36.4139 186.417 30.7053 186.417 24.9535Z" fill="#AAAAAA"/>
<path d="M255.56 11.5906C255.518 9.64455 255.56 7.7417 255.981 5.83885C256.823 1.86016 260.066 -0.388666 264.066 0.260033C267.898 0.865486 270.34 4.10898 269.961 8.08767C269.624 11.3744 268.74 14.5314 267.477 17.5587C266.719 19.3318 265.582 20.7589 263.729 21.4076C260.697 22.4455 257.539 20.9319 256.402 17.8182C255.644 15.8288 255.602 13.7097 255.56 11.5906Z" fill="#AAAAAA"/>
</g>
<defs>
<clipPath id="clip0_104_429">
<rect width="270" height="50" fill="white"/>
</clipPath>
</defs>
</svg>
