<svg width="270" height="94" viewBox="0 0 270 94" fill="none" xmlns="http://www.w3.org/2000/svg">
<g clip-path="url(#clip0_104_413)">
<path fill-rule="evenodd" clip-rule="evenodd" d="M216.13 86.3639V86.4375C216.13 90.5578 212.726 93.898 208.527 93.898H61.7803C57.5813 93.898 54.1768 90.5578 54.1768 86.4375V86.3701H29.2592L28.6727 86.3607L28.5222 86.3623C22.413 86.3623 18.8068 83.605 17.5003 77.9305C11.0498 49.9451 3.26631 16.3715 0.512004 4.48516C0.393046 3.97374 0.39759 3.44095 0.525255 2.93168C0.65292 2.42241 0.899964 1.95159 1.24557 1.55889C1.59117 1.16618 2.02521 0.863112 2.5111 0.675209C2.997 0.487305 3.52051 0.420078 4.03752 0.479192L134.131 15.5004L265.751 0.256725C266.268 0.198254 266.791 0.265937 267.277 0.454082C267.762 0.642227 268.196 0.945331 268.541 1.3379C268.887 1.73047 269.134 2.20103 269.261 2.71C269.389 3.21897 269.394 3.75146 269.275 4.26269C263.596 28.8166 257.927 53.3731 252.268 77.9321C250.96 83.6034 247.354 86.3623 241.246 86.3623L216.13 86.3639ZM216.056 81.6623L240.969 81.6607C244.977 81.6983 246.8 80.5797 247.657 76.8652C255.772 41.6559 264.21 5.15569 264.21 5.15569L134.044 20.2302L5.40459 5.37503C5.40459 5.37503 13.8242 41.6559 21.9382 76.8652C22.7948 80.5797 24.618 81.6983 28.6261 81.6607L29.1723 81.6717L54.2498 81.6701C54.7634 78.0417 57.9398 75.2468 61.7787 75.2468H208.525C212.364 75.2468 215.539 78.037 216.056 81.6623Z" fill="#AAAAAA"/>
<path fill-rule="evenodd" clip-rule="evenodd" d="M70.2931 87.426C71.8697 87.426 73.0133 86.1695 73.0133 84.5621C73.0133 82.9641 71.8697 81.7077 70.2931 81.7077H68.954V87.426H70.2931ZM66.7754 79.8997C66.7754 79.7587 66.8871 79.6318 67.0268 79.6318H70.4328C71.7287 79.6339 72.9712 80.1535 73.889 81.0772C74.8069 82.0009 75.3255 83.2537 75.3316 84.5621C75.3312 85.8745 74.8152 87.1331 73.8968 88.0618C72.9784 88.9905 71.7326 89.5135 70.4328 89.5159H67.0268C66.8871 89.5159 66.7754 89.3906 66.7754 89.2496V79.8997Z" fill="#AAAAAA"/>
<path fill-rule="evenodd" clip-rule="evenodd" d="M70.2931 87.4258C71.8697 87.4258 73.0133 86.1693 73.0133 84.5619C73.0133 82.9639 71.8697 81.7075 70.2931 81.7075H68.954V87.4258H70.2931ZM66.7754 79.8995C66.7754 79.7585 66.8871 79.6316 67.0268 79.6316H70.4328C71.7287 79.6337 72.9712 80.1533 73.889 81.077C74.8069 82.0007 75.3255 83.2535 75.3316 84.5619C75.3312 85.8743 74.8152 87.1329 73.8968 88.0616C72.9784 88.9903 71.7326 89.5132 70.4328 89.5157H67.0268C66.8871 89.5157 66.7754 89.3904 66.7754 89.2494V79.8995ZM87.778 87.3992C89.3142 87.3992 90.5695 86.127 90.5695 84.5901C90.5695 83.036 89.3126 81.7513 87.778 81.7513C86.2573 81.7513 85.0004 83.036 85.0004 84.5901C85.0004 86.127 86.2573 87.3992 87.778 87.3992ZM87.778 79.4922C88.4401 79.4916 89.0957 79.6232 89.7072 79.8795C90.3187 80.1357 90.874 80.5116 91.341 80.9855C91.808 81.4593 92.1776 82.0217 92.4284 82.6404C92.6792 83.259 92.8063 83.9217 92.8025 84.5901C92.8055 85.2569 92.6777 85.9178 92.4262 86.5344C92.1747 87.151 91.8047 87.7112 91.3374 88.1825C90.8702 88.6538 90.315 89.0269 89.7041 89.2802C89.0931 89.5335 88.4384 89.662 87.778 89.6583C87.1182 89.6618 86.4643 89.5331 85.8542 89.2795C85.2441 89.026 84.69 88.6526 84.2239 88.1812C83.7578 87.7097 83.389 87.1495 83.139 86.5331C82.889 85.9166 82.7627 85.2562 82.7675 84.5901C82.7621 83.9223 82.8879 83.2601 83.1374 82.6416C83.3869 82.0231 83.7553 81.4606 84.2213 80.9867C84.6873 80.5127 85.2416 80.1366 85.8524 79.8801C86.4631 79.6236 87.1165 79.4918 87.778 79.4922Z" fill="#AAAAAA"/>
<path fill-rule="evenodd" clip-rule="evenodd" d="M87.7778 87.3992C89.314 87.3992 90.5693 86.127 90.5693 84.5901C90.5693 83.036 89.3124 81.7513 87.7778 81.7513C86.2571 81.7513 85.0002 83.036 85.0002 84.5901C85.0002 86.127 86.2571 87.3992 87.7778 87.3992ZM87.7778 79.4922C88.4399 79.4916 89.0955 79.6232 89.707 79.8795C90.3185 80.1357 90.8738 80.5116 91.3408 80.9855C91.8078 81.4593 92.1774 82.0217 92.4282 82.6404C92.679 83.259 92.8061 83.9217 92.8023 84.5901C92.8053 85.2569 92.6774 85.9178 92.426 86.5344C92.1745 87.151 91.8045 87.7112 91.3372 88.1825C90.87 88.6538 90.3148 89.0269 89.7038 89.2802C89.0929 89.5335 88.4382 89.662 87.7778 89.6583C87.118 89.6618 86.4641 89.5331 85.854 89.2795C85.2439 89.026 84.6898 88.6526 84.2237 88.1812C83.7576 87.7097 83.3888 87.1495 83.1388 86.5331C82.8888 85.9166 82.7625 85.2562 82.7673 84.5901C82.7619 83.9223 82.8877 83.2601 83.1372 82.6416C83.3867 82.0231 83.7551 81.4606 84.2211 80.9867C84.6871 80.5127 85.2414 80.1366 85.8522 79.8801C86.4629 79.6236 87.1163 79.4918 87.7778 79.4922ZM100.739 79.8995C100.739 79.7585 100.867 79.6332 101.006 79.6332H102.722C102.876 79.6332 102.986 79.7585 102.986 79.8995V85.6194C102.986 86.6064 103.712 87.3976 104.704 87.3976C105.709 87.3976 106.448 86.608 106.448 85.6194V79.9011C106.448 79.8657 106.454 79.8306 106.467 79.7978C106.481 79.7651 106.5 79.7353 106.525 79.7102C106.55 79.6851 106.579 79.6652 106.611 79.6517C106.644 79.6382 106.678 79.6314 106.713 79.6316H108.431C108.571 79.6316 108.695 79.757 108.695 79.8995V85.7322C108.695 87.8786 106.911 89.6567 104.704 89.6567C102.513 89.6567 100.739 87.8786 100.739 85.7322V79.8995Z" fill="#AAAAAA"/>
<path fill-rule="evenodd" clip-rule="evenodd" d="M100.74 79.9001C100.74 79.7591 100.867 79.6337 101.006 79.6337H102.723C102.876 79.6337 102.986 79.7591 102.986 79.9001V85.62C102.986 86.607 103.713 87.3981 104.704 87.3981C105.71 87.3981 106.448 86.6085 106.448 85.62V79.9016C106.448 79.8663 106.454 79.8312 106.468 79.7984C106.481 79.7656 106.5 79.7358 106.525 79.7107C106.55 79.6856 106.579 79.6658 106.611 79.6523C106.644 79.6388 106.679 79.632 106.714 79.6322H108.431C108.571 79.6322 108.695 79.7575 108.695 79.9001V85.7328C108.695 87.8791 106.911 89.6573 104.704 89.6573C102.513 89.6573 100.74 87.8791 100.74 85.7328V79.9001ZM121.637 79.5068C122.81 79.5068 124.095 79.9988 125.043 80.8322C125.167 80.9341 125.182 81.1033 125.069 81.2145L123.967 82.402C123.916 82.448 123.85 82.4745 123.781 82.477C123.712 82.4796 123.645 82.4581 123.59 82.4161C123.063 81.9195 122.445 81.7362 121.762 81.7362C120.242 81.7362 119.013 83.0365 119.013 84.5907C119.013 86.1291 120.254 87.3997 121.776 87.3997C122.181 87.3997 122.599 87.3433 123.018 87.1741V86.3532H122.139C121.986 86.3532 121.874 86.2419 121.874 86.0994V84.7019C121.874 84.5468 121.986 84.4324 122.138 84.4324H124.946C125.083 84.4324 125.195 84.5609 125.195 84.7019L125.21 88.5011C125.203 88.5879 125.163 88.6686 125.098 88.7267C125.098 88.7267 123.66 89.6447 121.638 89.6447C120.979 89.6489 120.326 89.521 119.717 89.2686C119.107 89.0162 118.553 88.6441 118.087 88.1741C117.621 87.704 117.252 87.1453 117.001 86.5302C116.75 85.9151 116.623 85.2558 116.626 84.5907C116.622 83.9239 116.749 83.263 116.999 82.646C117.249 82.0289 117.618 81.468 118.084 80.9954C118.55 80.5229 119.104 80.1481 119.714 79.8926C120.324 79.6371 120.976 79.506 121.637 79.5068Z" fill="#AAAAAA"/>
<path fill-rule="evenodd" clip-rule="evenodd" d="M121.637 79.5068C122.81 79.5068 124.095 79.9988 125.043 80.8322C125.167 80.9341 125.182 81.1033 125.069 81.2145L123.967 82.402C123.916 82.448 123.85 82.4745 123.781 82.477C123.713 82.4796 123.645 82.4581 123.59 82.4161C123.063 81.9195 122.445 81.7362 121.762 81.7362C120.242 81.7362 119.013 83.0365 119.013 84.5907C119.013 86.1291 120.254 87.3997 121.776 87.3997C122.181 87.3997 122.599 87.3433 123.018 87.1741V86.3532H122.139C121.986 86.3532 121.874 86.2419 121.874 86.0994V84.7019C121.874 84.5468 121.986 84.4324 122.138 84.4324H124.946C125.083 84.4324 125.195 84.5609 125.195 84.7019L125.21 88.5011C125.203 88.5879 125.163 88.6686 125.098 88.7267C125.098 88.7267 123.66 89.6447 121.638 89.6447C120.979 89.6489 120.326 89.521 119.717 89.2686C119.107 89.0162 118.553 88.6441 118.087 88.1741C117.621 87.704 117.252 87.1453 117.001 86.5302C116.75 85.9151 116.623 85.2558 116.626 84.5907C116.622 83.9239 116.749 83.263 116.999 82.646C117.249 82.0289 117.618 81.468 118.084 80.9954C118.55 80.5229 119.104 80.1481 119.714 79.8926C120.324 79.6371 120.976 79.506 121.637 79.5068ZM133.594 79.9001C133.594 79.7591 133.72 79.6337 133.86 79.6337H135.52C135.555 79.6335 135.589 79.6403 135.621 79.6536C135.653 79.6669 135.683 79.6864 135.707 79.7112C135.732 79.7359 135.752 79.7654 135.765 79.7978C135.778 79.8302 135.785 79.865 135.785 79.9001V83.4595H139.776V79.9001C139.776 79.8294 139.804 79.7617 139.854 79.7117C139.903 79.6618 139.97 79.6337 140.04 79.6337H141.703C141.843 79.6337 141.967 79.7591 141.967 79.9001V89.2484C141.967 89.3894 141.843 89.5163 141.703 89.5163H140.04C140.005 89.5163 139.971 89.5093 139.939 89.4959C139.907 89.4824 139.877 89.4626 139.853 89.4377C139.828 89.4128 139.809 89.3833 139.796 89.3508C139.783 89.3183 139.776 89.2835 139.776 89.2484V85.5354H135.785V89.2484C135.785 89.2835 135.779 89.3183 135.766 89.3508C135.752 89.3833 135.733 89.4128 135.708 89.4377C135.684 89.4626 135.655 89.4824 135.623 89.4959C135.591 89.5093 135.556 89.5163 135.521 89.5163H133.86C133.79 89.5139 133.724 89.485 133.674 89.4352C133.625 89.3855 133.596 89.3187 133.594 89.2484V79.9001Z" fill="#AAAAAA"/>
<path fill-rule="evenodd" clip-rule="evenodd" d="M133.594 79.9001C133.594 79.7591 133.72 79.6338 133.859 79.6338H135.52C135.555 79.6336 135.589 79.6403 135.621 79.6536C135.653 79.6669 135.683 79.6865 135.707 79.7112C135.732 79.736 135.752 79.7654 135.765 79.7978C135.778 79.8302 135.785 79.865 135.785 79.9001V83.4596H139.776V79.9001C139.776 79.8295 139.804 79.7617 139.853 79.7118C139.903 79.6618 139.97 79.6338 140.04 79.6338H141.703C141.843 79.6338 141.967 79.7591 141.967 79.9001V89.2484C141.967 89.3894 141.843 89.5163 141.703 89.5163H140.04C140.005 89.5163 139.971 89.5094 139.939 89.4959C139.907 89.4824 139.877 89.4627 139.853 89.4378C139.828 89.4129 139.809 89.3833 139.796 89.3508C139.783 89.3183 139.776 89.2835 139.776 89.2484V85.5354H135.785V89.2484C135.785 89.2835 135.779 89.3183 135.766 89.3508C135.752 89.3833 135.733 89.4129 135.708 89.4378C135.684 89.4627 135.655 89.4824 135.623 89.4959C135.591 89.5094 135.556 89.5163 135.521 89.5163H133.859C133.79 89.514 133.724 89.485 133.674 89.4353C133.625 89.3855 133.596 89.3187 133.594 89.2484V79.9001ZM150.682 79.745C150.682 79.604 150.807 79.4912 150.945 79.4912H151.296L156.864 84.9134H156.879V79.9032C156.879 79.8681 156.886 79.8333 156.899 79.8008C156.912 79.7684 156.931 79.7388 156.956 79.7139C156.981 79.689 157.01 79.6693 157.042 79.6558C157.074 79.6423 157.108 79.6353 157.143 79.6353H158.819C158.959 79.6353 159.083 79.7607 159.083 79.9017V89.4066C159.083 89.5445 158.959 89.6573 158.819 89.6573H158.595C158.531 89.6492 158.469 89.6262 158.414 89.59L152.901 83.9813H152.887V89.2484C152.887 89.2835 152.88 89.3183 152.867 89.3508C152.854 89.3833 152.835 89.4129 152.81 89.4378C152.785 89.4627 152.756 89.4824 152.724 89.4959C152.692 89.5094 152.658 89.5163 152.623 89.5163H150.961C150.892 89.5136 150.826 89.4848 150.777 89.4354C150.728 89.3861 150.699 89.3199 150.696 89.25L150.682 79.745Z" fill="#AAAAAA"/>
<path fill-rule="evenodd" clip-rule="evenodd" d="M150.682 79.745C150.682 79.604 150.807 79.4912 150.945 79.4912H151.296L156.864 84.9134H156.879V79.9032C156.879 79.8681 156.886 79.8333 156.899 79.8008C156.912 79.7684 156.931 79.7388 156.956 79.7139C156.98 79.689 157.01 79.6693 157.042 79.6558C157.074 79.6423 157.108 79.6353 157.143 79.6353H158.819C158.958 79.6353 159.083 79.7607 159.083 79.9017V89.4066C159.083 89.5445 158.958 89.6573 158.819 89.6573H158.595C158.531 89.6492 158.468 89.6262 158.414 89.59L152.901 83.9813H152.887V89.2484C152.887 89.2835 152.88 89.3183 152.867 89.3508C152.854 89.3833 152.834 89.4129 152.81 89.4378C152.785 89.4627 152.756 89.4824 152.724 89.4959C152.692 89.5094 152.658 89.5163 152.623 89.5163H150.961C150.892 89.5136 150.826 89.4848 150.777 89.4354C150.728 89.3861 150.699 89.3199 150.696 89.25L150.682 79.745ZM167.702 79.9001C167.702 79.7591 167.83 79.6338 167.969 79.6338H169.687C169.839 79.6338 169.951 79.7591 169.951 79.9001V85.62C169.951 86.607 170.676 87.3982 171.667 87.3982C171.899 87.4014 172.128 87.3575 172.343 87.2691C172.557 87.1806 172.751 87.0495 172.914 86.8835C173.077 86.7176 173.205 86.5201 173.291 86.303C173.377 86.086 173.418 85.8537 173.413 85.62V79.9017C173.412 79.8664 173.419 79.8315 173.432 79.7988C173.445 79.7661 173.464 79.7364 173.489 79.7113C173.513 79.6863 173.543 79.6664 173.575 79.6528C173.607 79.6392 173.642 79.6322 173.677 79.6322H175.393C175.532 79.6322 175.66 79.7575 175.66 79.9001V85.7328C175.66 87.8791 173.872 89.6573 171.667 89.6573C169.476 89.6573 167.702 87.8791 167.702 85.7328V79.9001Z" fill="#AAAAAA"/>
<path fill-rule="evenodd" clip-rule="evenodd" d="M167.703 79.8997C167.703 79.7587 167.83 79.6334 167.969 79.6334H169.687C169.839 79.6334 169.951 79.7587 169.951 79.8997V85.6196C169.951 86.6066 170.676 87.3978 171.667 87.3978C171.899 87.401 172.128 87.3571 172.343 87.2687C172.557 87.1803 172.751 87.0492 172.914 86.8832C173.077 86.7172 173.205 86.5198 173.291 86.3027C173.377 86.0856 173.418 85.8533 173.413 85.6196V79.9013C173.412 79.8661 173.419 79.8311 173.432 79.7984C173.445 79.7657 173.464 79.736 173.489 79.711C173.514 79.6859 173.543 79.666 173.575 79.6524C173.607 79.6388 173.642 79.6318 173.677 79.6318H175.393C175.533 79.6318 175.66 79.7572 175.66 79.8997V85.7324C175.66 87.8788 173.872 89.6569 171.667 89.6569C169.476 89.6569 167.703 87.8788 167.703 85.7324V79.8997ZM185.478 81.7077H183.48C183.41 81.7069 183.344 81.6783 183.294 81.6282C183.245 81.5781 183.217 81.5104 183.217 81.4398V79.8997C183.216 79.8646 183.223 79.8298 183.236 79.7973C183.249 79.7648 183.269 79.7353 183.293 79.7104C183.318 79.6855 183.347 79.6657 183.379 79.6523C183.411 79.6388 183.446 79.6318 183.48 79.6318H189.68C189.714 79.632 189.748 79.6391 189.78 79.6527C189.812 79.6663 189.841 79.6861 189.866 79.711C189.89 79.7358 189.909 79.7653 189.922 79.7977C189.935 79.8301 189.942 79.8648 189.942 79.8997V81.4398C189.942 81.4749 189.935 81.5097 189.922 81.5422C189.909 81.5747 189.89 81.6042 189.865 81.6291C189.841 81.654 189.811 81.6738 189.779 81.6872C189.747 81.7007 189.713 81.7077 189.678 81.7077H187.683V89.2496C187.683 89.3875 187.557 89.5159 187.416 89.5159H185.743C185.673 89.5136 185.608 89.4849 185.558 89.4354C185.509 89.386 185.48 89.3196 185.478 89.2496V81.7077Z" fill="#AAAAAA"/>
<path fill-rule="evenodd" clip-rule="evenodd" d="M185.478 81.7075H183.48C183.41 81.7066 183.344 81.6781 183.294 81.628C183.245 81.5779 183.217 81.5102 183.217 81.4396V79.8995C183.216 79.8644 183.223 79.8296 183.236 79.7971C183.249 79.7646 183.269 79.7351 183.293 79.7102C183.318 79.6853 183.347 79.6655 183.379 79.652C183.411 79.6386 183.446 79.6316 183.48 79.6316H189.68C189.714 79.6318 189.749 79.6389 189.78 79.6525C189.812 79.6661 189.841 79.6859 189.866 79.7107C189.89 79.7356 189.909 79.7651 189.922 79.7975C189.935 79.8299 189.942 79.8645 189.942 79.8995V81.4396C189.942 81.4747 189.935 81.5095 189.922 81.542C189.909 81.5744 189.89 81.604 189.865 81.6289C189.841 81.6538 189.811 81.6735 189.779 81.687C189.747 81.7005 189.713 81.7075 189.678 81.7075H187.683V89.2494C187.683 89.3872 187.557 89.5157 187.416 89.5157H185.743C185.674 89.5134 185.608 89.4846 185.558 89.4352C185.509 89.3858 185.48 89.3194 185.478 89.2494V81.7075ZM197.306 88.1747L197.964 87.0028C198.074 86.8195 198.341 86.8477 198.438 86.9182C198.493 86.9464 199.497 87.6937 200.419 87.6937C200.978 87.6937 201.383 87.3412 201.383 86.8477C201.383 86.2555 200.892 85.8027 199.944 85.422C198.743 84.9411 197.237 83.9948 197.237 82.2997C197.237 80.9038 198.312 79.4922 200.461 79.4922C201.912 79.4922 203.029 80.2395 203.447 80.5497C203.616 80.6484 203.588 80.9037 203.532 81.0024L202.818 82.0897C202.722 82.2432 202.47 82.3717 202.346 82.273C202.221 82.2025 201.201 81.427 200.349 81.427C199.847 81.427 199.469 81.7654 199.469 82.1461C199.469 82.6678 199.888 83.0642 200.993 83.5154C202.079 83.954 203.811 84.8157 203.811 86.7349C203.811 88.1887 202.57 89.6583 200.517 89.6583C198.701 89.6583 197.697 88.8953 197.376 88.5695C197.237 88.4285 197.195 88.3721 197.306 88.1747Z" fill="#AAAAAA"/>
<path fill-rule="evenodd" clip-rule="evenodd" d="M197.306 88.1747L197.964 87.0028C198.074 86.8195 198.341 86.8477 198.437 86.9182C198.493 86.9464 199.497 87.6937 200.419 87.6937C200.978 87.6937 201.383 87.3412 201.383 86.8477C201.383 86.2555 200.892 85.8027 199.944 85.422C198.743 84.9411 197.236 83.9948 197.236 82.2997C197.236 80.9038 198.312 79.4922 200.461 79.4922C201.912 79.4922 203.029 80.2395 203.446 80.5497C203.616 80.6484 203.588 80.9037 203.532 81.0024L202.818 82.0897C202.722 82.2432 202.47 82.3717 202.346 82.273C202.221 82.2025 201.201 81.427 200.349 81.427C199.846 81.427 199.469 81.7654 199.469 82.1461C199.469 82.6678 199.888 83.0642 200.993 83.5154C202.079 83.954 203.811 84.8157 203.811 86.7349C203.811 88.1887 202.57 89.6583 200.517 89.6583C198.701 89.6583 197.697 88.8953 197.376 88.5695C197.236 88.4285 197.195 88.3721 197.306 88.1747Z" fill="#AAAAAA"/>
<path fill-rule="evenodd" clip-rule="evenodd" d="M258.525 82.9645C258.232 83.0178 257.931 83.0209 257.588 83.0507V81.9289C257.912 81.9289 258.196 81.9133 258.477 81.9336C258.744 81.954 258.886 82.1263 258.9 82.3974C258.916 82.6809 258.82 82.9128 258.525 82.9645ZM259.571 82.1859C259.484 81.7535 259.198 81.4746 258.784 81.4417C258.177 81.3947 257.564 81.4292 256.917 81.4292V84.8304H257.546V83.6084C258.849 83.5363 258.759 83.4878 259.026 84.8743L259.56 84.8414C259.52 84.221 259.611 83.6288 259.001 83.2559C259.481 83.0225 259.669 82.6731 259.571 82.1859Z" fill="#AAAAAA"/>
<path fill-rule="evenodd" clip-rule="evenodd" d="M258.188 85.7978C256.709 85.8104 255.555 84.6385 255.558 83.1298C255.555 82.7835 255.62 82.4401 255.75 82.1196C255.88 81.7991 256.072 81.508 256.315 81.2634C256.557 81.0188 256.846 80.8257 257.164 80.6953C257.482 80.5649 257.822 80.4999 258.165 80.5041C259.627 80.5057 260.756 81.6556 260.759 83.1408C260.761 84.6401 259.651 85.7869 258.188 85.7978ZM258.204 79.998C256.553 79.8978 255.041 81.3548 255.038 83.1C255.035 84.8876 256.408 86.3164 258.16 86.3274C259.889 86.3337 261.27 84.9487 261.301 83.1815C261.306 82.7668 261.23 82.3552 261.076 81.9704C260.923 81.5856 260.696 81.2352 260.408 80.9394C260.12 80.6435 259.777 80.408 259.399 80.2465C259.021 80.0849 258.614 80.0005 258.204 79.998Z" fill="#AAAAAA"/>
<path fill-rule="evenodd" clip-rule="evenodd" d="M194.381 43.1305C195.483 43.1305 195.511 44.669 195.443 45.645C195.26 48.2645 193.733 51.3383 189.895 51.7707C190.378 47.3903 192.293 43.1305 194.381 43.1305ZM240.514 43.1305C241.305 43.1305 241.521 44.1645 241.535 44.8695C241.605 48.7298 239.203 51.5592 235.977 51.7675C236.461 47.3871 238.273 43.1305 240.514 43.1305ZM176.096 32.3268C162.94 32.3268 156.302 41.7941 156.302 41.7941C157.652 40.7805 159.289 40.2323 160.971 40.2306C163.142 40.2306 164.872 41.6547 164.916 44.0329C165.027 50.1586 161.266 57.1349 161.314 59.8249C161.328 60.5847 161.62 61.2192 162.5 61.2192C163.493 61.2192 164.804 60.2698 166.317 56.7981C167.907 53.1478 169.583 48.3115 171.185 43.3718C170.185 42.9206 168.485 41.9978 168.441 39.6462C168.413 38.0435 169.754 36.8231 171.58 36.8231C175.354 36.8231 174.586 40.5627 174.578 40.6035C176.926 41.52 181.126 41.086 182.621 41.0609C182.953 41.0547 183.181 41.4056 183.058 41.7205L182.909 42.1028C179.496 52.6073 179.458 57.713 181.609 57.713C183.046 57.713 184.247 56.3093 184.483 55.8471C184.386 55.1829 184.332 54.5131 184.32 53.8418C184.238 49.4175 187.15 40.5878 194.338 40.5878C198.079 40.5878 199.603 42.9691 199.656 45.8518C199.738 50.3528 195.492 53.7556 189.849 53.7556C189.67 55.9834 190.817 58.664 193.014 58.664C195.385 58.664 198.541 58.0812 201.398 51.2067C201.479 50.9262 204.095 41.2019 204.095 41.2019C204.121 41.0988 204.18 41.0073 204.264 40.9418C204.347 40.8763 204.449 40.8405 204.554 40.84H209.023C209.101 40.842 209.177 40.8618 209.246 40.8979C209.315 40.934 209.375 40.9855 209.421 41.0484C209.468 41.1114 209.499 41.1842 209.514 41.2612C209.528 41.3383 209.525 41.4177 209.504 41.4933L208.902 43.718C210.912 41.415 213.395 40.5972 214.921 40.5972C217.999 40.5972 218.16 42.8422 218.295 44.1488C219.87 42.1278 222.443 40.5972 224.887 40.5972C227.869 40.5972 228.49 42.8391 228.513 44.1222C228.569 47.1521 226.783 51.7002 226.39 55.6717C226.248 57.0973 226.518 58.335 227.619 58.335C228.746 58.335 230.02 57.3167 230.637 56.4816C230.487 55.6952 230.389 54.0423 230.384 53.6977C230.279 47.9511 234.022 40.5847 240.59 40.5847C244.407 40.5847 245.722 43.2872 245.773 45.9427C245.83 49.264 242.724 53.7509 235.936 53.7509C235.913 53.9703 235.901 54.1379 235.905 54.4089C235.936 56.1323 236.833 58.6483 239.226 58.6483C241.951 58.6483 243.431 57.337 244.642 55.8017C244.777 55.6294 245.106 55.5933 245.341 55.7437C245.669 55.9505 245.852 56.0806 246.052 56.2451C246.254 56.4096 246.308 56.8012 246.134 57.0691C245.031 58.7705 242.497 62.1577 237.535 62.1577C235.185 62.1577 232.554 61.3931 231.39 58.57C229.97 60.591 227.72 62.1326 224.95 62.1326C221.021 62.1326 219.141 59.8468 221.155 52.1185C221.493 50.8228 222.648 46.3735 222.685 46.2059C222.882 45.3395 222.565 44.9337 222.01 44.9337C220.799 44.9337 218.689 46.5819 217.909 48.3585L214.515 61.5498C214.489 61.6527 214.43 61.744 214.347 61.8094C214.264 61.8749 214.162 61.9109 214.057 61.9117H209.328C209.25 61.91 209.174 61.8907 209.106 61.8551C209.037 61.8196 208.977 61.7687 208.931 61.7065C208.884 61.6442 208.852 61.572 208.838 61.4955C208.823 61.419 208.825 61.3401 208.845 61.2647L212.718 46.2059C212.923 45.3082 212.581 44.9369 212 44.9369C210.783 44.9369 208.589 46.5145 207.908 48.3585L204.385 61.5498C204.359 61.6532 204.3 61.7449 204.216 61.8104C204.133 61.8759 204.03 61.9116 203.924 61.9117H199.203C199.125 61.9096 199.049 61.8899 198.981 61.8539C198.912 61.818 198.852 61.7669 198.806 61.7043C198.76 61.6417 198.728 61.5694 198.713 61.4927C198.699 61.416 198.702 61.337 198.721 61.2615L199.563 58.1799C197.524 60.8432 194.727 62.1436 191.357 62.1436C187.984 62.1436 185.928 59.8515 185.163 58.1094C183.881 59.7701 181.651 62.1467 178.118 62.1467C174.864 62.1467 173.925 59.1105 173.968 56.3391C174.001 54.4027 174.484 52.6182 174.921 50.7931C175.444 48.6429 175.977 46.495 176.518 44.3494C175.587 44.2804 174.429 44.13 173.705 43.9671C173.006 46.2967 169.212 57.4169 168.246 59.2828C165.93 63.7525 164.011 66.0508 159.637 66.0508C155.445 66.0508 152.837 62.9222 153.962 58.4682C154.846 54.9651 156.979 48.2253 156.949 46.6837C156.937 46.0179 156.459 45.446 155.503 45.446C153.458 45.446 151.026 48.5355 149.355 53.2355C149.327 53.3185 146.733 62.5807 146.096 64.879C146.068 64.9901 146.004 65.0885 145.914 65.1588C145.824 65.2291 145.713 65.2674 145.6 65.2675H139.132C139.047 65.2658 138.964 65.2443 138.888 65.2049C138.813 65.1655 138.747 65.1091 138.697 65.0401C138.646 64.9711 138.612 64.8913 138.597 64.8069C138.582 64.7224 138.586 64.6356 138.609 64.5531C138.609 64.5531 147.749 30.4828 147.82 29.9768C148.633 26.6554 146.421 25.7828 145.265 25.5525C144.861 25.4726 144.721 24.8428 145.1 24.6924C148.56 23.3451 155.473 23.6537 155.585 29.7371C155.632 32.3769 153.419 39.206 152.311 42.4553C154.583 39.5037 164.408 25.4303 175.996 25.4303L245.425 25.4413C247.228 25.4413 250.039 25.4413 250.858 24.2193C251.151 23.7837 251.876 24.2036 251.939 24.7347C251.958 24.8914 251.974 25.2016 251.974 25.2016C252.045 29.1386 249.036 32.3299 245.256 32.3299L176.096 32.3268ZM84.302 32.3283C84.8482 31.603 85.368 30.2478 85.368 28.8848C85.368 27.5766 84.9786 26.433 84.2818 25.4428H134.654C136.454 25.4428 139.038 25.7906 140.088 24.2193C140.378 23.7837 141.104 24.2036 141.168 24.7363C141.187 24.8882 141.199 25.2016 141.199 25.2016C141.275 29.1386 138.266 32.3299 134.486 32.3299L84.302 32.3283ZM79.501 32.3283C79.054 32.3271 78.6117 32.237 78.1993 32.063C77.7869 31.8891 77.4125 31.6349 77.0975 31.3148C76.7824 30.9947 76.533 30.615 76.3634 30.1975C76.1937 29.7801 76.1073 29.3329 76.1089 28.8817C76.1089 26.9782 77.6265 25.435 79.501 25.435C81.3739 25.435 82.8915 26.9782 82.8915 28.8817C82.8915 30.7852 81.3739 32.3283 79.501 32.3283ZM135.596 40.6003C135.934 40.6003 136.182 40.9419 136.094 41.2771L130.182 63.4235L133.728 64.4184C133.985 64.4904 134.078 64.8727 134.007 65.139L133.7 66.079C133.685 66.1384 133.659 66.1942 133.623 66.2434C133.587 66.2926 133.542 66.3341 133.49 66.3655C133.438 66.397 133.381 66.4178 133.321 66.4267C133.261 66.4356 133.2 66.4324 133.141 66.4174C132.528 66.2576 130.315 65.6592 129.471 65.5197C128.193 68.5622 126.38 72.5243 120.498 72.5243C117.95 72.5243 115.61 70.9952 115.569 68.8708C115.513 65.7688 119.349 62.9112 124.473 62.9112C124.693 62.3316 125.309 60.0599 125.309 60.0599C123.696 61.9932 121.694 62.1451 120.51 62.1498C118.598 62.1561 116.688 60.4672 116.387 57.829C113.946 60.5393 110.071 62.1639 105.91 62.1639C105.904 62.1639 105.897 62.1639 105.891 62.1608C103.123 62.1545 101.819 61.5686 101.073 60.4563L98.8913 68.8191C98.8626 68.9321 98.7978 69.0324 98.7069 69.1043C98.616 69.1763 98.5041 69.2159 98.3886 69.2171H93.7675C93.4106 69.2171 93.1468 68.8614 93.243 68.5042L95.3379 60.6129L95.7351 59.1246C93.2399 60.909 89.7455 61.9932 86.5055 62.1436C86.251 62.1592 85.9934 62.1671 85.7234 62.1671C82.4632 62.1671 80.7424 60.8699 79.9106 59.5116C79.082 60.5268 76.981 62.1953 74.6332 62.1953C73.1668 62.1953 71.7905 61.7362 70.8967 60.6051C70.5886 60.2038 70.3676 59.7415 70.248 59.2484C70.1363 59.3894 70.0261 59.5319 69.9098 59.6698C68.5753 61.2286 66.7551 62.2172 64.4477 62.2172C60.9222 62.2172 60.016 58.7455 60.0563 56.3391C60.0889 54.4042 60.5684 52.6198 61.0075 50.7931C61.5366 48.6408 62.0746 46.4908 62.6213 44.3431C61.6934 44.2726 60.5187 44.13 59.7972 43.9671C59.0974 46.2952 55.9598 55.75 54.3305 59.2844C52.8796 62.4334 51.0687 66.0477 46.1653 66.0477C42.708 66.0477 38.6968 63.635 40.0453 58.5277C40.9096 55.2377 41.7072 52.1858 42.6305 48.9945C43.0867 47.4091 43.5879 45.4445 41.5908 45.4445C39.3253 45.4445 36.9418 49.0196 35.4429 53.2339C35.4118 53.3185 32.8189 62.5822 32.1842 64.879C32.1555 64.99 32.0912 65.0882 32.0014 65.1585C31.9116 65.2288 31.8013 65.2671 31.6877 65.2675H25.217C25.1323 65.2655 25.0493 65.2439 24.9741 65.2045C24.899 65.165 24.8338 65.1088 24.7834 65.04C24.7331 64.9712 24.6991 64.8917 24.6838 64.8076C24.6686 64.7235 24.6727 64.637 24.6956 64.5547C24.6956 64.5547 33.8353 30.4828 33.9051 29.9752C34.7182 26.6539 32.507 25.7828 31.351 25.5525C30.9506 25.4742 30.8063 24.8412 31.1849 24.6908C34.6484 23.3435 41.5598 23.6553 41.6699 29.7371C41.718 32.3769 39.5068 39.206 38.3958 42.4553C40.6675 39.5021 50.2758 25.4303 61.8641 25.4303L74.7092 25.4413C74.0808 26.3249 73.5998 27.5766 73.623 28.8848C73.6479 30.193 73.9908 31.2975 74.6937 32.3299H61.9463C48.7908 32.3299 42.3868 41.7926 42.3868 41.7926C43.743 40.7962 45.1365 40.2181 47.1615 40.2181C50.3099 40.2181 51.0299 43.049 51.0408 44.329C51.0796 49.5256 47.4144 57.7428 47.447 59.6071C47.4625 60.3654 47.5867 61.2443 48.5224 61.2443C49.9515 61.2443 51.3884 59.1951 51.8741 58.1454C53.131 55.432 55.6851 48.6013 57.3222 43.3404C56.3213 42.8861 54.8518 41.9414 54.5725 40.2635C54.2529 38.3475 55.7022 36.8168 57.5286 36.8168C61.0106 36.8168 60.8958 39.8248 60.7282 40.5956C63.0744 41.509 67.2299 41.0703 68.7258 41.0453C69.0563 41.0406 69.2844 41.3899 69.1634 41.7033L69.0144 42.0871C65.7341 52.1686 65.6472 57.7099 67.7746 57.7099C68.9539 57.7099 70.4901 56.2372 70.9867 54.4183C72.1123 50.2025 73.2336 45.9856 74.3508 41.7675L74.5975 40.9309C74.6252 40.8362 74.6825 40.753 74.7608 40.6937C74.839 40.6344 74.9342 40.6022 75.032 40.6019H79.8067C79.8796 40.6038 79.9512 40.6224 80.016 40.6564C80.0808 40.6903 80.1371 40.7388 80.1806 40.7979C80.2241 40.8571 80.2537 40.9255 80.2672 40.9979C80.2806 41.0704 80.2775 41.145 80.2582 41.216L76.8041 54.1442C76.8041 54.1442 76.7948 54.2366 76.7575 54.3839C76.0437 57.1584 76.2765 58.4776 77.0167 58.4776C78.0346 58.4776 78.7623 57.5297 79.0106 57.1992C78.4101 55.2314 79.9261 53.4658 81.5306 53.2308C83.9699 49.1559 88.0401 41.6422 89.2117 39.6854C89.2998 39.5423 89.4235 39.4251 89.5706 39.3453C89.7176 39.2656 89.8828 39.2262 90.0496 39.2311H92.6332C92.9436 39.2311 93.0786 39.6008 92.9048 39.8844C92.5867 40.4108 92.1351 41.2521 92.1599 42.7122C92.2158 45.7171 93.9289 49.9753 94.008 54.2961C94.0205 54.9698 93.9413 56.6446 93.122 58.2802C93.6325 58.0295 94.1415 57.7318 94.638 57.3887C95.3565 56.867 96.6429 55.7046 97.1425 53.8277L100.351 41.7675L100.595 40.9513C100.624 40.8504 100.684 40.7617 100.767 40.6984C100.85 40.6351 100.951 40.6007 101.054 40.6003H105.469C105.795 40.6003 106.037 40.9293 105.953 41.2583L105.513 42.9065C106.946 41.0766 108.683 40.3481 110.267 40.3481C114.404 40.3481 115.651 45.0575 114.523 50.7492C113.918 53.7917 112.962 56.4942 111.659 58.5042C112.507 58.1675 113.311 57.7265 114.052 57.1913C114.46 56.8905 116.434 55.3348 117.123 52.8109C117.442 51.6281 117.816 50.3513 118.147 48.982L120.068 41.7675L120.305 40.9654C120.335 40.8611 120.398 40.7694 120.484 40.7039C120.569 40.6384 120.674 40.6026 120.781 40.6019H125.461C125.8 40.6019 126.05 40.9419 125.96 41.2771L122.197 55.244C121.866 56.7339 122.035 58.4917 123.41 58.4917C124.757 58.4917 126.132 56.6634 127.161 53.1274L130.447 40.9779C130.475 40.8708 130.536 40.7758 130.623 40.7078C130.709 40.6398 130.816 40.6025 130.925 40.6019L135.596 40.6003ZM119.871 69.3628C121.905 69.3628 122.664 67.7256 123.714 65.1124C121.72 65.2189 118.693 66.3313 118.729 68.3507C118.739 68.9084 119.194 69.3628 119.871 69.3628ZM109.061 48.4415C109.561 45.3787 108.782 44.246 107.792 44.246C105.845 44.246 104.748 46.6054 104.13 48.9052C103.938 49.6165 103.283 52.2219 102.511 55.1014C101.931 57.2571 102.487 58.7705 103.88 58.7705C106.482 58.7705 108.158 54.0126 109.063 48.4415H109.061ZM85.4286 59.7528C87.0579 59.7528 88.6375 57.6692 88.5863 54.8194C88.4948 49.8155 87.663 47.2947 87.5622 46.6837C87.2456 47.4138 84.1655 53.0914 83.6487 53.8935C84.3889 54.2961 84.7598 55.4962 84.7737 56.2983C84.8017 57.8493 83.8737 58.2488 83.8861 58.8927C83.8939 59.3126 84.6232 59.7528 85.4286 59.7528Z" fill="#AAAAAA"/>
</g>
<defs>
<clipPath id="clip0_104_413">
<rect width="270" height="94" fill="white"/>
</clipPath>
</defs>
</svg>
