<svg width="120" height="42" viewBox="0 0 120 42" fill="none" xmlns="http://www.w3.org/2000/svg">
<g clip-path="url(#clip0_104_413)">
<path fill-rule="evenodd" clip-rule="evenodd" d="M96.058 38.588V38.6209C96.058 40.4619 94.5449 41.9543 92.6787 41.9543H27.458C25.5918 41.9543 24.0787 40.4619 24.0787 38.6209V38.5908H13.0042L12.7435 38.5866L12.6766 38.5873C9.96146 38.5873 8.3587 37.3553 7.77801 34.8199C4.91111 22.3158 1.4518 7.31478 0.227666 2.00388C0.174795 1.77538 0.176815 1.53732 0.233555 1.30978C0.290295 1.08223 0.400092 0.871862 0.553694 0.6964C0.707296 0.520937 0.900202 0.385521 1.11615 0.301564C1.33211 0.217607 1.56478 0.18757 1.79456 0.213982L59.6139 6.92558L118.112 0.114582C118.341 0.0884568 118.574 0.118698 118.79 0.202763C119.006 0.286828 119.198 0.422257 119.352 0.597662C119.505 0.773066 119.615 0.983315 119.672 1.21073C119.729 1.43814 119.731 1.67606 119.678 1.90448C117.154 12.8754 114.634 23.8474 112.119 34.8206C111.538 37.3546 109.935 38.5873 107.221 38.5873L96.058 38.588ZM96.0249 36.4873L107.097 36.4866C108.879 36.5034 109.689 36.0036 110.07 34.3439C113.677 18.6121 117.427 2.30348 117.427 2.30348L59.5752 9.03888L2.40215 2.40148C2.40215 2.40148 6.14422 18.6121 9.75042 34.3439C10.1311 36.0036 10.9415 36.5034 12.7228 36.4866L12.9656 36.4915L24.1111 36.4908C24.3394 34.8696 25.7511 33.6208 27.4573 33.6208H92.678C94.3842 33.6208 95.7952 34.8675 96.0249 36.4873Z" fill="#AAAAAA"/>
<path fill-rule="evenodd" clip-rule="evenodd" d="M31.2414 39.0626C31.9421 39.0626 32.4504 38.5012 32.4504 37.783C32.4504 37.069 31.9421 36.5076 31.2414 36.5076H30.6463V39.0626H31.2414ZM29.678 35.6998C29.678 35.6368 29.7276 35.5801 29.7897 35.5801H31.3035C31.8795 35.581 32.4317 35.8132 32.8396 36.2259C33.2475 36.6386 33.478 37.1984 33.4807 37.783C33.4806 38.3693 33.2512 38.9317 32.843 39.3466C32.4349 39.7616 31.8812 39.9953 31.3035 39.9964H29.7897C29.7276 39.9964 29.678 39.9404 29.678 39.8774V35.6998Z" fill="#AAAAAA"/>
<path fill-rule="evenodd" clip-rule="evenodd" d="M31.2414 39.0624C31.9421 39.0624 32.4504 38.501 32.4504 37.7828C32.4504 37.0688 31.9421 36.5074 31.2414 36.5074H30.6463V39.0624H31.2414ZM29.678 35.6996C29.678 35.6366 29.7276 35.5799 29.7897 35.5799H31.3035C31.8795 35.5808 32.4317 35.813 32.8396 36.2257C33.2475 36.6384 33.478 37.1982 33.4807 37.7828C33.4806 38.3691 33.2512 38.9315 32.843 39.3464C32.4349 39.7614 31.8812 39.9951 31.3035 39.9962H29.7897C29.7276 39.9962 29.678 39.9402 29.678 39.8772V35.6996ZM39.0125 39.0505C39.6952 39.0505 40.2531 38.4821 40.2531 37.7954C40.2531 37.101 39.6945 36.527 39.0125 36.527C38.3366 36.527 37.778 37.101 37.778 37.7954C37.778 38.4821 38.3366 39.0505 39.0125 39.0505ZM39.0125 35.5176C39.3067 35.5173 39.5981 35.5761 39.8699 35.6906C40.1417 35.8051 40.3885 35.9731 40.596 36.1848C40.8036 36.3965 40.9678 36.6478 41.0793 36.9242C41.1908 37.2006 41.2473 37.4967 41.2456 37.7954C41.2469 38.0933 41.1901 38.3886 41.0783 38.6641C40.9666 38.9396 40.8021 39.1899 40.5944 39.4005C40.3868 39.6111 40.14 39.7778 39.8685 39.8909C39.597 40.0041 39.306 40.0615 39.0125 40.0599C38.7192 40.0615 38.4286 40.0039 38.1575 39.8906C37.8863 39.7773 37.64 39.6105 37.4329 39.3999C37.2257 39.1892 37.0618 38.9389 36.9507 38.6635C36.8396 38.3881 36.7835 38.093 36.7856 37.7954C36.7832 37.497 36.8391 37.2011 36.95 36.9248C37.0609 36.6484 37.2246 36.3971 37.4317 36.1853C37.6388 35.9736 37.8852 35.8055 38.1566 35.6909C38.4281 35.5763 38.7185 35.5174 39.0125 35.5176Z" fill="#AAAAAA"/>
<path fill-rule="evenodd" clip-rule="evenodd" d="M39.0126 39.0505C39.6954 39.0505 40.2533 38.4821 40.2533 37.7954C40.2533 37.101 39.6947 36.527 39.0126 36.527C38.3368 36.527 37.7781 37.101 37.7781 37.7954C37.7781 38.4821 38.3368 39.0505 39.0126 39.0505ZM39.0126 35.5176C39.3069 35.5173 39.5983 35.5761 39.8701 35.6906C40.1418 35.8051 40.3886 35.9731 40.5962 36.1848C40.8037 36.3965 40.968 36.6478 41.0795 36.9242C41.1909 37.2006 41.2474 37.4967 41.2457 37.7954C41.2471 38.0933 41.1902 38.3886 41.0785 38.6641C40.9667 38.9396 40.8023 39.1899 40.5946 39.4005C40.3869 39.6111 40.1402 39.7778 39.8686 39.8909C39.5971 40.0041 39.3062 40.0615 39.0126 40.0599C38.7194 40.0615 38.4288 40.0039 38.1576 39.8906C37.8865 39.7773 37.6402 39.6105 37.433 39.3999C37.2259 39.1892 37.062 38.9389 36.9509 38.6635C36.8397 38.3881 36.7836 38.093 36.7857 37.7954C36.7833 37.497 36.8392 37.2011 36.9501 36.9248C37.061 36.6484 37.2248 36.3971 37.4319 36.1853C37.639 35.9736 37.8854 35.8055 38.1568 35.6909C38.4282 35.5763 38.7186 35.5174 39.0126 35.5176ZM44.7733 35.6996C44.7733 35.6366 44.8299 35.5806 44.8919 35.5806H45.6547C45.723 35.5806 45.7719 35.6366 45.7719 35.6996V38.2553C45.7719 38.6963 46.0947 39.0498 46.5354 39.0498C46.9823 39.0498 47.3105 38.697 47.3105 38.2553V35.7003C47.3104 35.6845 47.3133 35.6688 47.3191 35.6541C47.325 35.6395 47.3337 35.6262 47.3446 35.615C47.3556 35.6038 47.3687 35.5949 47.3831 35.5889C47.3975 35.5828 47.4129 35.5798 47.4285 35.5799H48.1919C48.254 35.5799 48.3092 35.6359 48.3092 35.6996V38.3057C48.3092 39.2647 47.5161 40.0592 46.5354 40.0592C45.5616 40.0592 44.7733 39.2647 44.7733 38.3057V35.6996Z" fill="#AAAAAA"/>
<path fill-rule="evenodd" clip-rule="evenodd" d="M44.7732 35.7001C44.7732 35.6371 44.8297 35.5811 44.8918 35.5811H45.6546C45.7228 35.5811 45.7718 35.6371 45.7718 35.7001V38.2558C45.7718 38.6968 46.0946 39.0503 46.5353 39.0503C46.9822 39.0503 47.3104 38.6975 47.3104 38.2558V35.7008C47.3103 35.685 47.3132 35.6693 47.319 35.6547C47.3249 35.64 47.3335 35.6267 47.3445 35.6155C47.3555 35.6043 47.3686 35.5954 47.383 35.5894C47.3974 35.5834 47.4128 35.5803 47.4284 35.5804H48.1918C48.2539 35.5804 48.3091 35.6364 48.3091 35.7001V38.3062C48.3091 39.2652 47.516 40.0597 46.5353 40.0597C45.5615 40.0597 44.7732 39.2652 44.7732 38.3062V35.7001ZM54.0608 35.5244C54.5822 35.5244 55.1532 35.7442 55.5746 36.1166C55.6297 36.1621 55.6366 36.2377 55.5863 36.2874L55.0966 36.818C55.0737 36.8385 55.0445 36.8504 55.014 36.8515C54.9834 36.8527 54.9534 36.8431 54.9291 36.8243C54.6946 36.6024 54.4201 36.5205 54.1166 36.5205C53.4408 36.5205 52.8946 37.1015 52.8946 37.7959C52.8946 38.4833 53.4463 39.051 54.1228 39.051C54.3028 39.051 54.4884 39.0258 54.6746 38.9502V38.5834H54.2842C54.216 38.5834 54.1663 38.5337 54.1663 38.47V37.8456C54.1663 37.7763 54.216 37.7252 54.2835 37.7252H55.5318C55.5925 37.7252 55.6422 37.7826 55.6422 37.8456L55.6491 39.5431C55.6458 39.5819 55.628 39.618 55.5994 39.6439C55.5994 39.6439 54.9601 40.0541 54.0615 40.0541C53.7687 40.056 53.4784 39.9988 53.2075 39.8861C52.9366 39.7733 52.6904 39.607 52.4832 39.397C52.2761 39.187 52.112 38.9373 52.0005 38.6625C51.8891 38.3877 51.8324 38.0931 51.8339 37.7959C51.8322 37.498 51.8885 37.2027 51.9997 36.927C52.1109 36.6513 52.2748 36.4007 52.4818 36.1895C52.6889 35.9784 52.9351 35.8109 53.2062 35.6968C53.4773 35.5826 53.7673 35.524 54.0608 35.5244Z" fill="#AAAAAA"/>
<path fill-rule="evenodd" clip-rule="evenodd" d="M54.0607 35.5244C54.5821 35.5244 55.1531 35.7442 55.5745 36.1166C55.6296 36.1621 55.6365 36.2377 55.5862 36.2874L55.0965 36.818C55.0736 36.8385 55.0444 36.8504 55.0139 36.8515C54.9833 36.8527 54.9533 36.8431 54.929 36.8243C54.6945 36.6024 54.42 36.5205 54.1165 36.5205C53.4407 36.5205 52.8945 37.1015 52.8945 37.7959C52.8945 38.4833 53.4462 39.051 54.1227 39.051C54.3027 39.051 54.4883 39.0258 54.6745 38.9502V38.5834H54.2841C54.2158 38.5834 54.1662 38.5337 54.1662 38.47V37.8456C54.1662 37.7763 54.2158 37.7252 54.2834 37.7252H55.5317C55.5924 37.7252 55.6421 37.7826 55.6421 37.8456L55.649 39.5431C55.6457 39.5819 55.6279 39.618 55.5993 39.6439C55.5993 39.6439 54.96 40.0541 54.0614 40.0541C53.7686 40.056 53.4783 39.9988 53.2074 39.8861C52.9365 39.7733 52.6903 39.607 52.4831 39.397C52.276 39.187 52.1119 38.9373 52.0004 38.6625C51.889 38.3877 51.8323 38.0931 51.8338 37.7959C51.832 37.498 51.8884 37.2027 51.9996 36.927C52.1108 36.6513 52.2747 36.4007 52.4817 36.1895C52.6888 35.9784 52.935 35.8109 53.2061 35.6968C53.4772 35.5826 53.7672 35.524 54.0607 35.5244ZM59.3752 35.7001C59.3752 35.6371 59.431 35.5811 59.4931 35.5811H60.231C60.2465 35.581 60.2618 35.584 60.2761 35.59C60.2904 35.5959 60.3034 35.6047 60.3144 35.6157C60.3253 35.6268 60.334 35.6399 60.34 35.6544C60.3459 35.6689 60.349 35.6844 60.349 35.7001V37.2905H62.1227V35.7001C62.1227 35.6686 62.1351 35.6383 62.1571 35.616C62.1791 35.5937 62.2089 35.5811 62.24 35.5811H62.9793C63.0414 35.5811 63.0965 35.6371 63.0965 35.7001V39.877C63.0965 39.94 63.0414 39.9967 62.9793 39.9967H62.24C62.2245 39.9967 62.2092 39.9936 62.195 39.9876C62.1807 39.9816 62.1677 39.9727 62.1568 39.9616C62.1459 39.9505 62.1373 39.9373 62.1315 39.9228C62.1256 39.9083 62.1227 39.8927 62.1227 39.877V38.218H60.349V39.877C60.349 39.8927 60.3461 39.9083 60.3402 39.9228C60.3344 39.9373 60.3258 39.9505 60.3149 39.9616C60.304 39.9727 60.291 39.9816 60.2767 39.9876C60.2625 39.9936 60.2472 39.9967 60.2317 39.9967H59.4931C59.4621 39.9957 59.4327 39.9827 59.4108 39.9605C59.389 39.9383 59.3762 39.9084 59.3752 39.877V35.7001Z" fill="#AAAAAA"/>
<path fill-rule="evenodd" clip-rule="evenodd" d="M59.3752 35.6993C59.3752 35.6363 59.4311 35.5803 59.4932 35.5803H60.2311C60.2466 35.5802 60.2619 35.5832 60.2762 35.5892C60.2905 35.5951 60.3035 35.6038 60.3145 35.6149C60.3254 35.626 60.3341 35.6391 60.34 35.6536C60.346 35.6681 60.349 35.6836 60.349 35.6993V37.2897H62.1228V35.6993C62.1228 35.6677 62.1352 35.6375 62.1572 35.6152C62.1792 35.5928 62.209 35.5803 62.2401 35.5803H62.9794C63.0414 35.5803 63.0966 35.6363 63.0966 35.6993V39.8762C63.0966 39.9392 63.0414 39.9959 62.9794 39.9959H62.2401C62.2246 39.9959 62.2093 39.9928 62.195 39.9868C62.1808 39.9808 62.1678 39.9719 62.1569 39.9608C62.146 39.9497 62.1374 39.9365 62.1316 39.922C62.1257 39.9074 62.1227 39.8919 62.1228 39.8762V38.2172H60.349V39.8762C60.3491 39.8919 60.3462 39.9074 60.3403 39.922C60.3345 39.9365 60.3258 39.9497 60.3149 39.9608C60.304 39.9719 60.2911 39.9808 60.2768 39.9868C60.2626 39.9928 60.2472 39.9959 60.2318 39.9959H59.4932C59.4622 39.9949 59.4328 39.9819 59.4109 39.9597C59.389 39.9375 59.3763 39.9076 59.3752 39.8762V35.6993ZM66.9697 35.63C66.9697 35.567 67.0256 35.5166 67.087 35.5166H67.2428L69.7173 37.9393H69.7242V35.7007C69.7241 35.685 69.7271 35.6695 69.7329 35.6549C69.7388 35.6404 69.7474 35.6272 69.7583 35.6161C69.7692 35.605 69.7822 35.5962 69.7964 35.5901C69.8107 35.5841 69.826 35.581 69.8414 35.581H70.5863C70.6483 35.581 70.7035 35.637 70.7035 35.7V39.9469C70.7035 40.0085 70.6483 40.0589 70.5863 40.0589H70.487C70.4582 40.0553 70.4305 40.045 70.4063 40.0288L67.9559 37.5228H67.9497V39.8762C67.9498 39.8919 67.9469 39.9074 67.941 39.922C67.9352 39.9365 67.9265 39.9497 67.9156 39.9608C67.9047 39.9719 67.8918 39.9808 67.8775 39.9868C67.8632 39.9928 67.8479 39.9959 67.8325 39.9959H67.0939C67.0631 39.9947 67.0339 39.9818 67.012 39.9598C66.9902 39.9377 66.9773 39.9081 66.9759 39.8769L66.9697 35.63Z" fill="#AAAAAA"/>
<path fill-rule="evenodd" clip-rule="evenodd" d="M66.9697 35.63C66.9697 35.567 67.0255 35.5166 67.0869 35.5166H67.2428L69.7173 37.9393H69.7242V35.7007C69.7241 35.685 69.727 35.6695 69.7329 35.6549C69.7387 35.6404 69.7474 35.6272 69.7583 35.6161C69.7692 35.605 69.7821 35.5962 69.7964 35.5901C69.8106 35.5841 69.8259 35.581 69.8414 35.581H70.5862C70.6483 35.581 70.7035 35.637 70.7035 35.7V39.9469C70.7035 40.0085 70.6483 40.0589 70.5862 40.0589H70.4869C70.4581 40.0553 70.4305 40.045 70.4062 40.0288L67.9559 37.5228H67.9497V39.8762C67.9498 39.8919 67.9468 39.9074 67.941 39.922C67.9351 39.9365 67.9265 39.9497 67.9156 39.9608C67.9047 39.9719 67.8917 39.9808 67.8775 39.9868C67.8632 39.9928 67.8479 39.9959 67.8324 39.9959H67.0938C67.063 39.9947 67.0338 39.9818 67.012 39.9598C66.9901 39.9377 66.9772 39.9081 66.9759 39.8769L66.9697 35.63ZM74.5345 35.6993C74.5345 35.6363 74.5911 35.5803 74.6531 35.5803H75.4166C75.4842 35.5803 75.5338 35.6363 75.5338 35.6993V38.255C75.5338 38.696 75.8559 39.0495 76.2966 39.0495C76.3994 39.0509 76.5015 39.0313 76.5968 38.9918C76.692 38.9523 76.7784 38.8937 76.8508 38.8196C76.9232 38.7454 76.9802 38.6572 77.0183 38.5602C77.0563 38.4632 77.0748 38.3594 77.0724 38.255V35.7C77.0723 35.6843 77.0752 35.6686 77.081 35.654C77.0868 35.6394 77.0954 35.6261 77.1063 35.615C77.1172 35.6038 77.1302 35.5949 77.1445 35.5888C77.1588 35.5827 77.1742 35.5796 77.1897 35.5796H77.9524C78.0145 35.5796 78.0711 35.6356 78.0711 35.6993V38.3054C78.0711 39.2644 77.2766 40.0589 76.2966 40.0589C75.3228 40.0589 74.5345 39.2644 74.5345 38.3054V35.6993Z" fill="#AAAAAA"/>
<path fill-rule="evenodd" clip-rule="evenodd" d="M74.5347 35.6998C74.5347 35.6368 74.5912 35.5808 74.6533 35.5808H75.4167C75.4843 35.5808 75.534 35.6368 75.534 35.6998V38.2555C75.534 38.6965 75.856 39.05 76.2967 39.05C76.3996 39.0514 76.5017 39.0318 76.5969 38.9923C76.6922 38.9528 76.7786 38.8942 76.851 38.82C76.9234 38.7459 76.9803 38.6577 77.0184 38.5607C77.0565 38.4637 77.0749 38.3599 77.0726 38.2555V35.7005C77.0724 35.6847 77.0753 35.6691 77.0811 35.6545C77.0869 35.6399 77.0955 35.6266 77.1064 35.6154C77.1174 35.6042 77.1303 35.5953 77.1447 35.5893C77.159 35.5832 77.1743 35.5801 77.1898 35.5801H77.9526C78.0147 35.5801 78.0712 35.6361 78.0712 35.6998V38.3059C78.0712 39.2649 77.2767 40.0594 76.2967 40.0594C75.3229 40.0594 74.5347 39.2649 74.5347 38.3059V35.6998ZM82.4347 36.5076H81.5471C81.516 36.5072 81.4863 36.4945 81.4643 36.4721C81.4424 36.4497 81.43 36.4194 81.4298 36.3879V35.6998C81.4298 35.6841 81.4327 35.6685 81.4386 35.654C81.4444 35.6395 81.453 35.6263 81.4639 35.6152C81.4748 35.6041 81.4878 35.5952 81.5021 35.5892C81.5163 35.5832 81.5316 35.5801 81.5471 35.5801H84.3023C84.3177 35.5802 84.3329 35.5833 84.3471 35.5894C84.3613 35.5955 84.3741 35.6043 84.385 35.6154C84.3958 35.6265 84.4043 35.6397 84.4101 35.6542C84.416 35.6687 84.4189 35.6842 84.4188 35.6998V36.3879C84.4189 36.4036 84.4159 36.4191 84.4101 36.4336C84.4042 36.4482 84.3956 36.4614 84.3847 36.4725C84.3738 36.4836 84.3609 36.4924 84.3466 36.4985C84.3323 36.5045 84.317 36.5076 84.3016 36.5076H83.4147V39.8774C83.4147 39.939 83.3588 39.9964 83.2961 39.9964H82.5526C82.5218 39.9953 82.4925 39.9825 82.4706 39.9604C82.4487 39.9383 82.4359 39.9087 82.4347 39.8774V36.5076Z" fill="#AAAAAA"/>
<path fill-rule="evenodd" clip-rule="evenodd" d="M82.4345 36.5074H81.5469C81.5158 36.507 81.4861 36.4943 81.4642 36.4719C81.4423 36.4495 81.4299 36.4192 81.4297 36.3877V35.6996C81.4296 35.6839 81.4326 35.6683 81.4384 35.6538C81.4443 35.6393 81.4529 35.6261 81.4638 35.615C81.4747 35.6039 81.4876 35.595 81.5019 35.589C81.5162 35.583 81.5315 35.5799 81.5469 35.5799H84.3021C84.3175 35.58 84.3327 35.5831 84.3469 35.5892C84.3611 35.5953 84.374 35.6041 84.3848 35.6152C84.3956 35.6263 84.4042 35.6395 84.41 35.654C84.4158 35.6685 84.4187 35.6839 84.4187 35.6996V36.3877C84.4187 36.4034 84.4158 36.4189 84.4099 36.4334C84.4041 36.4479 84.3955 36.4612 84.3846 36.4723C84.3737 36.4834 84.3607 36.4922 84.3464 36.4983C84.3322 36.5043 84.3169 36.5074 84.3014 36.5074H83.4145V39.8772C83.4145 39.9388 83.3587 39.9962 83.2959 39.9962H82.5524C82.5216 39.9951 82.4923 39.9823 82.4704 39.9602C82.4486 39.9381 82.4357 39.9085 82.4345 39.8772V36.5074ZM87.6918 39.397L87.9842 38.8734C88.0331 38.7915 88.1518 38.8041 88.1945 38.8356C88.2193 38.8482 88.6656 39.1821 89.0752 39.1821C89.3235 39.1821 89.5035 39.0246 89.5035 38.8041C89.5035 38.5395 89.2856 38.3372 88.8642 38.1671C88.3304 37.9522 87.6607 37.5294 87.6607 36.772C87.6607 36.1483 88.1387 35.5176 89.0938 35.5176C89.7387 35.5176 90.2352 35.8515 90.4207 35.9901C90.4959 36.0342 90.4835 36.1483 90.4587 36.1924L90.1414 36.6782C90.0987 36.7468 89.9869 36.8042 89.9318 36.7601C89.8759 36.7286 89.4228 36.3821 89.0442 36.3821C88.8207 36.3821 88.6531 36.5333 88.6531 36.7034C88.6531 36.9365 88.8394 37.1136 89.3304 37.3152C89.8131 37.5112 90.5828 37.8962 90.5828 38.7537C90.5828 39.4033 90.0311 40.0599 89.1187 40.0599C88.3118 40.0599 87.8656 39.719 87.7228 39.5734C87.6607 39.5104 87.6421 39.4852 87.6918 39.397Z" fill="#AAAAAA"/>
<path fill-rule="evenodd" clip-rule="evenodd" d="M87.6919 39.397L87.9843 38.8734C88.0333 38.7915 88.1519 38.8041 88.1947 38.8356C88.2195 38.8482 88.6657 39.1821 89.0754 39.1821C89.3236 39.1821 89.5036 39.0246 89.5036 38.8041C89.5036 38.5395 89.2857 38.3372 88.8643 38.1671C88.3305 37.9522 87.6609 37.5294 87.6609 36.772C87.6609 36.1483 88.1388 35.5176 89.094 35.5176C89.7388 35.5176 90.2354 35.8515 90.4209 35.9901C90.4961 36.0342 90.4836 36.1483 90.4588 36.1924L90.1416 36.6782C90.0988 36.7468 89.9871 36.8042 89.9319 36.7601C89.8761 36.7286 89.423 36.3821 89.0443 36.3821C88.8209 36.3821 88.6533 36.5333 88.6533 36.7034C88.6533 36.9365 88.8395 37.1136 89.3305 37.3152C89.8133 37.5112 90.583 37.8962 90.583 38.7537C90.583 39.4033 90.0312 40.0599 89.1188 40.0599C88.3119 40.0599 87.8657 39.719 87.723 39.5734C87.6609 39.5104 87.6423 39.4852 87.6919 39.397Z" fill="#AAAAAA"/>
<path fill-rule="evenodd" clip-rule="evenodd" d="M114.9 37.0694C114.77 37.0932 114.636 37.0946 114.483 37.1079V36.6067C114.628 36.6067 114.754 36.5997 114.879 36.6088C114.997 36.6179 115.061 36.6949 115.067 36.816C115.074 36.9427 115.031 37.0463 114.9 37.0694ZM115.365 36.7215C115.326 36.5283 115.199 36.4037 115.015 36.389C114.746 36.368 114.473 36.3834 114.186 36.3834V37.9031H114.465V37.3571C115.044 37.3249 115.004 37.3032 115.123 37.9227L115.36 37.908C115.342 37.6308 115.383 37.3662 115.112 37.1996C115.325 37.0953 115.408 36.9392 115.365 36.7215Z" fill="#AAAAAA"/>
<path fill-rule="evenodd" clip-rule="evenodd" d="M114.75 38.3358C114.093 38.3414 113.58 37.8178 113.581 37.1437C113.58 36.9889 113.609 36.8355 113.667 36.6923C113.724 36.5491 113.81 36.419 113.918 36.3097C114.026 36.2005 114.154 36.1142 114.295 36.0559C114.436 35.9976 114.588 35.9686 114.74 35.9705C115.39 35.9712 115.892 36.485 115.893 37.1486C115.894 37.8185 115.401 38.3309 114.75 38.3358ZM114.757 35.7444C114.023 35.6996 113.352 36.3506 113.35 37.1304C113.349 37.9291 113.959 38.5675 114.738 38.5724C115.506 38.5752 116.12 37.9564 116.134 37.1668C116.136 36.9815 116.102 36.7976 116.034 36.6257C115.966 36.4537 115.865 36.2972 115.737 36.165C115.609 36.0328 115.457 35.9275 115.288 35.8554C115.12 35.7832 114.94 35.7455 114.757 35.7444Z" fill="#AAAAAA"/>
<path fill-rule="evenodd" clip-rule="evenodd" d="M86.3919 19.2704C86.8816 19.2704 86.894 19.9578 86.8636 20.3939C86.7823 21.5643 86.1036 22.9376 84.3981 23.1308C84.6126 21.1736 85.4636 19.2704 86.3919 19.2704ZM106.895 19.2704C107.247 19.2704 107.343 19.7324 107.349 20.0474C107.38 21.7722 106.313 23.0364 104.879 23.1295C105.094 21.1723 105.899 19.2704 106.895 19.2704ZM78.265 14.4432C72.4181 14.4432 69.4678 18.6733 69.4678 18.6733C70.0677 18.2203 70.7953 17.9754 71.5429 17.9747C72.5078 17.9747 73.2767 18.611 73.296 19.6736C73.3457 22.4106 71.674 25.5277 71.6954 26.7296C71.7016 27.0691 71.8312 27.3526 72.2223 27.3526C72.6636 27.3526 73.2464 26.9284 73.9188 25.3772C74.6257 23.7462 75.3705 21.5853 76.0823 19.3782C75.6381 19.1766 74.8823 18.7643 74.8629 17.7136C74.8505 16.9975 75.4464 16.4522 76.2581 16.4522C77.9354 16.4522 77.594 18.1231 77.5905 18.1413C78.634 18.5508 80.5009 18.3569 81.165 18.3457C81.3126 18.3429 81.414 18.4997 81.3595 18.6404L81.2933 18.8112C79.776 23.5047 79.7595 25.786 80.7154 25.786C81.354 25.786 81.8878 25.1588 81.9926 24.9523C81.9496 24.6555 81.9254 24.3562 81.9202 24.0563C81.8836 22.0795 83.1781 18.1343 86.3726 18.1343C88.0354 18.1343 88.7126 19.1983 88.7361 20.4863C88.7726 22.4974 86.8857 24.0178 84.3774 24.0178C84.2981 25.0132 84.8078 26.2109 85.7843 26.2109C86.8381 26.2109 88.2409 25.9505 89.5105 22.8789C89.5464 22.7536 90.7091 18.4087 90.7091 18.4087C90.7207 18.3626 90.7471 18.3217 90.784 18.2924C90.821 18.2632 90.8664 18.2472 90.9133 18.247H92.8995C92.934 18.2478 92.9679 18.2567 92.9985 18.2728C93.0292 18.2889 93.0558 18.3119 93.0764 18.3401C93.097 18.3682 93.111 18.4007 93.1174 18.4351C93.1238 18.4696 93.1224 18.505 93.1133 18.5389L92.8457 19.5329C93.7388 18.5039 94.8423 18.1385 95.5209 18.1385C96.8885 18.1385 96.9602 19.1416 97.0202 19.7254C97.7202 18.8224 98.8636 18.1385 99.9498 18.1385C101.275 18.1385 101.551 19.1402 101.562 19.7135C101.586 21.0673 100.793 23.0994 100.618 24.8739C100.555 25.5109 100.675 26.0639 101.164 26.0639C101.665 26.0639 102.231 25.6088 102.506 25.2357C102.439 24.8843 102.395 24.1459 102.393 23.9919C102.346 21.4243 104.01 18.1329 106.929 18.1329C108.626 18.1329 109.21 19.3404 109.233 20.5269C109.258 22.0109 107.877 24.0156 104.861 24.0156C104.851 24.1136 104.845 24.1886 104.847 24.3097C104.861 25.0797 105.259 26.2039 106.323 26.2039C107.534 26.2039 108.192 25.618 108.73 24.932C108.79 24.855 108.936 24.8389 109.041 24.9061C109.186 24.9985 109.268 25.0566 109.357 25.1301C109.446 25.2036 109.471 25.3785 109.393 25.4982C108.903 26.2584 107.777 27.7719 105.571 27.7719C104.527 27.7719 103.357 27.4302 102.84 26.1688C102.209 27.0718 101.209 27.7607 99.9781 27.7607C98.2319 27.7607 97.396 26.7393 98.2912 23.2862C98.4416 22.7073 98.9547 20.7194 98.9712 20.6445C99.0588 20.2574 98.9181 20.0761 98.6712 20.0761C98.1333 20.0761 97.1954 20.8125 96.8485 21.6063L95.3402 27.5002C95.3286 27.5462 95.3024 27.587 95.2656 27.6163C95.2288 27.6455 95.1835 27.6616 95.1367 27.662H93.0347C93.0003 27.6612 92.9666 27.6526 92.9361 27.6367C92.9055 27.6208 92.8789 27.5981 92.8583 27.5702C92.8376 27.5424 92.8235 27.5102 92.8169 27.476C92.8103 27.4418 92.8114 27.4065 92.8202 27.3729L94.5416 20.6445C94.6326 20.2434 94.4809 20.0775 94.2222 20.0775C93.6816 20.0775 92.7064 20.7824 92.4036 21.6063L90.8381 27.5002C90.8265 27.5464 90.8 27.5874 90.763 27.6167C90.7259 27.646 90.6803 27.6619 90.6333 27.662H88.5347C88.5003 27.661 88.4666 27.6522 88.4361 27.6361C88.4055 27.6201 88.379 27.5972 88.3584 27.5693C88.3378 27.5413 88.3238 27.509 88.3173 27.4747C88.3108 27.4405 88.312 27.4052 88.3209 27.3715L88.6947 25.9946C87.7885 27.1846 86.5457 27.7656 85.0478 27.7656C83.5485 27.7656 82.6347 26.7415 82.2947 25.9631C81.725 26.7051 80.734 27.767 79.1636 27.767C77.7174 27.767 77.3002 26.4103 77.3195 25.172C77.334 24.3068 77.5485 23.5096 77.7429 22.6941C77.9755 21.7333 78.2121 20.7736 78.4526 19.815C78.0388 19.7842 77.5243 19.717 77.2023 19.6442C76.8919 20.6851 75.2057 25.6537 74.776 26.4874C73.7471 28.4845 72.894 29.5114 70.9498 29.5114C69.0871 29.5114 67.9278 28.1135 68.4278 26.1234C68.8209 24.5582 69.7685 21.5468 69.7554 20.858C69.7498 20.5605 69.5374 20.305 69.1126 20.305C68.2036 20.305 67.1229 21.6854 66.3802 23.7854C66.3678 23.8225 65.2147 27.9608 64.9319 28.9877C64.9192 29.0374 64.8907 29.0814 64.8508 29.1128C64.8108 29.1442 64.7617 29.1613 64.7112 29.1614H61.8367C61.799 29.1606 61.7619 29.151 61.7283 29.1334C61.6948 29.1158 61.6657 29.0906 61.6432 29.0597C61.6208 29.0289 61.6056 28.9933 61.5988 28.9555C61.5921 28.9178 61.594 28.879 61.6043 28.8421C61.6043 28.8421 65.6664 13.6193 65.6981 13.3932C66.0595 11.9092 65.076 11.5193 64.5623 11.4164C64.3829 11.3807 64.3209 11.0993 64.4892 11.0321C66.0271 10.4301 69.0995 10.568 69.1492 13.2861C69.1698 14.4656 68.1864 17.5169 67.694 18.9687C68.7036 17.6499 73.0705 11.3618 78.2209 11.3618L109.078 11.3667C109.879 11.3667 111.128 11.3667 111.493 10.8207C111.623 10.6261 111.945 10.8137 111.973 11.051C111.982 11.121 111.988 11.2596 111.988 11.2596C112.02 13.0187 110.683 14.4446 109.003 14.4446L78.265 14.4432ZM37.4678 14.4439C37.7105 14.1198 37.9416 13.5143 37.9416 12.9053C37.9416 12.3208 37.7685 11.8098 37.4588 11.3674H59.8464C60.6464 11.3674 61.7947 11.5228 62.2616 10.8207C62.3905 10.6261 62.7133 10.8137 62.7416 11.0517C62.7498 11.1196 62.7554 11.2596 62.7554 11.2596C62.7892 13.0187 61.4519 14.4446 59.7719 14.4446L37.4678 14.4439ZM35.334 14.4439C35.1353 14.4433 34.9388 14.403 34.7555 14.3253C34.5722 14.2476 34.4058 14.134 34.2658 13.991C34.1257 13.848 34.0149 13.6783 33.9395 13.4918C33.8641 13.3053 33.8257 13.1055 33.8264 12.9039C33.8264 12.0534 34.5009 11.3639 35.334 11.3639C36.1664 11.3639 36.8409 12.0534 36.8409 12.9039C36.8409 13.7544 36.1664 14.4439 35.334 14.4439ZM60.265 18.1399C60.4154 18.1399 60.5257 18.2925 60.4864 18.4423L57.8588 28.3375L59.4347 28.782C59.5492 28.8142 59.5905 28.985 59.5588 29.104L59.4223 29.524C59.4158 29.5505 59.4043 29.5754 59.3883 29.5974C59.3723 29.6194 59.3522 29.6379 59.3291 29.652C59.306 29.666 59.2804 29.6753 59.2538 29.6793C59.2272 29.6833 59.2001 29.6819 59.174 29.6752C58.9016 29.6038 57.9181 29.3364 57.5429 29.2741C56.9747 30.6335 56.1692 32.4038 53.5547 32.4038C52.4223 32.4038 51.3823 31.7206 51.3643 30.7714C51.3395 29.3854 53.0443 28.1085 55.3216 28.1085C55.4195 27.8495 55.6933 26.8345 55.6933 26.8345C54.976 27.6983 54.0864 27.7662 53.5602 27.7683C52.7105 27.7711 51.8616 27.0165 51.7278 25.8377C50.6429 27.0487 48.9209 27.7747 47.0712 27.7747C47.0685 27.7747 47.0657 27.7746 47.0629 27.7732C45.8326 27.7704 45.2533 27.5087 44.9216 27.0117L43.9519 30.7482C43.9392 30.7987 43.9103 30.8435 43.8699 30.8757C43.8295 30.9078 43.7798 30.9255 43.7285 30.9261H41.6747C41.5161 30.9261 41.3988 30.7672 41.4416 30.6076L42.3726 27.0817L42.5492 26.4166C41.4402 27.2139 39.8871 27.6984 38.4471 27.7656C38.334 27.7726 38.2195 27.7761 38.0995 27.7761C36.6505 27.7761 35.8857 27.1965 35.5161 26.5896C35.1478 27.0432 34.214 27.7887 33.1705 27.7887C32.5188 27.7887 31.9071 27.5835 31.5098 27.0781C31.3729 26.8988 31.2747 26.6923 31.2216 26.472C31.1719 26.535 31.1229 26.5987 31.0712 26.6603C30.4781 27.3568 29.6692 27.7985 28.6436 27.7985C27.0767 27.7985 26.674 26.2472 26.6919 25.172C26.7064 24.3075 26.9195 23.5103 27.1147 22.6941C27.3498 21.7324 27.5889 20.7718 27.8319 19.8122C27.4195 19.7807 26.8974 19.717 26.5767 19.6442C26.2657 20.6844 24.8712 24.9089 24.1471 26.4881C23.5023 27.8951 22.6974 29.51 20.5181 29.51C18.9816 29.51 17.1988 28.432 17.7981 26.15C18.1823 24.68 18.5367 23.3164 18.9471 21.8905C19.1498 21.1821 19.3726 20.3043 18.485 20.3043C17.4781 20.3043 16.4188 21.9017 15.7526 23.7847C15.7388 23.8225 14.5864 27.9615 14.3043 28.9877C14.2916 29.0373 14.263 29.0812 14.2231 29.1126C14.1832 29.144 14.1341 29.1612 14.0836 29.1614H11.2078C11.1701 29.1604 11.1332 29.1508 11.0998 29.1332C11.0664 29.1156 11.0374 29.0904 11.0151 29.0597C10.9927 29.029 10.9776 28.9934 10.9708 28.9559C10.9641 28.9183 10.9658 28.8796 10.9761 28.8429C10.9761 28.8429 15.0381 13.6193 15.0692 13.3925C15.4305 11.9085 14.4478 11.5193 13.934 11.4164C13.7561 11.3814 13.6919 11.0986 13.8602 11.0314C15.3995 10.4294 18.4712 10.5687 18.5202 13.2861C18.5416 14.4656 17.5588 17.5169 17.065 18.9687C18.0747 17.6492 22.345 11.3618 27.4954 11.3618L33.2043 11.3667C32.925 11.7615 32.7112 12.3208 32.7216 12.9053C32.7326 13.4898 32.885 13.9833 33.1974 14.4446H27.5319C21.685 14.4446 18.8388 18.6726 18.8388 18.6726C19.4416 18.2274 20.0609 17.9691 20.9609 17.9691C22.3602 17.9691 22.6802 19.234 22.685 19.8059C22.7023 22.1278 21.0733 25.7993 21.0878 26.6323C21.0947 26.9711 21.1498 27.3638 21.5657 27.3638C22.2009 27.3638 22.8395 26.4481 23.0554 25.9791C23.614 24.7667 24.7492 21.7148 25.4767 19.3642C25.0319 19.1612 24.3788 18.7391 24.2547 17.9894C24.1126 17.1333 24.7567 16.4494 25.5685 16.4494C27.1161 16.4494 27.065 17.7934 26.9905 18.1378C28.0333 18.5459 29.8802 18.3499 30.545 18.3387C30.6919 18.3366 30.7933 18.4927 30.7395 18.6327L30.6733 18.8042C29.2154 23.3087 29.1767 25.7845 30.1223 25.7845C30.6464 25.7845 31.3292 25.1266 31.5498 24.3139C32.0501 22.4302 32.5485 20.546 33.045 18.6614L33.1547 18.2876C33.167 18.2452 33.1924 18.2081 33.2272 18.1816C33.262 18.1551 33.3043 18.1407 33.3478 18.1406H35.4698C35.5023 18.1414 35.5341 18.1497 35.5629 18.1649C35.5917 18.1801 35.6167 18.2017 35.636 18.2281C35.6554 18.2546 35.6685 18.2851 35.6745 18.3175C35.6805 18.3499 35.6791 18.3832 35.6705 18.415L34.1354 24.1914C34.1354 24.1914 34.1312 24.2327 34.1147 24.2985C33.7974 25.5382 33.9009 26.1276 34.2298 26.1276C34.6823 26.1276 35.0057 25.704 35.116 25.5563C34.8492 24.6771 35.5229 23.8883 36.236 23.7833C37.3202 21.9626 39.1292 18.6054 39.6498 17.7311C39.689 17.6671 39.744 17.6147 39.8094 17.5791C39.8747 17.5435 39.9481 17.5259 40.0223 17.5281H41.1705C41.3085 17.5281 41.3685 17.6933 41.2912 17.82C41.1498 18.0552 40.9492 18.4311 40.9602 19.0835C40.985 20.4261 41.7464 22.3287 41.7816 24.2593C41.7871 24.5603 41.7519 25.3086 41.3878 26.0394C41.6147 25.9274 41.8409 25.7944 42.0616 25.6411C42.3809 25.408 42.9526 24.8886 43.1747 24.05L44.6009 18.6614L44.7092 18.2967C44.7219 18.2516 44.7486 18.2119 44.7854 18.1837C44.8223 18.1554 44.8671 18.14 44.9133 18.1399H46.8754C47.0202 18.1399 47.1278 18.2869 47.0905 18.4339L46.8947 19.1703C47.5319 18.3527 48.3036 18.0272 49.0078 18.0272C50.8464 18.0272 51.4009 20.1314 50.8995 22.6745C50.6305 24.0339 50.2057 25.2413 49.6264 26.1394C50.0033 25.989 50.3604 25.792 50.6898 25.5529C50.8712 25.4185 51.7485 24.7234 52.0547 23.5957C52.1967 23.0672 52.3629 22.4967 52.5098 21.8849L53.3636 18.6614L53.4692 18.303C53.4825 18.2564 53.5103 18.2154 53.5485 18.1861C53.5866 18.1569 53.6331 18.1409 53.6809 18.1406H55.7609C55.9112 18.1406 56.0223 18.2925 55.9823 18.4423L54.3098 24.6828C54.1629 25.3485 54.2381 26.1339 54.8492 26.1339C55.4478 26.1339 56.0588 25.317 56.516 23.7371L57.9767 18.3086C57.9889 18.2607 58.0164 18.2182 58.0548 18.1879C58.0932 18.1575 58.1404 18.1408 58.1892 18.1406L60.265 18.1399ZM53.276 30.9911C54.1802 30.9911 54.5174 30.2597 54.9843 29.0921C54.0981 29.1397 52.7526 29.6366 52.7685 30.5389C52.7733 30.7881 52.9754 30.9911 53.276 30.9911ZM48.4719 21.6434C48.694 20.2749 48.3478 19.7688 47.9078 19.7688C47.0423 19.7688 46.5547 20.823 46.2802 21.8506C46.1947 22.1684 45.9036 23.3325 45.5609 24.6191C45.3029 25.5823 45.5498 26.2585 46.1692 26.2585C47.3257 26.2585 48.0705 24.1326 48.4726 21.6434H48.4719ZM37.9685 26.6974C38.6926 26.6974 39.3947 25.7664 39.3719 24.4931C39.3312 22.2573 38.9616 21.131 38.9167 20.858C38.7761 21.1842 37.4071 23.721 37.1774 24.0794C37.5064 24.2593 37.6712 24.7955 37.6774 25.1539C37.6898 25.8469 37.2774 26.0254 37.2829 26.3131C37.2864 26.5007 37.6105 26.6974 37.9685 26.6974Z" fill="#AAAAAA"/>
</g>
<defs>
<clipPath id="clip0_104_413">
<rect width="120" height="42" fill="white"/>
</clipPath>
</defs>
</svg>
