<svg width="270" height="109" viewBox="0 0 270 109" fill="none" xmlns="http://www.w3.org/2000/svg">
<path d="M265.715 28.4743C261.873 28.4743 256.809 31.1629 255.296 32.4043C254.335 33.9573 250.627 37.1295 253.517 38.8896C256.828 37.2427 260.874 34.5945 266.711 34.5945C267.278 34.5945 267.862 34.6194 268.464 34.6727C270.366 33.769 270.412 30.9359 269.095 29.637C268.253 28.8028 267.059 28.4743 265.715 28.4743Z" fill="#AAAAAA"/>
<path d="M104.107 34.5791C103.317 34.5791 102.541 34.6675 101.854 34.8423C91.8853 37.4682 81.5216 47.5593 76.7213 57.8853C72.1543 67.6792 74.6789 82.6123 86.6177 82.6123H86.6245C87.2829 82.612 87.9691 82.5663 88.6846 82.4719C97.0528 81.3705 102.409 74.6686 106.296 68.8703C108.095 66.2346 110.589 63.4767 110.843 60.4363C110.116 59.9321 109.425 59.7215 108.767 59.7215C106.234 59.7215 104.208 62.8497 102.579 64.3519C100.244 66.5169 97.5425 69.0492 94.8037 70.6681C93.1551 71.6408 91.4942 72.2116 90.0109 72.2853H90.0102C89.9014 72.2907 89.7932 72.2934 89.6864 72.2934C86.5429 72.2934 84.291 69.944 84.8447 64.2861C85.5499 56.991 91.5745 48.2464 96.4128 43.7846C97.9941 42.302 100.993 39.9357 103.247 39.9357C103.582 39.9357 103.902 39.9881 104.197 40.1044C105.995 40.8102 104.95 43.2104 106.551 44.1518C107.07 44.469 107.529 44.6101 107.929 44.6105H107.931C110.589 44.6105 110.666 38.3912 109.243 36.4521C108.331 35.1858 106.173 34.5791 104.107 34.5791Z" fill="#AAAAAA"/>
<path d="M74.5152 9.54335C73.627 9.54335 72.715 9.69099 71.9112 9.95346C67.2798 11.431 63.2231 16.4106 60.0036 20.3829C50.1292 32.6477 42.5049 49.8077 36.6781 64.2661C36.3769 52.8859 36.6216 40.7337 36.5936 29.4756C36.5841 26.2191 36.65 20.8628 33.7507 20.392C33.5985 20.3677 33.4457 20.3555 33.2923 20.3555C30.3436 20.3555 27.2117 24.7433 25.2789 26.9627C17.8615 35.519 12.5903 44.6397 8.48621 55.672C4.54195 66.2428 1.45468 78.6584 0.522847 93.1733C0.296949 96.7314 -0.81397 105.872 1.11571 107.321C1.6891 107.753 2.40688 107.938 3.20004 107.938C6.62592 107.938 11.458 104.494 12.1383 102.652C13.1174 99.96 12.4773 95.9124 12.7407 91.8555C12.9668 88.1373 13.1079 83.8828 13.3245 81.0588C14.3693 66.3087 17.2969 54.5424 21.7586 44.0188C23.8858 38.936 25.8716 33.3172 30.135 30.0321H30.136C28.743 41.9865 29.0159 57.3198 29.1571 72.7471C29.1948 77.4913 28.376 84.2686 29.9667 87.1301C30.6705 88.3905 32.2191 88.8672 33.8941 88.8678H33.8976C35.7614 88.8678 37.781 88.2789 38.9657 87.5254C43.2203 67.1746 49.8659 48.0663 59.2131 32.8646C62.3288 27.7817 65.4158 22.567 70.1499 19.3293H70.1505C59.0058 38.984 54.1207 74.0277 60.352 103.189C60.5651 104.615 62.5293 106.121 65.1047 106.121C65.8277 106.121 66.5987 106.003 67.3928 105.73C70.6779 104.61 74.6975 100.986 74.0292 97.8233C72.3347 89.0033 71.1955 80.5222 70.6123 69.9326C69.6803 52.9894 71.5534 38.4742 75.0268 25.0331C75.7893 22.1904 79.1406 15.1584 78.6041 12.0429C78.2997 10.2572 76.4661 9.54335 74.5152 9.54335Z" fill="#AAAAAA"/>
<path d="M261.528 78.9014V82.291H262.129V80.9575L262.596 80.9576C262.912 80.9576 263.136 80.9947 263.262 81.0646C263.476 81.1954 263.578 81.4471 263.578 81.8387V82.109L263.593 82.2163C263.593 82.2304 263.598 82.2443 263.598 82.2536C263.602 82.2677 263.607 82.2769 263.607 82.291H264.166L264.147 82.2443C264.134 82.2163 264.124 82.1605 264.119 82.0719C264.11 81.9787 264.11 81.8993 264.11 81.8153V81.573C264.11 81.3959 264.05 81.2231 263.923 81.0461C263.803 80.8643 263.607 80.757 263.346 80.715C263.555 80.6779 263.714 80.6263 263.836 80.5519C264.055 80.4072 264.166 80.1881 264.166 79.8805C264.166 79.4515 263.99 79.1717 263.64 79.0273C263.444 78.9433 263.136 78.9014 262.711 78.9014H261.528ZM262.129 79.3069L262.636 79.307C262.969 79.307 263.205 79.3536 263.359 79.4377C263.508 79.5169 263.583 79.6847 263.583 79.9318C263.583 80.1929 263.466 80.3701 263.234 80.4588C263.108 80.51 262.917 80.5378 262.666 80.5378H262.129V79.3069Z" fill="#AAAAAA"/>
<path d="M260.12 42.1763C259.862 42.1763 259.594 42.1849 259.315 42.2023C247.378 42.9366 235.077 53.6015 230.935 64.7841C230.209 66.695 229.759 68.9823 229.598 70.8084C228.877 79.6548 234.789 82.6523 241.53 82.6523C247.204 82.6523 253.467 80.5282 256.858 77.9811C259.738 75.8066 264.143 72.4653 262.534 67.8436H262.533C259.052 68.9356 258.608 70.5357 255.652 71.9944C253.72 72.9244 248.8 74.5245 244.737 74.5245C243.084 74.5245 241.571 74.2594 240.46 73.576C237.297 71.6367 239.547 63.3535 241.986 62.5156C242.241 62.433 242.519 62.3998 242.814 62.3998C243.96 62.3998 245.329 62.9056 246.363 62.9582C246.668 62.9709 246.979 62.977 247.295 62.977C252.339 62.977 258.605 61.3659 261.978 58.4962C266.418 54.6986 270.044 42.1763 260.12 42.1763ZM258.845 46.7682C263.479 46.7688 260.548 53.3824 257.112 55.4183C254.241 57.1178 250.95 57.4796 246.759 57.4796C246.167 57.4796 245.559 57.4723 244.931 57.4609C247.181 54.0158 252.368 48.189 257.037 47.022C257.736 46.848 258.336 46.7683 258.843 46.7682H258.845Z" fill="#AAAAAA"/>
<path d="M262.773 77.5253C261.925 77.5253 261.202 77.8284 260.6 78.4252C259.998 79.0314 259.7 79.7541 259.7 80.6025C259.7 81.4605 259.994 82.1876 260.591 82.7892C261.192 83.3953 261.92 83.7031 262.773 83.7031C263.626 83.7031 264.358 83.3953 264.959 82.7892C265.561 82.1876 265.859 81.4559 265.859 80.6025C265.859 79.7492 265.561 79.0268 264.959 78.4252C264.358 77.8284 263.626 77.5253 262.773 77.5253ZM262.773 77.945C263.505 77.945 264.133 78.206 264.652 78.7283C265.164 79.2504 265.425 79.8704 265.425 80.6071C265.425 81.3486 265.164 81.9733 264.652 82.5002C264.138 83.0177 263.509 83.2787 262.773 83.2787C262.036 83.2787 261.411 83.0177 260.894 82.5002C260.38 81.9733 260.124 81.3486 260.124 80.6071C260.124 79.8704 260.38 79.2504 260.899 78.7283C261.416 78.206 262.041 77.945 262.773 77.945Z" fill="#AAAAAA"/>
<path d="M168.074 -2.61542e-05C167.149 -2.61542e-05 166.179 0.0547691 165.166 0.165002C158.859 0.842775 152.637 4.39148 147.921 7.29061C138.471 13.1267 131.044 20.6664 125.076 30.07C122.026 34.9177 118.882 40.2737 117.169 45.0272C111.354 61.1349 115.036 81.909 132.759 81.909C133.481 81.909 134.227 81.8744 134.997 81.8036C147.629 80.6176 156.346 73.2378 165.515 67.8158C166.625 71.8165 168.836 75.271 172.508 75.8923C173.213 76.018 173.923 76.0763 174.632 76.0763C182.152 76.0763 189.688 69.5035 193.404 66.8281L193.405 66.8282C192.835 71.6613 194.924 74.2787 198.121 74.2787C198.405 74.2787 198.697 74.2583 198.996 74.2168C202.394 73.7462 205.886 69.0208 208.136 66.2062C211.035 62.583 213.463 58.7717 215.421 56.5406C212.721 67.252 210.743 78.679 208.117 89.4846L207.12 94.7275V94.7277C206.734 96.8549 206.264 99.1799 205.792 101.543C205.491 103.585 207.139 107.124 210.895 108.329C211.365 108.481 211.85 108.549 212.331 108.549H212.343C214.664 108.544 216.901 106.975 216.994 105.722C218.942 87.9878 220.571 66.63 225.297 52.614C226.237 49.8372 227.978 48.3595 230.314 46.8062C234.973 43.6998 240.423 42.7775 245.94 40.8949C245.633 37.601 243.305 36.6083 240.436 36.6083C236.959 36.6083 232.682 38.0668 230.238 38.6546C232.394 32.7715 234.991 26.2389 238.381 20.5817C242.399 13.8232 247.219 6.50001 256.67 6.00121C257.404 7.2624 257.149 9.54975 258.561 10.0674C259.409 10.0581 260.255 10.0581 261.093 10.0485C264.219 6.21746 263.42 1.43577 258.27 0.927558C257.855 0.889138 257.44 0.870816 257.025 0.870654L257.023 0.87082C257.023 0.870658 257.023 0.870654 257.025 0.870654V0.87082C250.613 0.870658 244.27 5.26458 240.584 8.57077C235.819 12.769 232.374 17.8801 229.41 22.8126C220.129 38.2122 216.091 55.9179 201.415 63.4013C199.825 58.4406 202.733 54.0731 204.766 49.6961C206.922 45.0272 211.477 34.1271 202.545 33.8823C202.331 33.8763 202.119 33.8734 201.905 33.8734C194.307 33.8734 186.928 37.579 181.168 41.5161C173.863 46.5615 168.724 52.548 166.163 61.0951C160.182 65.7945 152.681 72.2088 143.698 72.2088C142.263 72.2088 140.79 72.045 139.28 71.6848C134.894 70.6303 130.225 67.1006 129.519 62.4129C127.881 51.4846 133.115 37.3744 137.765 28.7522C142.829 19.2545 150.18 10.7359 158.539 7.66719C160.747 6.85795 163.91 6.1377 166.81 6.1377C169.24 6.1377 171.485 6.64315 172.827 8.0248C174.672 9.92616 173.064 13.9268 174.739 16.1482C175.319 16.9201 176.379 17.2739 177.571 17.2739C178.368 17.2739 179.226 17.115 180.038 16.8165C182.556 5.95857 177.743 -2.61542e-05 168.074 -2.61542e-05ZM196.909 39.0329C198.079 39.0329 199.133 39.386 199.835 40.3771C200.164 46.439 196.662 51.1644 193.508 55.5507C190.609 59.6456 185.913 63.9473 181.385 65.2744C180.328 65.5871 179.422 65.73 178.649 65.7306L178.644 65.7308C173.461 65.7306 174.282 59.33 176.697 54.7601C179.85 48.8299 186.598 42.4952 192.228 40.2079C193.642 39.6369 195.377 39.0329 196.909 39.0329Z" fill="#AAAAAA"/>
</svg>
