<svg width="120" height="49" viewBox="0 0 120 49" fill="none" xmlns="http://www.w3.org/2000/svg">
<path d="M118.096 12.6551C116.388 12.6551 114.137 13.8501 113.465 14.4018C113.038 15.092 111.39 16.5019 112.674 17.2842C114.146 16.5522 115.944 15.3752 118.538 15.3752C118.79 15.3752 119.05 15.3863 119.317 15.41C120.163 15.0083 120.183 13.7492 119.598 13.1719C119.224 12.8011 118.693 12.6551 118.096 12.6551Z" fill="#AAAAAA"/>
<path d="M46.2697 15.3687C45.9188 15.3687 45.5739 15.408 45.2683 15.4857C40.8378 16.6528 36.2318 21.1377 34.0983 25.727C32.0685 30.0799 33.1906 36.7168 38.4967 36.7168H38.4997C38.7923 36.7166 39.0973 36.6964 39.4153 36.6544C43.1345 36.1649 45.515 33.1863 47.2428 30.6092C48.042 29.4378 49.1507 28.2121 49.2635 26.8608C48.9403 26.6367 48.6332 26.5431 48.3409 26.5431C47.2153 26.5431 46.3145 27.9334 45.5905 28.6011C44.5528 29.5633 43.3522 30.6887 42.1349 31.4083C41.4022 31.8406 40.664 32.0943 40.0048 32.127H40.0045C39.9561 32.1294 39.908 32.1306 39.8606 32.1306C38.4635 32.1306 37.4626 31.0865 37.7087 28.5718C38.0221 25.3295 40.6997 21.4431 42.8501 19.46C43.5529 18.8011 44.8859 17.7494 45.8874 17.7494C46.0364 17.7494 46.1785 17.7727 46.3099 17.8244C47.1089 18.1381 46.6446 19.2049 47.3558 19.6232C47.5868 19.7642 47.7905 19.8269 47.9682 19.8271H47.9691C49.1507 19.8271 49.1849 17.063 48.5522 16.2012C48.1469 15.6383 47.1878 15.3687 46.2697 15.3687Z" fill="#AAAAAA"/>
<path d="M33.1179 4.24095C32.7231 4.24095 32.3178 4.30657 31.9605 4.42322C29.9021 5.07992 28.0992 7.29307 26.6683 9.0585C22.2797 14.5095 18.8911 22.1362 16.3014 28.5622C16.1675 23.5043 16.2763 18.1033 16.2638 13.0997C16.2596 11.6524 16.2889 9.27183 15.0003 9.06255C14.9327 9.05175 14.8648 9.04635 14.7966 9.04635C13.486 9.04635 12.0941 10.9965 11.2351 11.9829C7.93847 15.7857 5.59571 19.8393 3.77165 24.7426C2.01864 29.4407 0.646525 34.9588 0.232376 41.4098C0.131977 42.9912 -0.361764 47.0535 0.495869 47.6977C0.75071 47.8896 1.06973 47.9717 1.42224 47.9717C2.94485 47.9717 5.09246 46.4414 5.39481 45.6226C5.82996 44.4261 5.54546 42.6272 5.66254 40.8241C5.76304 39.1716 5.82572 37.2807 5.92198 36.0256C6.38635 29.47 7.6875 24.2405 9.6705 19.5634C10.6159 17.3043 11.4985 14.8071 13.3933 13.3471H13.3938C12.7747 18.6601 12.8959 25.4749 12.9587 32.3315C12.9755 34.44 12.6116 37.4522 13.3185 38.7239C13.6313 39.2841 14.3196 39.496 15.064 39.4963H15.0656C15.894 39.4963 16.7916 39.2345 17.3181 38.8996C19.209 29.8548 22.1626 21.3622 26.3169 14.6059C27.7017 12.3469 29.0737 10.0293 31.1777 8.59028H31.178C26.2248 17.3257 24.0537 32.9007 26.8231 45.8611C26.9178 46.4948 27.7908 47.1643 28.9354 47.1643C29.2568 47.1643 29.5994 47.1117 29.9524 46.9907C31.4124 46.4928 33.1989 44.8822 32.9019 43.4765C32.1488 39.5565 31.6425 35.7871 31.3832 31.0806C30.969 23.5503 31.8015 17.0991 33.3452 11.1253C33.6841 9.86184 35.1736 6.73654 34.9352 5.35184C34.7999 4.55823 33.9849 4.24095 33.1179 4.24095Z" fill="#AAAAAA"/>
<path d="M116.235 35.0667V36.5732H116.502V35.9806L116.709 35.9806C116.85 35.9806 116.949 35.9971 117.005 36.0282C117.1 36.0863 117.146 36.1982 117.146 36.3722V36.4923L117.152 36.54C117.152 36.5463 117.154 36.5525 117.154 36.5566C117.157 36.5629 117.159 36.567 117.159 36.5732H117.407L117.399 36.5525C117.393 36.54 117.389 36.5153 117.386 36.4759C117.382 36.4344 117.382 36.3991 117.382 36.3618V36.2541C117.382 36.1754 117.355 36.0986 117.299 36.02C117.246 35.9391 117.159 35.8914 117.043 35.8728C117.136 35.8563 117.206 35.8334 117.26 35.8003C117.358 35.736 117.407 35.6386 117.407 35.5019C117.407 35.3112 117.329 35.1869 117.173 35.1227C117.086 35.0854 116.949 35.0667 116.76 35.0667H116.235ZM116.502 35.247L116.727 35.247C116.875 35.247 116.98 35.2677 117.049 35.3051C117.115 35.3403 117.148 35.4149 117.148 35.5247C117.148 35.6408 117.096 35.7195 116.993 35.7589C116.937 35.7817 116.852 35.7941 116.74 35.7941H116.502V35.247Z" fill="#AAAAAA"/>
<path d="M115.609 18.745C115.494 18.745 115.375 18.7489 115.251 18.7566C109.946 19.0829 104.479 23.8229 102.638 28.7929C102.315 29.6422 102.115 30.6588 102.044 31.4704C101.723 35.4021 104.351 36.7344 107.347 36.7344C109.869 36.7344 112.652 35.7903 114.159 34.6583C115.439 33.6918 117.397 32.2068 116.682 30.1527H116.681C115.134 30.638 114.937 31.3492 113.623 31.9975C112.765 32.4108 110.578 33.122 108.772 33.122C108.037 33.122 107.365 33.0042 106.871 32.7004C105.465 31.8386 106.465 28.1571 107.549 27.7847C107.663 27.748 107.786 27.7333 107.917 27.7333C108.427 27.7333 109.035 27.9581 109.495 27.9814C109.63 27.9871 109.769 27.9898 109.909 27.9898C112.151 27.9898 114.935 27.2737 116.435 25.9983C118.408 24.3105 120.02 18.745 115.609 18.745ZM115.042 20.7859C117.102 20.7862 115.799 23.7255 114.272 24.6303C112.996 25.3857 111.534 25.5465 109.671 25.5465C109.408 25.5465 109.137 25.5432 108.858 25.5382C109.858 24.007 112.164 21.4173 114.239 20.8987C114.55 20.8213 114.816 20.7859 115.041 20.7859H115.042Z" fill="#AAAAAA"/>
<path d="M116.788 34.4545C116.411 34.4545 116.09 34.5892 115.823 34.8545C115.555 35.1239 115.422 35.4451 115.422 35.8221C115.422 36.2035 115.553 36.5266 115.818 36.794C116.086 37.0634 116.409 37.2002 116.788 37.2002C117.167 37.2002 117.493 37.0634 117.76 36.794C118.027 36.5266 118.16 36.2014 118.16 35.8221C118.16 35.4429 118.027 35.1218 117.76 34.8545C117.493 34.5892 117.167 34.4545 116.788 34.4545ZM116.788 34.641C117.114 34.641 117.393 34.757 117.623 34.9892C117.851 35.2212 117.967 35.4968 117.967 35.8242C117.967 36.1537 117.851 36.4314 117.623 36.6655C117.395 36.8956 117.115 37.0116 116.788 37.0116C116.46 37.0116 116.183 36.8956 115.953 36.6655C115.725 36.4314 115.611 36.1537 115.611 35.8242C115.611 35.4968 115.725 35.2212 115.955 34.9892C116.185 34.757 116.463 34.641 116.788 34.641Z" fill="#AAAAAA"/>
<path d="M74.6999 -0.000770133C74.2885 -0.000770133 73.8576 0.0235833 73.4073 0.0725759C70.6042 0.373808 67.8388 1.95101 65.7429 3.23951C61.5426 5.83331 58.2418 9.18433 55.5894 13.3637C54.2339 15.5182 52.8365 17.8987 52.0752 20.0113C49.4906 27.1703 51.1272 36.4032 59.004 36.4032C59.3252 36.4032 59.6567 36.3879 59.9989 36.3564C65.6132 35.8293 69.4872 32.5494 73.5622 30.1396C74.0558 31.9177 75.0385 33.453 76.6704 33.7292C76.9838 33.785 77.2994 33.8109 77.6142 33.8109C80.9565 33.8109 84.306 30.8897 85.9574 29.7006L85.9581 29.7007C85.7045 31.8487 86.6332 33.012 88.054 33.012C88.18 33.012 88.3097 33.0029 88.443 32.9845C89.9531 32.7753 91.5051 30.6751 92.5051 29.4242C93.7933 27.8139 94.8726 26.12 95.7429 25.1284C94.5426 29.889 93.6636 34.9677 92.4964 39.7702L92.0533 42.1004V42.1004C91.8819 43.0459 91.6729 44.0792 91.4633 45.1293C91.3293 46.0371 92.062 47.6101 93.7313 48.1456C93.9403 48.2131 94.1557 48.2432 94.3697 48.2432H94.3747C95.4065 48.2409 96.4007 47.5437 96.4418 46.9868C97.3078 39.1049 98.0319 29.6126 100.132 23.3832C100.55 22.1491 101.324 21.4923 102.362 20.802C104.433 19.4214 106.855 19.0114 109.307 18.1748C109.17 16.7108 108.136 16.2696 106.861 16.2696C105.315 16.2696 103.415 16.9178 102.328 17.179C103.286 14.5644 104.441 11.661 105.947 9.14664C107.733 6.1429 109.875 2.88814 114.075 2.66644C114.402 3.22698 114.289 4.24357 114.916 4.47362C115.293 4.46951 115.669 4.46951 116.042 4.46526C117.431 2.76256 117.076 0.63736 114.787 0.411489C114.602 0.394414 114.418 0.386271 114.233 0.386199L114.233 0.386273C114.233 0.386201 114.233 0.386199 114.233 0.386199V0.386273C111.384 0.386201 108.565 2.33906 106.926 3.80847C104.809 5.67437 103.278 7.94597 101.96 10.1382C97.8352 16.9824 96.0405 24.8516 89.518 28.1776C88.8112 25.9729 90.1037 24.0317 91.0072 22.0864C91.9654 20.0113 93.99 15.1668 90.0201 15.058C89.925 15.0554 89.8307 15.0541 89.7356 15.0541C86.3587 15.0541 83.0791 16.701 80.5192 18.4508C77.2727 20.6933 74.9888 23.3539 73.8504 27.1526C71.192 29.2412 67.8584 32.092 63.8659 32.092C63.2281 32.092 62.5736 32.0193 61.9024 31.8592C59.9528 31.3905 57.8778 29.8217 57.5639 27.7383C56.8361 22.8813 59.1622 16.6101 61.2288 12.778C63.4796 8.55679 66.7469 4.77075 70.4619 3.40688C71.4431 3.04722 72.849 2.72711 74.1379 2.72711C75.2179 2.72711 76.2158 2.95175 76.8123 3.56582C77.6322 4.41087 76.9175 6.18894 77.6618 7.17621C77.9197 7.5193 78.3909 7.67651 78.9205 7.67651C79.2749 7.67651 79.6561 7.6059 80.017 7.47326C81.1359 2.64749 78.9968 -0.000770133 74.6999 -0.000770133ZM87.515 17.3472C88.0352 17.3472 88.5035 17.5041 88.8155 17.9446C88.9618 20.6388 87.4055 22.739 86.0035 24.6885C84.7153 26.5084 82.628 28.4202 80.6157 29.0101C80.146 29.1491 79.7432 29.2126 79.3996 29.2128L79.3974 29.2129C77.094 29.2128 77.4586 26.3681 78.5321 24.3371C79.9334 21.7014 82.9328 18.886 85.435 17.8694C86.0633 17.6157 86.8342 17.3472 87.515 17.3472Z" fill="#AAAAAA"/>
</svg>
