<svg width="31" height="162" viewBox="0 0 31 162" fill="none" xmlns="http://www.w3.org/2000/svg">
<path d="M8.83743 161.357C8.20435 151.798 12.9377 146.281 16.7761 141.972C20.3141 137.945 23.0893 134.736 22.7334 128.445C22.2933 122.101 19.0842 119.326 15.0577 115.788C10.6948 112.033 5.3161 107.27 4.59889 97.6565C3.96581 88.0973 8.69921 82.5804 12.5376 78.2715C16.0756 74.2451 18.8508 71.036 18.4948 64.7452C18.0548 58.4004 14.8456 55.6253 10.8192 52.0873C6.45623 48.333 1.07756 43.5696 0.360347 33.9563C-0.27273 24.397 4.46067 18.8802 8.29906 14.5713C11.8371 10.5448 14.6122 7.33569 14.2563 1.04495L22.2353 0.466309C22.8684 10.0256 18.1351 15.5424 14.2967 19.8513C10.7586 23.8778 7.9835 27.0869 8.33944 33.3776C8.77951 39.7224 11.9886 42.4975 16.0151 46.0356C20.378 49.7898 25.7566 54.5533 26.4738 64.1666C27.1069 73.7258 22.3736 79.2426 18.5352 83.5516C14.9972 87.578 12.222 90.7872 12.5779 97.0779C13.018 103.423 16.2271 106.198 20.2536 109.736C24.6166 113.49 29.9952 118.254 30.7124 127.867C31.3455 137.426 26.6121 142.943 22.7738 147.252C19.2357 151.278 16.4605 154.487 16.8165 160.778L8.83743 161.357Z" fill="black" fill-opacity="0.1"/>
</svg>
