<svg width="31" height="162" viewBox="0 0 31 162" fill="none" xmlns="http://www.w3.org/2000/svg">
<path d="M8.84041 161.357C8.20699 151.798 12.9401 146.281 16.7784 141.972C20.3163 137.945 23.0913 134.736 22.7352 128.445C22.2949 122.1 19.0856 119.325 15.0591 115.787C10.696 112.033 5.31711 107.27 4.59956 97.6568C3.96613 88.0976 8.69933 82.5806 12.5376 78.2716C16.0755 74.245 18.8505 71.0358 18.4943 64.7451C18.054 58.4003 14.8448 55.6253 10.8182 52.0874C6.45511 48.3333 1.07626 43.57 0.358705 33.9567C-0.274719 24.3975 4.45848 18.8805 8.29671 14.5715C11.8346 10.5449 14.6096 7.33567 14.2535 1.04495L22.2325 0.46601C22.8659 10.0252 18.1328 15.5422 14.2945 19.8513C10.7566 23.8779 7.98161 27.0871 8.33778 33.3778C8.77808 39.7226 11.9873 42.4976 16.0139 46.0355C20.377 49.7896 25.7557 54.5528 26.4733 64.1661C27.1067 73.7253 22.3736 79.2423 18.5354 83.5514C14.9975 87.578 12.2224 90.7872 12.5786 97.0779C13.0189 103.423 16.2281 106.198 20.2547 109.736C24.6178 113.49 29.9966 118.253 30.7142 127.866C31.3476 137.425 26.6145 142.942 22.7762 147.251C19.2383 151.278 16.4633 154.487 16.8194 160.778L8.84041 161.357Z" fill="#2F1B04" fill-opacity="0.08"/>
</svg>
