<svg width="31" height="162" viewBox="0 0 31 162" fill="none" xmlns="http://www.w3.org/2000/svg">
<path d="M8.84041 161.357C8.20699 151.798 12.9401 146.281 16.7784 141.972C20.3163 137.945 23.0913 134.736 22.7352 128.445C22.2949 122.1 19.0856 119.325 15.0591 115.787C10.696 112.033 5.3171 107.27 4.59956 97.6569C3.96613 88.0977 8.69932 82.5807 12.5376 78.2717C16.0755 74.2451 18.8505 71.0359 18.4943 64.7452C18.054 58.4004 14.8448 55.6254 10.8182 52.0875C6.45511 48.3334 1.07626 43.5701 0.3587 33.9568C-0.274724 24.3976 4.45848 18.8806 8.29671 14.5716C11.8346 10.545 14.6096 7.33572 14.2535 1.045L22.2325 0.466064C22.8659 10.0253 18.1328 15.5423 14.2945 19.8514C10.7566 23.878 7.98161 27.0872 8.33778 33.3779C8.77808 39.7227 11.9873 42.4977 16.0139 46.0356C20.377 49.7897 25.7557 54.5529 26.4733 64.1662C27.1067 73.7254 22.3736 79.2424 18.5354 83.5515C14.9975 87.5781 12.2224 90.7873 12.5786 97.078C13.0189 103.423 16.2281 106.198 20.2547 109.736C24.6178 113.49 29.9966 118.253 30.7142 127.866C31.3476 137.425 26.6145 142.942 22.7762 147.251C19.2383 151.278 16.4633 154.487 16.8194 160.778L8.84041 161.357Z" fill="black"/>
</svg>
