<svg width="31" height="162" viewBox="0 0 31 162" fill="none" xmlns="http://www.w3.org/2000/svg">
<path d="M8.83752 161.357C8.20444 151.798 12.9378 146.281 16.7762 141.972C20.3142 137.945 23.0894 134.736 22.7335 128.445C22.2934 122.101 19.0843 119.326 15.0578 115.788C10.6949 112.033 5.31619 107.27 4.59898 97.6565C3.9659 88.0973 8.6993 82.5804 12.5377 78.2715C16.0757 74.2451 18.8509 71.036 18.4949 64.7452C18.0549 58.4004 14.8457 55.6253 10.8193 52.0873C6.45632 48.333 1.07765 43.5696 0.360441 33.9563C-0.272636 24.397 4.46076 18.8802 8.29915 14.5713C11.8372 10.5448 14.6123 7.3357 14.2564 1.04496L22.2354 0.466316C22.8685 10.0256 18.1352 15.5424 14.2968 19.8513C10.7587 23.8778 7.98359 27.0869 8.33953 33.3776C8.7796 39.7224 11.9887 42.4975 16.0152 46.0356C20.3781 49.7898 25.7567 54.5533 26.4739 64.1666C27.107 73.7258 22.3737 79.2426 18.5353 83.5516C14.9973 87.578 12.2221 90.7872 12.578 97.0779C13.0181 103.423 16.2272 106.198 20.2537 109.736C24.6167 113.49 29.9953 118.254 30.7125 127.867C31.3456 137.426 26.6122 142.943 22.7739 147.252C19.2358 151.278 16.4606 154.487 16.8166 160.778L8.83752 161.357Z" fill="#2F1B04" fill-opacity="0.08"/>
</svg>
