<svg width="30" height="30" viewBox="0 0 30 30" fill="none" xmlns="http://www.w3.org/2000/svg">
<g clip-path="url(#clip0_113_542)">
<mask id="mask0_113_542" style="mask-type:luminance" maskUnits="userSpaceOnUse" x="0" y="0" width="30" height="30">
<path d="M30 0H0V30H30V0Z" fill="white"/>
</mask>
<g mask="url(#mask0_113_542)">
<path fill-rule="evenodd" clip-rule="evenodd" d="M0.937375 11.25C0.797094 11.2501 0.658613 11.2816 0.532141 11.3423C0.405668 11.403 0.294428 11.4913 0.206619 11.6007C0.118811 11.7101 0.0566727 11.8378 0.0247854 11.9744C-0.00710179 12.111 -0.00792538 12.253 0.0223753 12.39L3.11988 26.3287C3.35109 27.3698 3.93039 28.301 4.76215 28.9684C5.59392 29.6359 6.62842 29.9998 7.69488 30H18.5549C19.6214 29.9998 20.6559 29.6359 21.4876 28.9684C22.3194 28.301 22.8987 27.3698 23.1299 26.3287L23.3755 25.2225C24.8098 25.4908 26.2921 25.1912 27.5096 24.3871C28.7272 23.583 29.5846 22.3372 29.9009 20.9128C30.2172 19.4884 29.9677 17.9968 29.2049 16.753C28.4422 15.5091 27.226 14.6103 25.813 14.2463L26.2274 12.39C26.2577 12.253 26.2569 12.111 26.225 11.9744C26.1931 11.8378 26.131 11.7101 26.0432 11.6007C25.9553 11.4913 25.8441 11.403 25.7176 11.3423C25.5912 11.2816 25.4527 11.2501 25.3124 11.25H0.937375ZM24.3749 23.4375C24.1765 23.4375 23.9784 23.4218 23.7824 23.3906L25.408 16.0819C26.2752 16.333 27.0227 16.8885 27.5135 17.6463C28.0042 18.4041 28.2052 19.3134 28.0797 20.2075C27.9541 21.1015 27.5103 21.9203 26.8298 22.5136C26.1493 23.1069 25.2777 23.4349 24.3749 23.4375ZM4.94988 25.9219L2.1055 13.125H24.1443L21.2999 25.9219C21.1612 26.5466 20.8137 27.1054 20.3146 27.5059C19.8156 27.9065 19.1948 28.1248 18.5549 28.125H7.69488C7.05495 28.1248 6.43421 27.9065 5.93514 27.5059C5.43608 27.1054 5.08853 26.5466 4.94988 25.9219Z" fill="#C69155"/>
<path d="M8.25 1.49999L8.24437 1.50749L8.21812 1.54311C8.08206 1.73109 7.95443 1.92503 7.83562 2.12436C7.73675 2.28534 7.64844 2.45256 7.57125 2.62499C7.5225 2.73749 7.5075 2.79749 7.50187 2.81811V2.82561C7.52306 2.99147 7.58138 3.15041 7.6725 3.29061C7.81313 3.53999 8.00625 3.80061 8.25 4.12499L8.26875 4.14749C8.49 4.44374 8.75625 4.79811 8.9625 5.16561C9.1725 5.54061 9.375 6.01874 9.375 6.56249C9.375 6.91499 9.25313 7.25249 9.15188 7.48874C9.0418 7.73932 8.91528 7.98235 8.77312 8.21624C8.62512 8.46154 8.46686 8.7005 8.29875 8.93249L8.265 8.97936L8.25562 8.99436L8.25188 8.99811C8.10294 9.19727 7.88099 9.32911 7.63485 9.36463C7.3887 9.40014 7.13854 9.33642 6.93937 9.18749C6.74021 9.03855 6.60837 8.8166 6.57286 8.57046C6.53735 8.32432 6.60106 8.07415 6.75 7.87499L6.75562 7.86749L6.78188 7.83186C6.91798 7.64391 7.04561 7.44997 7.16438 7.25061C7.26463 7.09043 7.35299 6.9231 7.42875 6.74999C7.4775 6.63749 7.4925 6.57749 7.49813 6.55686C7.47861 6.38856 7.42089 6.22695 7.32937 6.08436C7.15384 5.79443 6.96034 5.51576 6.75 5.24999L6.73125 5.22749C6.47835 4.90338 6.24662 4.5633 6.0375 4.20936C5.78212 3.78698 5.64004 3.30585 5.625 2.81249C5.625 2.45999 5.74687 2.12249 5.84812 1.88624C5.95875 1.62749 6.09938 1.37249 6.22688 1.15874C6.37488 0.913438 6.53315 0.674477 6.70125 0.442487L6.74812 0.376862C6.89706 0.177701 7.11901 0.0458618 7.36515 0.0103471C7.6113 -0.0251676 7.86146 0.0385516 8.06062 0.187487C8.25979 0.336423 8.39163 0.558375 8.42714 0.804516C8.46266 1.05066 8.39894 1.30083 8.25 1.49999ZM13.875 1.49999L13.8694 1.50749L13.8431 1.54311C13.7071 1.73109 13.5794 1.92503 13.4606 2.12436C13.3618 2.28534 13.2734 2.45256 13.1963 2.62499C13.1475 2.73749 13.1325 2.79749 13.1269 2.81811V2.82561C13.1481 2.99147 13.2064 3.15041 13.2975 3.29061C13.4381 3.53999 13.6313 3.80061 13.875 4.12499L13.8937 4.14749C14.115 4.44374 14.3813 4.79811 14.5875 5.16561C14.7975 5.54061 15 6.01874 15 6.56249C15 6.91499 14.8781 7.25249 14.7769 7.48874C14.6668 7.73932 14.5403 7.98235 14.3981 8.21624C14.2501 8.46154 14.0919 8.7005 13.9238 8.93249L13.89 8.97936L13.8806 8.99436L13.8769 8.99811C13.7279 9.19727 13.506 9.32911 13.2598 9.36463C13.0137 9.40014 12.7635 9.33642 12.5644 9.18749C12.3652 9.03855 12.2334 8.8166 12.1979 8.57046C12.1623 8.32432 12.2261 8.07415 12.375 7.87499L12.3806 7.86749L12.4069 7.83186C12.543 7.64391 12.6706 7.44997 12.7894 7.25061C12.8896 7.09043 12.978 6.9231 13.0537 6.74999C13.1025 6.63749 13.1175 6.57749 13.1231 6.55686C13.1036 6.38856 13.0459 6.22695 12.9544 6.08436C12.7788 5.79443 12.5853 5.51576 12.375 5.24999L12.3563 5.22749C12.1034 4.90338 11.8716 4.5633 11.6625 4.20936C11.4071 3.78698 11.265 3.30585 11.25 2.81249C11.25 2.45999 11.3719 2.12249 11.4731 1.88624C11.5837 1.62749 11.7244 1.37249 11.8519 1.15874C11.9999 0.913438 12.1581 0.674477 12.3262 0.442487L12.3731 0.376862C12.5221 0.177701 12.744 0.0458617 12.9902 0.010347C13.2363 -0.0251677 13.4865 0.0385516 13.6856 0.187487C13.8848 0.336423 14.0166 0.558375 14.0521 0.804516C14.0877 1.05066 14.0239 1.30083 13.875 1.49999ZM19.5 1.49999L19.4944 1.50749L19.4681 1.54311C19.3319 1.73096 19.2042 1.92491 19.0856 2.12436C18.9868 2.28536 18.8985 2.45259 18.8213 2.62499C18.7725 2.73749 18.7575 2.79749 18.7519 2.81811V2.82561C18.7731 2.99147 18.8314 3.15041 18.9225 3.29061C19.0631 3.53999 19.2562 3.80061 19.5 4.12499L19.5187 4.14749C19.74 4.44374 20.0062 4.79811 20.2125 5.16561C20.4225 5.54061 20.625 6.01874 20.625 6.56249C20.625 6.91499 20.5031 7.25249 20.4019 7.48874C20.2924 7.7396 20.1658 7.98267 20.0231 8.21624C19.8758 8.46157 19.7182 8.70054 19.5506 8.93249L19.515 8.97936L19.5056 8.99436L19.5019 8.99811C19.3529 9.19727 19.131 9.32911 18.8848 9.36463C18.6387 9.40014 18.3885 9.33642 18.1894 9.18749C17.9902 9.03855 17.8584 8.8166 17.8229 8.57046C17.7873 8.32432 17.8511 8.07415 18 7.87499L18.0056 7.86749L18.0319 7.83186C18.168 7.64391 18.2956 7.44997 18.4144 7.25061C18.5146 7.09043 18.603 6.9231 18.6787 6.74999C18.7275 6.63749 18.7425 6.57749 18.7481 6.55686C18.7286 6.38856 18.6709 6.22695 18.5794 6.08436C18.4038 5.79443 18.2103 5.51576 18 5.24999L17.9813 5.22749C17.7284 4.90338 17.4966 4.5633 17.2875 4.20936C17.0321 3.78698 16.89 3.30585 16.875 2.81249C16.875 2.45999 16.9969 2.12249 17.0981 1.88624C17.2088 1.62749 17.3494 1.37249 17.4769 1.15874C17.6249 0.913438 17.7831 0.674477 17.9513 0.442487L17.9981 0.376862C18.1471 0.177701 18.369 0.0458617 18.6152 0.010347C18.8613 -0.0251677 19.1115 0.0385516 19.3106 0.187487C19.5098 0.336423 19.6416 0.558375 19.6771 0.804516C19.7127 1.05066 19.6489 1.30083 19.5 1.49999Z" fill="#C69155"/>
</g>
</g>
<defs>
<clipPath id="clip0_113_542">
<rect width="30" height="30" fill="white"/>
</clipPath>
</defs>
</svg>
