<svg width="30" height="30" viewBox="0 0 30 30" fill="none" xmlns="http://www.w3.org/2000/svg">
<g clip-path="url(#clip0_15_403)">
<path fill-rule="evenodd" clip-rule="evenodd" d="M0.937328 11.25C0.797046 11.2501 0.658566 11.2816 0.532093 11.3423C0.40562 11.403 0.29438 11.4913 0.206571 11.6007C0.118763 11.7101 0.056625 11.8378 0.0247378 11.9744C-0.00714949 12.111 -0.00797308 12.253 0.0223277 12.39L3.11983 26.3287C3.35104 27.3698 3.93034 28.301 4.7621 28.9684C5.59387 29.6359 6.62837 29.9998 7.69483 30H18.5548C19.6213 29.9998 20.6558 29.6359 21.4876 28.9684C22.3193 28.301 22.8986 27.3698 23.1298 26.3287L23.3755 25.2225C24.8097 25.4908 26.292 25.1912 27.5096 24.3871C28.7271 23.583 29.5845 22.3372 29.9008 20.9128C30.2172 19.4884 29.9676 17.9968 29.2049 16.753C28.4421 15.5091 27.2259 14.6103 25.813 14.2463L26.2273 12.39C26.2576 12.253 26.2568 12.111 26.2249 11.9744C26.193 11.8378 26.1309 11.7101 26.0431 11.6007C25.9553 11.4913 25.844 11.403 25.7176 11.3423C25.5911 11.2816 25.4526 11.2501 25.3123 11.25H0.937328ZM24.3748 23.4375C24.1764 23.4375 23.9783 23.4218 23.7823 23.3906L25.408 16.0819C26.2751 16.333 27.0227 16.8885 27.5134 17.6463C28.0041 18.4041 28.2052 19.3134 28.0796 20.2075C27.954 21.1015 27.5103 21.9203 26.8298 22.5136C26.1493 23.1069 25.2776 23.4349 24.3748 23.4375Z" fill="#F9C06A"/>
<path d="M8.25 1.5L8.24437 1.5075L8.21812 1.54313C8.08206 1.7311 7.95443 1.92504 7.83562 2.12438C7.73675 2.28535 7.64844 2.45258 7.57125 2.625C7.5225 2.7375 7.5075 2.7975 7.50187 2.81813V2.82563C7.52306 2.99149 7.58138 3.15043 7.6725 3.29063C7.81313 3.54 8.00625 3.80063 8.25 4.125L8.26875 4.1475C8.49 4.44375 8.75625 4.79813 8.9625 5.16563C9.1725 5.54063 9.375 6.01875 9.375 6.5625C9.375 6.915 9.25313 7.2525 9.15188 7.48875C9.0418 7.73934 8.91528 7.98237 8.77312 8.21625C8.62512 8.46155 8.46686 8.70051 8.29875 8.9325L8.265 8.97938L8.25562 8.99438L8.25188 8.99813C8.10294 9.19729 7.88099 9.32913 7.63485 9.36464C7.3887 9.40016 7.13854 9.33644 6.93937 9.1875C6.74021 9.03857 6.60837 8.81661 6.57286 8.57047C6.53735 8.32433 6.60106 8.07416 6.75 7.875L6.75562 7.8675L6.78188 7.83188C6.91798 7.64393 7.04561 7.44999 7.16438 7.25063C7.26463 7.09044 7.35299 6.92312 7.42875 6.75C7.4775 6.6375 7.4925 6.5775 7.49813 6.55688C7.47861 6.38858 7.42089 6.22696 7.32937 6.08438C7.15384 5.79444 6.96034 5.51577 6.75 5.25L6.73125 5.2275C6.47835 4.9034 6.24662 4.56331 6.0375 4.20938C5.78212 3.78699 5.64004 3.30586 5.625 2.8125C5.625 2.46 5.74687 2.1225 5.84812 1.88625C5.95875 1.6275 6.09938 1.3725 6.22688 1.15875C6.37488 0.913453 6.53315 0.674492 6.70125 0.442502L6.74812 0.376877C6.89706 0.177716 7.11901 0.045877 7.36515 0.0103623C7.6113 -0.0251524 7.86146 0.0385668 8.06062 0.187502C8.25979 0.336438 8.39163 0.55839 8.42714 0.804532C8.46266 1.05067 8.39894 1.30084 8.25 1.5ZM13.875 1.5L13.8694 1.5075L13.8431 1.54313C13.7071 1.7311 13.5794 1.92504 13.4606 2.12438C13.3618 2.28535 13.2734 2.45258 13.1963 2.625C13.1475 2.7375 13.1325 2.7975 13.1269 2.81813V2.82563C13.1481 2.99149 13.2064 3.15043 13.2975 3.29063C13.4381 3.54 13.6313 3.80063 13.875 4.125L13.8937 4.1475C14.115 4.44375 14.3813 4.79813 14.5875 5.16563C14.7975 5.54063 15 6.01875 15 6.5625C15 6.915 14.8781 7.2525 14.7769 7.48875C14.6668 7.73934 14.5403 7.98237 14.3981 8.21625C14.2501 8.46155 14.0919 8.70051 13.9238 8.9325L13.89 8.97938L13.8806 8.99438L13.8769 8.99813C13.7279 9.19729 13.506 9.32913 13.2598 9.36464C13.0137 9.40016 12.7635 9.33644 12.5644 9.1875C12.3652 9.03857 12.2334 8.81661 12.1979 8.57047C12.1623 8.32433 12.2261 8.07416 12.375 7.875L12.3806 7.8675L12.4069 7.83188C12.543 7.64393 12.6706 7.44999 12.7894 7.25063C12.8896 7.09044 12.978 6.92312 13.0537 6.75C13.1025 6.6375 13.1175 6.5775 13.1231 6.55688C13.1036 6.38858 13.0459 6.22696 12.9544 6.08438C12.7788 5.79444 12.5853 5.51577 12.375 5.25L12.3563 5.2275C12.1034 4.9034 11.8716 4.56331 11.6625 4.20938C11.4071 3.78699 11.265 3.30586 11.25 2.8125C11.25 2.46 11.3719 2.1225 11.4731 1.88625C11.5837 1.6275 11.7244 1.3725 11.8519 1.15875C11.9999 0.913453 12.1581 0.674492 12.3262 0.442502L12.3731 0.376877C12.5221 0.177716 12.744 0.045877 12.9902 0.0103623C13.2363 -0.0251524 13.4865 0.0385668 13.6856 0.187502C13.8848 0.336438 14.0166 0.55839 14.0521 0.804532C14.0877 1.05067 14.0239 1.30084 13.875 1.5ZM19.5 1.5L19.4944 1.5075L19.4681 1.54313C19.3319 1.73097 19.2042 1.92492 19.0856 2.12438C18.9868 2.28538 18.8985 2.4526 18.8213 2.625C18.7725 2.7375 18.7575 2.7975 18.7519 2.81813V2.82563C18.7731 2.99149 18.8314 3.15043 18.9225 3.29063C19.0631 3.54 19.2562 3.80063 19.5 4.125L19.5187 4.1475C19.74 4.44375 20.0062 4.79813 20.2125 5.16563C20.4225 5.54063 20.625 6.01875 20.625 6.5625C20.625 6.915 20.5031 7.2525 20.4019 7.48875C20.2924 7.73961 20.1658 7.98268 20.0231 8.21625C19.8758 8.46159 19.7182 8.70056 19.5506 8.9325L19.515 8.97938L19.5056 8.99438L19.5019 8.99813C19.3529 9.19729 19.131 9.32913 18.8848 9.36464C18.6387 9.40016 18.3885 9.33644 18.1894 9.1875C17.9902 9.03857 17.8584 8.81661 17.8229 8.57047C17.7873 8.32433 17.8511 8.07416 18 7.875L18.0056 7.8675L18.0319 7.83188C18.168 7.64393 18.2956 7.44999 18.4144 7.25063C18.5146 7.09044 18.603 6.92312 18.6787 6.75C18.7275 6.6375 18.7425 6.5775 18.7481 6.55688C18.7286 6.38858 18.6709 6.22696 18.5794 6.08438C18.4038 5.79444 18.2103 5.51577 18 5.25L17.9813 5.2275C17.7284 4.9034 17.4966 4.56331 17.2875 4.20938C17.0321 3.78699 16.89 3.30586 16.875 2.8125C16.875 2.46 16.9969 2.1225 17.0981 1.88625C17.2088 1.6275 17.3494 1.3725 17.4769 1.15875C17.6249 0.913453 17.7831 0.674492 17.9513 0.442502L17.9981 0.376877C18.1471 0.177716 18.369 0.045877 18.6152 0.0103623C18.8613 -0.0251524 19.1115 0.0385668 19.3106 0.187502C19.5098 0.336438 19.6416 0.55839 19.6771 0.804532C19.7127 1.05067 19.6489 1.30084 19.5 1.5Z" fill="#F9C06A"/>
</g>
<defs>
<clipPath id="clip0_15_403">
<rect width="30" height="30" fill="white"/>
</clipPath>
</defs>
</svg>
