<svg width="60" height="60" viewBox="0 0 60 60" fill="none" xmlns="http://www.w3.org/2000/svg">
<g clip-path="url(#clip0_47_438)">
<path d="M5.625 7.5C4.13316 7.5 2.70242 8.09263 1.64752 9.14752C0.592632 10.2024 0 11.6332 0 13.125L0 20.625H22.5C22.9973 20.625 23.4742 20.8225 23.8258 21.1742C24.1775 21.5258 24.375 22.0027 24.375 22.5C24.375 23.4487 24.675 24.915 25.5225 26.0925C26.2988 27.1725 27.6112 28.125 30 28.125C32.3888 28.125 33.7013 27.1725 34.4775 26.0925C35.325 24.915 35.625 23.4487 35.625 22.5C35.625 22.0027 35.8225 21.5258 36.1742 21.1742C36.5258 20.8225 37.0027 20.625 37.5 20.625H60V13.125C60 11.6332 59.4074 10.2024 58.3525 9.14752C57.2976 8.09263 55.8668 7.5 54.375 7.5H5.625Z" fill="#F9C16C"/>
<path d="M60 24.375H39.1838C38.9148 25.781 38.3484 27.1133 37.5225 28.2825C36.0487 30.33 33.6112 31.875 30 31.875C26.3888 31.875 23.9512 30.33 22.4775 28.2825C21.6517 27.1132 21.0853 25.781 20.8163 24.375H0V46.875C0 48.3668 0.592632 49.7976 1.64752 50.8525C2.70242 51.9074 4.13316 52.5 5.625 52.5H54.375C55.8668 52.5 57.2976 51.9074 58.3525 50.8525C59.4074 49.7976 60 48.3668 60 46.875V24.375Z" fill="#F9C16C"/>
</g>
<defs>
<clipPath id="clip0_47_438">
<rect width="60" height="60" fill="white"/>
</clipPath>
</defs>
</svg>
