<svg width="32" height="32" viewBox="0 0 26 25" fill="none" xmlns="http://www.w3.org/2000/svg">
<path d="M1.29204 2.7078C1.19907 2.61482 1.12531 2.50444 1.075 2.38297C1.02468 2.26149 0.998779 2.13129 0.998779 1.9998C0.998779 1.86831 1.02468 1.73811 1.075 1.61663C1.12531 1.49515 1.19907 1.38477 1.29204 1.2918C1.38502 1.19882 1.4954 1.12507 1.61688 1.07475C1.73835 1.02443 1.86855 0.998535 2.00004 0.998535C2.13153 0.998535 2.26173 1.02443 2.38321 1.07475C2.50469 1.12507 2.61507 1.19882 2.70804 1.2918L13 11.5858L23.292 1.2918C23.385 1.19882 23.4954 1.12507 23.6169 1.07475C23.7384 1.02443 23.8686 0.998535 24 0.998535C24.1315 0.998535 24.2617 1.02443 24.3832 1.07475C24.5047 1.12507 24.6151 1.19882 24.708 1.2918C24.801 1.38477 24.8748 1.49515 24.9251 1.61663C24.9754 1.73811 25.0013 1.86831 25.0013 1.9998C25.0013 2.13129 24.9754 2.26149 24.9251 2.38297C24.8748 2.50444 24.801 2.61482 24.708 2.7078L14.414 12.9998L24.708 23.2918C24.801 23.3848 24.8748 23.4952 24.9251 23.6166C24.9754 23.7381 25.0013 23.8683 25.0013 23.9998C25.0013 24.1313 24.9754 24.2615 24.9251 24.383C24.8748 24.5044 24.801 24.6148 24.708 24.7078C24.6151 24.8008 24.5047 24.8745 24.3832 24.9248C24.2617 24.9752 24.1315 25.0011 24 25.0011C23.8686 25.0011 23.7384 24.9752 23.6169 24.9248C23.4954 24.8745 23.385 24.8008 23.292 24.7078L13 14.4138L2.70804 24.7078C2.61507 24.8008 2.50469 24.8745 2.38321 24.9248C2.26173 24.9752 2.13153 25.0011 2.00004 25.0011C1.86855 25.0011 1.73835 24.9752 1.61688 24.9248C1.4954 24.8745 1.38502 24.8008 1.29204 24.7078C1.19907 24.6148 1.12531 24.5044 1.075 24.383C1.02468 24.2615 0.998779 24.1313 0.998779 23.9998C0.998779 23.8683 1.02468 23.7381 1.075 23.6166C1.12531 23.4952 1.19907 23.3848 1.29204 23.2918L11.586 12.9998L1.29204 2.7078Z" fill="#C69155"/>
</svg>
