<svg width="76" height="66" viewBox="0 0 76 66" fill="none" xmlns="http://www.w3.org/2000/svg">
<path d="M19.5 1H56.5L75 32.9737L56.5 65H19.5L1 32.9737L19.5 1Z" fill="#F9C16C" stroke="#F9C16C" stroke-miterlimit="10" stroke-linejoin="round"/>
<g clip-path="url(#clip0_68_412)">
<rect width="32" height="32" transform="translate(24.3151 19.8298)" fill="#F9C16C"/>
<path d="M37.3151 28.7939C40.6431 25.4479 48.9651 31.3019 37.3151 38.8299C25.6651 31.3019 33.9871 25.4499 37.3151 28.7939Z" fill="#353535"/>
<path d="M50.3151 32.8296C50.3195 35.5953 49.4377 38.2896 47.7991 40.5176C47.8791 40.5776 47.9551 40.6416 48.0291 40.7136L55.7291 48.4136C56.1044 48.7887 56.3154 49.2974 56.3155 49.8279C56.3157 50.3585 56.1052 50.8674 55.7301 51.2426C55.3551 51.6179 54.8464 51.8289 54.3158 51.829C53.7853 51.8292 53.2764 51.6187 52.9011 51.2436L45.2011 43.5436C45.1288 43.4721 45.0619 43.3952 45.0011 43.3136H45.0051C42.6488 45.0424 39.7786 45.9268 36.8579 45.824C33.9372 45.7212 31.1363 44.6372 28.9073 42.7471C26.6783 40.8569 25.1512 38.2708 24.5725 35.4061C23.9939 32.5415 24.3973 29.5654 25.7178 26.9582C27.0383 24.351 29.1988 22.2648 31.8506 21.0363C34.5024 19.8078 37.4908 19.5087 40.3335 20.1873C43.1762 20.8659 45.7073 22.4825 47.5183 24.7762C49.3293 27.07 50.3146 29.9071 50.3151 32.8296ZM37.3151 43.8296C38.7597 43.8296 40.1901 43.5451 41.5247 42.9923C42.8592 42.4395 44.0719 41.6293 45.0933 40.6078C46.1148 39.5864 46.925 38.3737 47.4778 37.0392C48.0306 35.7046 48.3151 34.2742 48.3151 32.8296C48.3151 31.3851 48.0306 29.9547 47.4778 28.6201C46.925 27.2855 46.1148 26.0729 45.0933 25.0515C44.0719 24.03 42.8592 23.2198 41.5247 22.667C40.1901 22.1142 38.7597 21.8296 37.3151 21.8296C34.3978 21.8296 31.5999 22.9886 29.537 25.0515C27.4741 27.1144 26.3151 29.9123 26.3151 32.8296C26.3151 35.747 27.4741 38.5449 29.537 40.6078C31.5999 42.6707 34.3978 43.8296 37.3151 43.8296Z" fill="#353535"/>
</g>
<defs>
<clipPath id="clip0_68_412">
<rect width="32" height="32" fill="white" transform="translate(24.3151 19.8298)"/>
</clipPath>
</defs>
</svg>
