<svg width="60" height="60" viewBox="0 0 60 60" fill="none" xmlns="http://www.w3.org/2000/svg">
<g clip-path="url(#clip0_47_404)">
<path d="M24.375 16.8075C30.615 10.5337 46.2188 21.51 24.375 35.625C2.53126 21.51 18.135 10.5375 24.375 16.8075Z" fill="#F9C16C"/>
<path d="M48.75 24.375C48.7581 29.5607 47.1049 34.6125 44.0325 38.79C44.1825 38.9025 44.325 39.0225 44.4638 39.1575L58.9013 53.595C59.6049 54.2982 60.0004 55.2521 60.0008 56.2468C60.0011 57.2416 59.6063 58.1958 58.9032 58.8994C58.2 59.6031 57.2461 59.9986 56.2514 59.9989C55.2566 59.9993 54.3024 59.6044 53.5988 58.9013L39.1613 44.4638C39.0256 44.3297 38.9002 44.1855 38.7863 44.0325H38.7938C34.3756 47.274 28.994 48.9322 23.5177 48.7395C18.0413 48.5467 12.7897 46.5143 8.61029 42.9702C4.43091 39.4261 1.56766 34.5772 0.482636 29.2059C-0.602387 23.8347 0.154125 18.2545 2.63008 13.366C5.10603 8.47753 9.15696 4.56594 14.1291 2.26255C19.1012 -0.0408458 24.7044 -0.601652 30.0344 0.67064C35.3644 1.94293 40.1102 4.97409 43.5059 9.27491C46.9016 13.5757 48.749 18.8953 48.75 24.375ZM24.375 45C27.0835 45 29.7655 44.4666 32.2679 43.43C34.7702 42.3935 37.0439 40.8743 38.9591 38.9591C40.8743 37.0439 42.3935 34.7702 43.43 32.2679C44.4665 29.7655 45 27.0835 45 24.375C45 21.6665 44.4665 18.9845 43.43 16.4822C42.3935 13.9798 40.8743 11.7062 38.9591 9.79095C37.0439 7.87575 34.7702 6.35652 32.2679 5.32002C29.7655 4.28351 27.0835 3.75003 24.375 3.75003C18.9049 3.75003 13.6589 5.92302 9.79095 9.79096C5.92301 13.6589 3.75003 18.9049 3.75003 24.375C3.75003 29.8451 5.92301 35.0912 9.79095 38.9591C13.6589 42.827 18.9049 45 24.375 45Z" fill="#F9C16C"/>
</g>
<defs>
<clipPath id="clip0_47_404">
<rect width="60" height="60" fill="white"/>
</clipPath>
</defs>
</svg>
