<svg width="26" height="26" viewBox="0 0 26 26" fill="none" xmlns="http://www.w3.org/2000/svg">
<g clip-path="url(#clip0_142_15)">
<path d="M6.5 0C5.63805 0 4.8114 0.34241 4.2019 0.951903C3.59241 1.5614 3.25 2.38805 3.25 3.25V5.09112L1.72088 5.90687C1.20101 6.18407 0.766265 6.59737 0.463148 7.10256C0.160031 7.60776 -5.89008e-05 8.18585 1.62563e-08 8.775V22.75C1.62563e-08 23.612 0.34241 24.4386 0.951903 25.0481C1.5614 25.6576 2.38805 26 3.25 26H22.75C23.612 26 24.4386 25.6576 25.0481 25.0481C25.6576 24.4386 26 23.612 26 22.75V8.775C26.0001 8.18585 25.84 7.60776 25.5369 7.10256C25.2337 6.59737 24.799 6.18407 24.2791 5.90687L22.75 5.09112V3.25C22.75 2.38805 22.4076 1.5614 21.7981 0.951903C21.1886 0.34241 20.362 0 19.5 0L6.5 0ZM22.75 6.93388L23.5138 7.34013C23.774 7.47868 23.9916 7.68541 24.1433 7.93817C24.295 8.19093 24.3751 8.4802 24.375 8.775V10.1026L22.75 11.0776V6.93388ZM21.125 12.0526L15.0312 15.7089L13 14.4901L10.9688 15.7089L4.875 12.0526V3.25C4.875 2.81902 5.0462 2.4057 5.35095 2.10095C5.6557 1.7962 6.06902 1.625 6.5 1.625H19.5C19.931 1.625 20.3443 1.7962 20.649 2.10095C20.9538 2.4057 21.125 2.81902 21.125 3.25V12.0526ZM3.25 11.0776L1.625 10.1026V8.775C1.6252 8.48048 1.70543 8.19155 1.85713 7.9391C2.00883 7.68665 2.22629 7.48018 2.48625 7.34175L3.25 6.93388V11.0776ZM24.375 11.9974V21.3151L16.6108 16.6562L24.375 11.9974ZM24.3181 23.1774C24.2243 23.5214 24.02 23.825 23.7366 24.0414C23.4533 24.2579 23.1066 24.3751 22.75 24.375H3.25C2.89322 24.375 2.54636 24.2575 2.26295 24.0408C1.97955 23.8241 1.77535 23.5201 1.68187 23.1758L13 16.3849L24.3181 23.1774ZM1.625 21.3135V11.9974L9.38925 16.6562L1.625 21.3135Z" fill="#441F14"/>
</g>
<defs>
<clipPath id="clip0_142_15">
<rect width="26" height="26" fill="white"/>
</clipPath>
</defs>
</svg>
