<svg width="32" height="32" viewBox="0 0 48 48" fill="none" xmlns="http://www.w3.org/2000/svg">
<g clip-path="url(#clip0_144_25)">
<path d="M25.41 3.95421C24.976 3.72309 24.4917 3.60221 24 3.60221C23.5083 3.60221 23.024 3.72309 22.59 3.95421L4.59 13.5542C4.11007 13.8098 3.70861 14.1909 3.42855 14.657C3.14849 15.1231 3.00036 15.6565 3 16.2002V18.6512L20.25 29.0012L24 26.7512L27.75 29.0012L45 18.6512V16.2002C44.9996 15.6565 44.8515 15.1231 44.5715 14.657C44.2914 14.1909 43.8899 13.8098 43.41 13.5542L25.41 3.95421ZM45 22.1492L30.666 30.7502L45 39.3512V22.1492ZM44.895 42.7892L24 30.2462L3.105 42.7862C3.27757 43.4219 3.65455 43.9831 4.17776 44.3832C4.70097 44.7833 5.34132 45.0002 6 45.0002H42C42.6587 45.0002 43.299 44.7833 43.8222 44.3832C44.3454 43.9831 44.7224 43.4249 44.895 42.7892ZM3 39.3482L17.334 30.7472L3 22.1492V39.3482ZM21.177 1.30521C22.0458 0.841935 23.0154 0.599609 24 0.599609C24.9846 0.599609 25.9542 0.841935 26.823 1.30521L44.823 10.9052C45.7828 11.417 46.5854 12.18 47.145 13.1126C47.7046 14.0453 48.0001 15.1125 48 16.2002V42.0002C48 43.5915 47.3679 45.1176 46.2426 46.2429C45.1174 47.3681 43.5913 48.0002 42 48.0002H6C4.4087 48.0002 2.88258 47.3681 1.75736 46.2429C0.632141 45.1176 3.00117e-08 43.5915 3.00117e-08 42.0002V16.2002C-0.00010874 15.1125 0.295442 14.0453 0.855042 13.1126C1.41464 12.18 2.21724 11.417 3.177 10.9052L21.177 1.30521Z" fill="#441F14"/>
</g>
<defs>
<clipPath id="clip0_144_25">
<rect width="48" height="48" fill="white"/>
</clipPath>
</defs>
</svg>
