<svg width="32" height="32" viewBox="0 0 26 26" fill="none" xmlns="http://www.w3.org/2000/svg">
<g clip-path="url(#clip0_121_399)">
<path d="M26 13.0795C26 5.85479 20.1793 -0.00170898 13 -0.00170898C5.8175 -8.39843e-05 -0.00325012 5.85479 -0.00325012 13.0812C-0.00325012 19.6088 4.7515 25.02 10.9655 26.0015V16.8609H7.66675V13.0812H10.9687V10.1968C10.9687 6.91917 12.9106 5.10892 15.8795 5.10892C17.303 5.10892 18.7899 5.36404 18.7899 5.36404V8.58154H17.1502C15.5366 8.58154 15.0329 9.59067 15.0329 10.6258V13.0795H18.6371L18.0619 16.8593H15.0312V25.9999C21.2452 25.0184 26 19.6072 26 13.0795Z" fill="#441F14"/>
</g>
<defs>
<clipPath id="clip0_121_399">
<rect width="26" height="26" fill="white"/>
</clipPath>
</defs>
</svg>
