<svg width="300" height="64" viewBox="0 0 300 64" fill="none" xmlns="http://www.w3.org/2000/svg">
<g clip-path="url(#clip0_113_551)">
<mask id="mask0_113_551" style="mask-type:luminance" maskUnits="userSpaceOnUse" x="0" y="5" width="54" height="54">
<path d="M54 5H0V59H54V5Z" fill="white"/>
</mask>
<g mask="url(#mask0_113_551)">
<path fill-rule="evenodd" clip-rule="evenodd" d="M1.68757 25.25C1.43506 25.2502 1.1858 25.3069 0.958147 25.4161C0.730495 25.5254 0.530263 25.6843 0.372207 25.8813C0.214153 26.0782 0.102304 26.308 0.0449068 26.5539C-0.0124903 26.7998 -0.0139727 27.0554 0.0405686 27.302L5.61607 52.3917C6.03225 54.2656 7.07499 55.9418 8.57216 57.1431C10.0693 58.3446 11.9314 58.9996 13.8511 59H33.3991C35.3188 58.9996 37.1809 58.3446 38.6779 57.1431C40.1752 55.9418 41.2179 54.2656 41.6341 52.3917L42.0762 50.4005C44.6579 50.8834 47.326 50.3442 49.5175 48.8968C51.7092 47.4494 53.2525 45.207 53.8219 42.643C54.3912 40.0791 53.9421 37.3942 52.5691 35.1554C51.1962 32.9164 49.0071 31.2985 46.4637 30.6433L47.2096 27.302C47.2641 27.0554 47.2627 26.7998 47.2053 26.5539C47.1478 26.308 47.0361 26.0782 46.878 25.8813C46.7198 25.6843 46.5196 25.5254 46.2919 25.4161C46.0644 25.3069 45.8151 25.2502 45.5626 25.25H1.68757ZM43.8751 47.1875C43.518 47.1875 43.1614 47.1592 42.8086 47.1031L45.7347 33.9474C47.2956 34.3994 48.6411 35.3993 49.5246 36.7633C50.4078 38.1274 50.7696 39.7641 50.5437 41.3735C50.3176 42.9827 49.5188 44.4565 48.2939 45.5245C47.069 46.5924 45.5001 47.1828 43.8751 47.1875ZM8.91007 51.6594L3.79019 28.625H43.46L38.3401 51.6594C38.0904 52.7839 37.4649 53.7897 36.5665 54.5106C35.6683 55.2317 34.5509 55.6246 33.3991 55.625H13.8511C12.6992 55.6246 11.5819 55.2317 10.6835 54.5106C9.78523 53.7897 9.15964 52.7839 8.91007 51.6594Z" fill="#C69155"/>
<path d="M14.85 7.69995L14.8399 7.71345L14.7926 7.77756C14.5477 8.11593 14.318 8.46502 14.1041 8.82381C13.9261 9.11358 13.7672 9.41457 13.6282 9.72495C13.5405 9.92745 13.5135 10.0354 13.5034 10.0726V10.0861C13.5415 10.3846 13.6465 10.6707 13.8105 10.9231C14.0636 11.3719 14.4112 11.8411 14.85 12.4249L14.8838 12.4654C15.282 12.9987 15.7612 13.6366 16.1325 14.2981C16.5105 14.9731 16.875 15.8337 16.875 16.8124C16.875 17.4469 16.6556 18.0544 16.4734 18.4797C16.2752 18.9307 16.0475 19.3682 15.7916 19.7892C15.5252 20.2307 15.2403 20.6609 14.9377 21.0784L14.877 21.1628L14.8601 21.1898L14.8534 21.1966C14.5853 21.555 14.1858 21.7924 13.7427 21.8563C13.2997 21.9202 12.8494 21.8055 12.4909 21.5374C12.1324 21.2694 11.8951 20.8698 11.8311 20.4268C11.7672 19.9837 11.8819 19.5334 12.15 19.1749L12.1601 19.1614L12.2074 19.0973C12.4524 18.759 12.6821 18.4099 12.8959 18.0511C13.0763 17.7627 13.2354 17.4615 13.3717 17.1499C13.4595 16.9474 13.4865 16.8394 13.4966 16.8023C13.4615 16.4994 13.3576 16.2085 13.1929 15.9518C12.8769 15.4299 12.5286 14.9283 12.15 14.4499L12.1162 14.4094C11.661 13.826 11.2439 13.2139 10.8675 12.5768C10.4078 11.8165 10.1521 10.9505 10.125 10.0624C10.125 9.42795 10.3444 8.82045 10.5266 8.3952C10.7258 7.92945 10.9789 7.47045 11.2084 7.0857C11.4748 6.64415 11.7597 6.21402 12.0623 5.79644L12.1466 5.67831C12.4147 5.31983 12.8142 5.08251 13.2573 5.01859C13.7003 4.95466 14.1506 5.06936 14.5091 5.33744C14.8676 5.60552 15.1049 6.00504 15.1689 6.44809C15.2328 6.89115 15.1181 7.34146 14.85 7.69995ZM24.975 7.69995L24.9649 7.71345L24.9176 7.77756C24.6728 8.11593 24.4429 8.46502 24.2291 8.82381C24.0512 9.11358 23.8921 9.41457 23.7533 9.72495C23.6655 9.92745 23.6385 10.0354 23.6284 10.0726V10.0861C23.6666 10.3846 23.7715 10.6707 23.9355 10.9231C24.1886 11.3719 24.5363 11.8411 24.975 12.4249L25.0087 12.4654C25.407 12.9987 25.8863 13.6366 26.2575 14.2981C26.6355 14.9731 27 15.8337 27 16.8124C27 17.4469 26.7806 18.0544 26.5984 18.4797C26.4002 18.9307 26.1725 19.3682 25.9166 19.7892C25.6502 20.2307 25.3654 20.6609 25.0628 21.0784L25.002 21.1628L24.9851 21.1898L24.9784 21.1966C24.7102 21.555 24.3108 21.7924 23.8676 21.8563C23.4247 21.9202 22.9743 21.8055 22.6159 21.5374C22.2574 21.2694 22.0201 20.8698 21.9562 20.4268C21.8921 19.9837 22.007 19.5334 22.275 19.1749L22.2851 19.1614L22.3324 19.0973C22.5774 18.759 22.8071 18.4099 23.0209 18.0511C23.2013 17.7627 23.3604 17.4615 23.4967 17.1499C23.5845 16.9474 23.6115 16.8394 23.6216 16.8023C23.5865 16.4994 23.4826 16.2085 23.3179 15.9518C23.0018 15.4299 22.6535 14.9283 22.275 14.4499L22.2413 14.4094C21.7861 13.826 21.3689 13.2139 20.9925 12.5768C20.5328 11.8165 20.277 10.9505 20.25 10.0624C20.25 9.42795 20.4694 8.82045 20.6516 8.3952C20.8507 7.92945 21.1039 7.47045 21.3334 7.0857C21.5998 6.64415 21.8846 6.21402 22.1872 5.79644L22.2716 5.67831C22.5398 5.31983 22.9392 5.08251 23.3824 5.01859C23.8253 4.95466 24.2757 5.06936 24.6341 5.33744C24.9926 5.60552 25.2299 6.00504 25.2938 6.44809C25.3579 6.89115 25.243 7.34146 24.975 7.69995ZM35.1 7.69995L35.0899 7.71345L35.0426 7.77756C34.7974 8.11569 34.5676 8.4648 34.3541 8.82381C34.1762 9.11361 34.0173 9.41463 33.8783 9.72495C33.7905 9.92745 33.7635 10.0354 33.7534 10.0726V10.0861C33.7916 10.3846 33.8965 10.6707 34.0605 10.9231C34.3136 11.3719 34.6612 11.8411 35.1 12.4249L35.1337 12.4654C35.532 12.9987 36.0112 13.6366 36.3825 14.2981C36.7605 14.9731 37.125 15.8337 37.125 16.8124C37.125 17.4469 36.9056 18.0544 36.7234 18.4797C36.5263 18.9312 36.2984 19.3688 36.0416 19.7892C35.7764 20.2308 35.4928 20.6609 35.1911 21.0784L35.127 21.1628L35.1101 21.1898L35.1034 21.1966C34.8352 21.555 34.4358 21.7924 33.9926 21.8563C33.5497 21.9202 33.0993 21.8055 32.7409 21.5374C32.3824 21.2694 32.1451 20.8698 32.0812 20.4268C32.0171 19.9837 32.132 19.5334 32.4 19.1749L32.4101 19.1614L32.4574 19.0973C32.7024 18.759 32.9321 18.4099 33.1459 18.0511C33.3263 17.7627 33.4854 17.4615 33.6217 17.1499C33.7095 16.9474 33.7365 16.8394 33.7466 16.8023C33.7115 16.4994 33.6076 16.2085 33.4429 15.9518C33.1268 15.4299 32.7785 14.9283 32.4 14.4499L32.3663 14.4094C31.9111 13.826 31.4939 13.2139 31.1175 12.5768C30.6578 11.8165 30.402 10.9505 30.375 10.0624C30.375 9.42795 30.5944 8.82045 30.7766 8.3952C30.9758 7.92945 31.2289 7.47045 31.4584 7.0857C31.7248 6.64415 32.0096 6.21402 32.3123 5.79644L32.3966 5.67831C32.6648 5.31983 33.0642 5.08251 33.5074 5.01859C33.9503 4.95466 34.4007 5.06936 34.7591 5.33744C35.1176 5.60552 35.3549 6.00504 35.4188 6.44809C35.4829 6.89115 35.368 7.34146 35.1 7.69995Z" fill="#C69155"/>
</g>
</g>
<path d="M79.925 24.45C81.025 24.45 81.925 24.6167 82.625 24.95C83.3417 25.2667 83.975 25.6417 84.525 26.075C84.8583 26.325 85.1083 26.3583 85.275 26.175C85.4583 25.975 85.5833 25.5167 85.65 24.8H86.225C86.1917 25.45 86.1667 26.2417 86.15 27.175C86.1333 28.0917 86.125 29.3167 86.125 30.85H85.55C85.4667 30.0833 85.3583 29.4333 85.225 28.9C85.0917 28.35 84.9083 27.8667 84.675 27.45C84.4417 27.0333 84.1083 26.6583 83.675 26.325C83.2583 25.9083 82.775 25.6 82.225 25.4C81.675 25.2 81.1 25.1 80.5 25.1C79.6 25.1 78.8333 25.3417 78.2 25.825C77.5667 26.2917 77.05 26.9333 76.65 27.75C76.2667 28.5667 75.9833 29.4917 75.8 30.525C75.6167 31.5417 75.525 32.6 75.525 33.7C75.525 34.8167 75.6167 35.8917 75.8 36.925C76 37.9417 76.3 38.85 76.7 39.65C77.1167 40.45 77.65 41.0833 78.3 41.55C78.95 42.0167 79.7167 42.25 80.6 42.25C81.15 42.25 81.7 42.15 82.25 41.95C82.8167 41.7333 83.3 41.425 83.7 41.025C84.35 40.525 84.7917 39.9083 85.025 39.175C85.2583 38.425 85.4333 37.4333 85.55 36.2H86.125C86.125 37.7833 86.1333 39.0667 86.15 40.05C86.1667 41.0167 86.1917 41.8333 86.225 42.5H85.65C85.5833 41.7833 85.4667 41.3333 85.3 41.15C85.15 40.9667 84.8917 40.9917 84.525 41.225C83.9083 41.6583 83.25 42.0417 82.55 42.375C81.8667 42.6917 80.9833 42.85 79.9 42.85C78.1333 42.85 76.5833 42.4917 75.25 41.775C73.9333 41.0583 72.9083 40.025 72.175 38.675C71.4417 37.325 71.075 35.7 71.075 33.8C71.075 31.9333 71.45 30.3 72.2 28.9C72.9667 27.5 74.0083 26.4083 75.325 25.625C76.6583 24.8417 78.1917 24.45 79.925 24.45ZM94.677 29.225C95.8936 29.225 96.9603 29.45 97.877 29.9C98.7936 30.35 99.5103 31.075 100.027 32.075C100.544 33.075 100.802 34.4 100.802 36.05C100.802 37.7 100.544 39.025 100.027 40.025C99.5103 41.0083 98.7936 41.725 97.877 42.175C96.9603 42.625 95.8936 42.85 94.677 42.85C93.4936 42.85 92.4353 42.625 91.502 42.175C90.5853 41.725 89.8603 41.0083 89.327 40.025C88.8103 39.025 88.552 37.7 88.552 36.05C88.552 34.4 88.8103 33.075 89.327 32.075C89.8603 31.075 90.5853 30.35 91.502 29.9C92.4353 29.45 93.4936 29.225 94.677 29.225ZM94.677 29.725C94.0103 29.725 93.452 30.225 93.002 31.225C92.552 32.2083 92.327 33.8167 92.327 36.05C92.327 38.2833 92.552 39.8917 93.002 40.875C93.452 41.8583 94.0103 42.35 94.677 42.35C95.3603 42.35 95.9186 41.8583 96.352 40.875C96.802 39.8917 97.027 38.2833 97.027 36.05C97.027 33.8167 96.802 32.2083 96.352 31.225C95.9186 30.225 95.3603 29.725 94.677 29.725ZM109.788 23.95C110.704 23.95 111.521 24.1583 112.238 24.575C112.954 24.9917 113.438 25.6 113.688 26.4L113.238 26.625C113.054 26.0083 112.688 25.5 112.138 25.1C111.604 24.7 110.954 24.5 110.188 24.5C109.338 24.5 108.713 24.7667 108.313 25.3C107.913 25.8167 107.713 26.65 107.713 27.8V29.6H111.038V30.1H107.713V40.175C107.713 40.875 107.829 41.35 108.063 41.6C108.313 41.85 108.729 41.975 109.313 41.975V42.5C108.979 42.4833 108.504 42.4667 107.888 42.45C107.288 42.4167 106.663 42.4 106.013 42.4C105.329 42.4 104.638 42.4167 103.938 42.45C103.238 42.4667 102.713 42.4833 102.363 42.5V41.975C102.996 41.975 103.446 41.85 103.713 41.6C103.979 41.35 104.113 40.875 104.113 40.175V30.1H102.263V29.6H104.113C104.113 28.7 104.246 27.8917 104.513 27.175C104.796 26.4417 105.196 25.8333 105.713 25.35C106.179 24.9333 106.754 24.6 107.438 24.35C108.138 24.0833 108.921 23.95 109.788 23.95ZM117.238 22.95C117.821 22.95 118.329 23.025 118.763 23.175C119.196 23.325 119.571 23.525 119.888 23.775C120.138 23.9583 120.346 24.2167 120.513 24.55C120.679 24.8667 120.763 25.2333 120.763 25.65C120.763 26.1 120.596 26.5 120.263 26.85C119.929 27.2 119.504 27.375 118.988 27.375C118.438 27.375 117.979 27.2167 117.613 26.9C117.263 26.5833 117.088 26.15 117.088 25.6C117.088 25.1667 117.213 24.7833 117.463 24.45C117.713 24.1167 118.071 23.8833 118.538 23.75C118.488 23.65 118.388 23.5667 118.238 23.5C118.088 23.4333 117.888 23.4 117.638 23.4C117.321 23.4 117.054 23.4583 116.838 23.575C116.621 23.6917 116.438 23.85 116.288 24.05C116.121 24.3 116.004 24.6667 115.938 25.15C115.871 25.6167 115.838 26.3417 115.838 27.325V29.6H118.513V30.1H115.838V39.925C115.838 40.7417 116.046 41.2917 116.463 41.575C116.879 41.8417 117.454 41.975 118.188 41.975V42.5C117.754 42.4833 117.146 42.4667 116.363 42.45C115.579 42.4167 114.754 42.4 113.888 42.4C113.254 42.4 112.629 42.4167 112.013 42.45C111.396 42.4667 110.938 42.4833 110.638 42.5V41.975C111.221 41.975 111.629 41.85 111.863 41.6C112.113 41.35 112.238 40.875 112.238 40.175V30.1H110.538V29.6H112.238C112.238 28.6167 112.288 27.8 112.388 27.15C112.488 26.4833 112.646 25.9167 112.863 25.45C113.096 24.9833 113.413 24.5667 113.813 24.2C114.163 23.85 114.638 23.5583 115.238 23.325C115.854 23.075 116.521 22.95 117.238 22.95ZM125.414 29.225C126.881 29.225 128.031 29.6583 128.864 30.525C129.698 31.3917 130.114 32.8083 130.114 34.775H121.889L121.839 34.3H126.964C126.981 33.4833 126.931 32.7333 126.814 32.05C126.698 31.35 126.514 30.7917 126.264 30.375C126.014 29.9583 125.681 29.75 125.264 29.75C124.681 29.75 124.181 30.1167 123.764 30.85C123.364 31.5833 123.123 32.8 123.039 34.5L123.114 34.65C123.098 34.85 123.081 35.0583 123.064 35.275C123.064 35.4917 123.064 35.7167 123.064 35.95C123.064 37.1 123.223 38.0333 123.539 38.75C123.873 39.4667 124.289 39.9917 124.789 40.325C125.289 40.6417 125.798 40.8 126.314 40.8C126.664 40.8 127.023 40.75 127.389 40.65C127.773 40.5333 128.156 40.3333 128.539 40.05C128.923 39.75 129.281 39.3333 129.614 38.8L130.064 38.95C129.864 39.5833 129.548 40.2 129.114 40.8C128.681 41.4 128.131 41.8917 127.464 42.275C126.798 42.6583 125.998 42.85 125.064 42.85C123.931 42.85 122.931 42.6083 122.064 42.125C121.198 41.6417 120.514 40.9083 120.014 39.925C119.531 38.9417 119.289 37.6917 119.289 36.175C119.289 34.625 119.548 33.3333 120.064 32.3C120.598 31.2667 121.323 30.5 122.239 30C123.173 29.4833 124.231 29.225 125.414 29.225ZM138.012 29.225C139.479 29.225 140.629 29.6583 141.462 30.525C142.295 31.3917 142.712 32.8083 142.712 34.775H134.487L134.437 34.3H139.562C139.579 33.4833 139.529 32.7333 139.412 32.05C139.295 31.35 139.112 30.7917 138.862 30.375C138.612 29.9583 138.279 29.75 137.862 29.75C137.279 29.75 136.779 30.1167 136.362 30.85C135.962 31.5833 135.72 32.8 135.637 34.5L135.712 34.65C135.695 34.85 135.679 35.0583 135.662 35.275C135.662 35.4917 135.662 35.7167 135.662 35.95C135.662 37.1 135.82 38.0333 136.137 38.75C136.47 39.4667 136.887 39.9917 137.387 40.325C137.887 40.6417 138.395 40.8 138.912 40.8C139.262 40.8 139.62 40.75 139.987 40.65C140.37 40.5333 140.754 40.3333 141.137 40.05C141.52 39.75 141.879 39.3333 142.212 38.8L142.662 38.95C142.462 39.5833 142.145 40.2 141.712 40.8C141.279 41.4 140.729 41.8917 140.062 42.275C139.395 42.6583 138.595 42.85 137.662 42.85C136.529 42.85 135.529 42.6083 134.662 42.125C133.795 41.6417 133.112 40.9083 132.612 39.925C132.129 38.9417 131.887 37.6917 131.887 36.175C131.887 34.625 132.145 33.3333 132.662 32.3C133.195 31.2667 133.92 30.5 134.837 30C135.77 29.4833 136.829 29.225 138.012 29.225ZM156.495 24.475C157.478 24.475 158.236 24.5833 158.77 24.8C159.303 25 159.761 25.2167 160.145 25.45C160.345 25.5667 160.503 25.6583 160.62 25.725C160.753 25.775 160.878 25.8 160.995 25.8C161.161 25.8 161.278 25.7083 161.345 25.525C161.428 25.3417 161.495 25.0667 161.545 24.7H162.12C162.103 25.0167 162.078 25.4 162.045 25.85C162.028 26.2833 162.011 26.8583 161.995 27.575C161.995 28.2917 161.995 29.2333 161.995 30.4H161.42C161.353 29.5333 161.153 28.6917 160.82 27.875C160.486 27.0583 160.011 26.3917 159.395 25.875C158.795 25.3417 158.053 25.075 157.17 25.075C156.37 25.075 155.711 25.3 155.195 25.75C154.678 26.2 154.42 26.825 154.42 27.625C154.42 28.2917 154.586 28.8667 154.92 29.35C155.253 29.8167 155.736 30.275 156.37 30.725C157.02 31.175 157.803 31.7167 158.72 32.35C159.52 32.8667 160.236 33.3833 160.87 33.9C161.503 34.4167 162.011 35 162.395 35.65C162.778 36.3 162.97 37.075 162.97 37.975C162.97 39.075 162.678 39.9833 162.095 40.7C161.528 41.4167 160.778 41.9583 159.845 42.325C158.911 42.675 157.886 42.85 156.77 42.85C155.736 42.85 154.911 42.75 154.295 42.55C153.678 42.35 153.161 42.1417 152.745 41.925C152.378 41.6917 152.095 41.575 151.895 41.575C151.728 41.575 151.603 41.6667 151.52 41.85C151.453 42.0333 151.395 42.3083 151.345 42.675H150.77C150.803 42.275 150.82 41.8083 150.82 41.275C150.836 40.7417 150.845 40.05 150.845 39.2C150.861 38.3333 150.87 37.2417 150.87 35.925H151.445C151.511 37.025 151.695 38.0583 151.995 39.025C152.311 39.975 152.786 40.7417 153.42 41.325C154.07 41.9083 154.928 42.2 155.995 42.2C156.578 42.2 157.095 42.1 157.545 41.9C158.011 41.6833 158.386 41.3667 158.67 40.95C158.953 40.5333 159.095 40.0167 159.095 39.4C159.095 38.7 158.928 38.0917 158.595 37.575C158.278 37.0583 157.836 36.575 157.27 36.125C156.72 35.675 156.078 35.2167 155.345 34.75C154.561 34.2333 153.828 33.7167 153.145 33.2C152.461 32.6833 151.911 32.0917 151.495 31.425C151.095 30.7583 150.895 29.9667 150.895 29.05C150.895 28 151.153 27.1417 151.67 26.475C152.203 25.7917 152.895 25.2917 153.745 24.975C154.611 24.6417 155.528 24.475 156.495 24.475ZM169.523 22.95V31.55C169.939 30.6833 170.498 30.0833 171.198 29.75C171.914 29.4 172.714 29.225 173.598 29.225C174.314 29.225 174.889 29.3167 175.323 29.5C175.756 29.6667 176.098 29.9 176.348 30.2C176.631 30.5167 176.831 30.925 176.948 31.425C177.081 31.925 177.148 32.6 177.148 33.45V40.175C177.148 40.875 177.264 41.35 177.498 41.6C177.748 41.85 178.164 41.975 178.748 41.975V42.5C178.431 42.4833 177.948 42.4667 177.298 42.45C176.664 42.4167 176.048 42.4 175.448 42.4C174.798 42.4 174.164 42.4167 173.548 42.45C172.948 42.4667 172.498 42.4833 172.198 42.5V41.975C172.698 41.975 173.048 41.85 173.248 41.6C173.448 41.35 173.548 40.875 173.548 40.175V32.4C173.548 31.9833 173.506 31.625 173.423 31.325C173.339 31.0083 173.181 30.7667 172.948 30.6C172.731 30.4167 172.414 30.325 171.998 30.325C171.548 30.325 171.131 30.45 170.748 30.7C170.381 30.9333 170.081 31.2667 169.848 31.7C169.631 32.1333 169.523 32.6333 169.523 33.2V40.175C169.523 40.875 169.623 41.35 169.823 41.6C170.023 41.85 170.373 41.975 170.873 41.975V42.5C170.573 42.4833 170.131 42.4667 169.548 42.45C168.964 42.4167 168.373 42.4 167.773 42.4C167.123 42.4 166.464 42.4167 165.798 42.45C165.148 42.4667 164.656 42.4833 164.323 42.5V41.975C164.906 41.975 165.314 41.85 165.548 41.6C165.798 41.35 165.923 40.875 165.923 40.175V25.95C165.923 25.2 165.806 24.65 165.573 24.3C165.356 23.9333 164.939 23.75 164.323 23.75V23.225C164.856 23.275 165.373 23.3 165.873 23.3C166.556 23.3 167.206 23.275 167.823 23.225C168.439 23.1583 169.006 23.0667 169.523 22.95ZM186.108 29.225C187.324 29.225 188.391 29.45 189.308 29.9C190.224 30.35 190.941 31.075 191.458 32.075C191.974 33.075 192.233 34.4 192.233 36.05C192.233 37.7 191.974 39.025 191.458 40.025C190.941 41.0083 190.224 41.725 189.308 42.175C188.391 42.625 187.324 42.85 186.108 42.85C184.924 42.85 183.866 42.625 182.933 42.175C182.016 41.725 181.291 41.0083 180.758 40.025C180.241 39.025 179.983 37.7 179.983 36.05C179.983 34.4 180.241 33.075 180.758 32.075C181.291 31.075 182.016 30.35 182.933 29.9C183.866 29.45 184.924 29.225 186.108 29.225ZM186.108 29.725C185.441 29.725 184.883 30.225 184.433 31.225C183.983 32.2083 183.758 33.8167 183.758 36.05C183.758 38.2833 183.983 39.8917 184.433 40.875C184.883 41.8583 185.441 42.35 186.108 42.35C186.791 42.35 187.349 41.8583 187.783 40.875C188.233 39.8917 188.458 38.2833 188.458 36.05C188.458 33.8167 188.233 32.2083 187.783 31.225C187.349 30.225 186.791 29.725 186.108 29.725ZM198.893 29.3V44.55C198.893 45.3333 199.093 45.85 199.493 46.1C199.893 46.3667 200.443 46.5 201.143 46.5V47.025C200.71 47.0083 200.11 46.9833 199.343 46.95C198.593 46.9333 197.793 46.925 196.943 46.925C196.327 46.925 195.718 46.9333 195.118 46.95C194.535 46.9833 194.093 47.0083 193.793 47.025V46.5C194.343 46.5 194.727 46.3833 194.943 46.15C195.177 45.9167 195.293 45.4667 195.293 44.8V32.3C195.293 31.55 195.177 31 194.943 30.65C194.71 30.2833 194.293 30.1 193.693 30.1V29.575C194.227 29.625 194.743 29.65 195.243 29.65C195.927 29.65 196.577 29.625 197.193 29.575C197.81 29.5083 198.377 29.4167 198.893 29.3ZM202.768 29.225C203.618 29.225 204.377 29.4583 205.043 29.925C205.71 30.375 206.243 31.0667 206.643 32C207.043 32.9167 207.243 34.0667 207.243 35.45C207.243 36.6667 207.102 37.7333 206.818 38.65C206.552 39.5667 206.16 40.3417 205.643 40.975C205.143 41.5917 204.535 42.0583 203.818 42.375C203.118 42.6917 202.327 42.85 201.443 42.85C200.793 42.85 200.202 42.7333 199.668 42.5C199.135 42.2833 198.727 41.9667 198.443 41.55L198.693 41.225C198.86 41.525 199.093 41.7583 199.393 41.925C199.71 42.0917 200.068 42.175 200.468 42.175C201.218 42.175 201.81 41.925 202.243 41.425C202.677 40.9083 202.985 40.1917 203.168 39.275C203.368 38.3417 203.468 37.2333 203.468 35.95C203.468 34.5167 203.377 33.3917 203.193 32.575C203.01 31.7583 202.76 31.175 202.443 30.825C202.127 30.475 201.743 30.3 201.293 30.3C200.693 30.3 200.143 30.5333 199.643 31C199.16 31.4667 198.885 32.1333 198.818 33L198.693 32.125C198.993 31.175 199.502 30.4583 200.218 29.975C200.952 29.475 201.802 29.225 202.768 29.225ZM213.734 29.225C214.434 29.225 215.042 29.3167 215.559 29.5C216.092 29.6667 216.475 29.8333 216.709 30C217.275 30.3833 217.625 30.1333 217.759 29.25H218.284C218.25 29.7167 218.225 30.2917 218.209 30.975C218.192 31.6417 218.184 32.5333 218.184 33.65H217.659C217.575 33.0333 217.417 32.425 217.184 31.825C216.95 31.225 216.609 30.7333 216.159 30.35C215.725 29.9667 215.159 29.775 214.459 29.775C213.975 29.775 213.567 29.9167 213.234 30.2C212.9 30.4667 212.734 30.8583 212.734 31.375C212.734 31.875 212.884 32.3167 213.184 32.7C213.484 33.0667 213.867 33.425 214.334 33.775C214.817 34.1083 215.317 34.4667 215.834 34.85C216.384 35.2667 216.884 35.6833 217.334 36.1C217.784 36.5 218.142 36.9417 218.409 37.425C218.675 37.9083 218.809 38.4833 218.809 39.15C218.809 39.9 218.592 40.5583 218.159 41.125C217.725 41.675 217.15 42.1 216.434 42.4C215.734 42.7 214.95 42.85 214.084 42.85C213.584 42.85 213.134 42.8 212.734 42.7C212.35 42.6 212.017 42.475 211.734 42.325C211.517 42.225 211.309 42.1333 211.109 42.05C210.925 41.95 210.75 41.8667 210.584 41.8C210.417 41.75 210.267 41.8083 210.134 41.975C210.017 42.1417 209.925 42.375 209.859 42.675H209.334C209.367 42.1417 209.392 41.4917 209.409 40.725C209.425 39.9583 209.434 38.9417 209.434 37.675H209.959C210.059 38.575 210.242 39.375 210.509 40.075C210.775 40.7583 211.134 41.3 211.584 41.7C212.05 42.0833 212.634 42.275 213.334 42.275C213.617 42.275 213.892 42.2167 214.159 42.1C214.425 41.9833 214.642 41.7917 214.809 41.525C214.992 41.2583 215.084 40.9167 215.084 40.5C215.084 39.7667 214.842 39.1583 214.359 38.675C213.892 38.1917 213.292 37.6667 212.559 37.1C212.025 36.6667 211.517 36.2417 211.034 35.825C210.567 35.3917 210.184 34.925 209.884 34.425C209.584 33.9083 209.434 33.325 209.434 32.675C209.434 31.925 209.634 31.2917 210.034 30.775C210.434 30.2583 210.959 29.875 211.609 29.625C212.275 29.3583 212.984 29.225 213.734 29.225Z" fill="#C69155"/>
<defs>
<clipPath id="clip0_113_551">
<rect width="54" height="54" fill="white" transform="translate(0 5)"/>
</clipPath>
</defs>
</svg>
