<svg width="60" height="60" viewBox="0 0 60 60" fill="none" xmlns="http://www.w3.org/2000/svg">
<g clip-path="url(#clip0_55_458)">
<path d="M60 30C60 37.9565 56.8393 45.5871 51.2132 51.2132C45.5871 56.8393 37.9565 60 30 60C22.0435 60 14.4129 56.8393 8.7868 51.2132C3.16071 45.5871 0 37.9565 0 30C0 22.0435 3.16071 14.4129 8.7868 8.7868C14.4129 3.16071 22.0435 0 30 0C37.9565 0 45.5871 3.16071 51.2132 8.7868C56.8393 14.4129 60 22.0435 60 30ZM34.8112 15.0075H29.8913L22.77 20.1938V24.96L29.6475 20.0175H29.8913V45H34.8112V15.0075Z" fill="#F9C16C"/>
</g>
<defs>
<clipPath id="clip0_55_458">
<rect width="60" height="60" fill="white"/>
</clipPath>
</defs>
</svg>
