<svg width="76" height="66" viewBox="0 0 76 66" fill="none" xmlns="http://www.w3.org/2000/svg">
<path d="M19.5 1H56.5L75 32.9737L56.5 65H19.5L1 32.9737L19.5 1Z" fill="#F9C16C" stroke="#F9C16C" stroke-miterlimit="10" stroke-linejoin="round"/>
<g clip-path="url(#clip0_68_436)">
<path d="M24 33C24 36.713 25.475 40.274 28.1005 42.8995C30.726 45.525 34.287 47 38 47C41.713 47 45.274 45.525 47.8995 42.8995C50.525 40.274 52 36.713 52 33C52 29.287 50.525 25.726 47.8995 23.1005C45.274 20.475 41.713 19 38 19C34.287 19 30.726 20.475 28.1005 23.1005C25.475 25.726 24 29.287 24 33ZM54 33C54 37.2435 52.3143 41.3131 49.3137 44.3137C46.3131 47.3143 42.2435 49 38 49C33.7565 49 29.6869 47.3143 26.6863 44.3137C23.6857 41.3131 22 37.2435 22 33C22 28.7565 23.6857 24.6869 26.6863 21.6863C29.6869 18.6857 33.7565 17 38 17C42.2435 17 46.3131 18.6857 49.3137 21.6863C52.3143 24.6869 54 28.7565 54 33ZM40.566 25.004V41H37.942V27.676H37.812L34.144 30.312V27.77L37.942 25.004H40.566Z" fill="#441F14"/>
</g>
<defs>
<clipPath id="clip0_68_436">
<rect width="32" height="32" fill="white" transform="translate(22 17)"/>
</clipPath>
</defs>
</svg>
