<svg width="76" height="66" viewBox="0 0 76 66" fill="none" xmlns="http://www.w3.org/2000/svg">
<path d="M19.5 1H56.5L75 32.9737L56.5 65H19.5L1 32.9737L19.5 1Z" fill="#F9C16C" stroke="#F9C16C" stroke-miterlimit="10" stroke-linejoin="round"/>
<path d="M22 23C22 21.9391 22.4214 20.9217 23.1716 20.1716C23.9217 19.4214 24.9391 19 26 19H53C53.2652 19 53.5196 19.1054 53.7071 19.2929C53.8946 19.4804 54 19.7348 54 20C54 20.2652 53.8946 20.5196 53.7071 20.7071C53.5196 20.8946 53.2652 21 53 21H52V25C52.5304 25 53.0391 25.2107 53.4142 25.5858C53.7893 25.9609 54 26.4696 54 27V44C54 44.7956 53.6839 45.5587 53.1213 46.1213C52.5587 46.6839 51.7956 47 51 47H27C25.6739 47 24.4021 46.4732 23.4645 45.5355C22.5268 44.5979 22 43.3261 22 42V23ZM24 26.464V42C24 42.7956 24.3161 43.5587 24.8787 44.1213C25.4413 44.6839 26.2044 45 27 45H51C51.2652 45 51.5196 44.8946 51.7071 44.7071C51.8946 44.5196 52 44.2652 52 44V27H26C25.2977 27.0009 24.6077 26.816 24 26.464ZM24 23C24 23.5304 24.2107 24.0391 24.5858 24.4142C24.9609 24.7893 25.4696 25 26 25H50V21H26C25.4696 21 24.9609 21.2107 24.5858 21.5858C24.2107 21.9609 24 22.4696 24 23Z" fill="#441F14"/>
</svg>
