<svg width="38" height="38" viewBox="0 0 48 48" fill="none" xmlns="http://www.w3.org/2000/svg">
<g clip-path="url(#clip0_144_20)">
<path d="M10.9619 3.98391C10.7848 3.75609 10.5613 3.56856 10.3062 3.43378C10.051 3.299 9.77011 3.22005 9.4821 3.20217C9.1941 3.1843 8.90559 3.22791 8.63574 3.3301C8.36588 3.4323 8.12086 3.59074 7.91695 3.79491L4.81495 6.89991C3.36595 8.35191 2.83195 10.4069 3.46495 12.2099C6.09217 19.6727 10.3658 26.4482 15.9689 32.0339C21.5547 37.6369 28.3302 41.9106 35.7929 44.5379C37.5959 45.1709 39.6509 44.6369 41.1029 43.1879L44.2049 40.0859C44.4091 39.882 44.5676 39.637 44.6698 39.3671C44.772 39.0973 44.8156 38.8088 44.7977 38.5208C44.7798 38.2327 44.7009 37.9518 44.5661 37.6967C44.4313 37.4416 44.2438 37.218 44.0159 37.0409L37.0949 31.6589C36.8516 31.4701 36.5685 31.3391 36.2671 31.2757C35.9656 31.2123 35.6538 31.2182 35.3549 31.2929L28.7849 32.9339C27.908 33.1531 26.9892 33.1415 26.1181 32.9002C25.2469 32.6588 24.4531 32.1961 23.8139 31.5569L16.4459 24.1859C15.8063 23.547 15.3429 22.7534 15.1011 21.8822C14.8592 21.0111 14.8471 20.0921 15.0659 19.2149L16.7099 12.6449C16.7847 12.3461 16.7906 12.0342 16.7272 11.7328C16.6637 11.4314 16.5327 11.1483 16.3439 10.9049L10.9619 3.98391ZM5.65195 1.53291C6.17693 1.00776 6.80763 0.6003 7.50217 0.337592C8.1967 0.0748847 8.93918 -0.0370613 9.68029 0.00918754C10.4214 0.0554364 11.1442 0.258822 11.8007 0.605839C12.4572 0.952855 13.0323 1.43556 13.4879 2.02191L18.8699 8.93991C19.8569 10.2089 20.2049 11.8619 19.8149 13.4219L18.1739 19.9919C18.0891 20.3322 18.0937 20.6886 18.1873 21.0266C18.2808 21.3646 18.4602 21.6727 18.7079 21.9209L26.0789 29.2919C26.3275 29.5402 26.636 29.7198 26.9746 29.8134C27.3132 29.907 27.6702 29.9113 28.0109 29.8259L34.5779 28.1849C35.3478 27.9924 36.1513 27.9775 36.9278 28.1412C37.7043 28.3049 38.4334 28.643 39.0599 29.1299L45.9779 34.5119C48.4649 36.4469 48.6929 40.1219 46.4669 42.3449L43.3649 45.4469C41.1449 47.6669 37.8269 48.6419 34.7339 47.5529C26.8175 44.7675 19.6298 40.2354 13.7039 34.2929C7.76181 28.368 3.22977 21.1813 0.443948 13.2659C-0.642052 10.1759 0.332948 6.85491 2.55295 4.63491L5.65495 1.53291H5.65195Z" fill="#441F14"/>
</g>
<defs>
<clipPath id="clip0_144_20">
<rect width="48" height="48" fill="white"/>
</clipPath>
</defs>
</svg>
