<svg width="32" height="32" viewBox="0 0 26 26" fill="none" xmlns="http://www.w3.org/2000/svg">
<g clip-path="url(#clip0_121_401)">
<path d="M22.1016 3.77983C20.9096 2.5768 19.4901 1.62304 17.9259 0.974113C16.3616 0.325187 14.6838 -0.00592194 12.9902 8.01621e-05C5.89387 8.01621e-05 0.1105 5.78183 0.104 12.8798C0.104 15.1532 0.69875 17.3648 1.82163 19.323L0 26.0001L6.8315 24.2093C8.72138 25.2378 10.8386 25.7769 12.9902 25.7775H12.9968C20.0948 25.7775 25.8765 19.9957 25.883 12.8912C25.8846 11.198 25.5512 9.52126 24.9019 7.95751C24.2527 6.39376 23.302 4.97393 22.1016 3.77983ZM12.9902 23.5967C11.0711 23.5973 9.18727 23.0809 7.53675 22.1017L7.14675 21.8677L3.094 22.9305L4.17625 18.9768L3.92275 18.569C2.84994 16.8632 2.28255 14.8884 2.28637 12.8733C2.28637 6.98108 7.0915 2.17433 12.9968 2.17433C14.4036 2.17181 15.797 2.44778 17.0967 2.98633C18.3963 3.52488 19.5765 4.31536 20.5692 5.31221C21.5654 6.30516 22.3552 7.48552 22.8929 8.78521C23.4306 10.0849 23.7057 11.4782 23.7023 12.8847C23.6958 18.7981 18.8906 23.5967 12.9902 23.5967ZM18.8646 15.579C18.5445 15.4181 16.9634 14.6397 16.666 14.5292C16.3702 14.4236 16.1541 14.3683 15.9429 14.6901C15.7267 15.0102 15.1093 15.7398 14.924 15.9495C14.7388 16.1656 14.547 16.19 14.2252 16.0307C13.9051 15.8682 12.8668 15.5302 11.6383 14.4301C10.6795 13.577 10.0376 12.5207 9.84588 12.2006C9.66063 11.8788 9.828 11.7066 9.98887 11.5457C10.1302 11.4027 10.309 11.1687 10.4699 10.9835C10.6324 10.7982 10.686 10.6617 10.7916 10.4472C10.8972 10.2295 10.8469 10.0442 10.7672 9.88333C10.686 9.72245 10.0441 8.13483 9.77275 7.49458C9.51275 6.86245 9.24787 6.9502 9.04962 6.94208C8.86437 6.9307 8.64825 6.9307 8.43213 6.9307C8.26892 6.93476 8.10831 6.97251 7.96038 7.04158C7.81245 7.11065 7.68039 7.20955 7.5725 7.33208C7.27675 7.65383 6.44963 8.4322 6.44963 10.0198C6.44963 11.6075 7.60337 13.1333 7.76587 13.3495C7.92512 13.5656 10.0311 16.814 13.2632 18.2115C14.027 18.5446 14.6283 18.7412 15.0979 18.8907C15.8698 19.1377 16.5669 19.1003 17.1226 19.0207C17.7401 18.9265 19.0255 18.2407 19.2969 17.4883C19.5634 16.7343 19.5634 16.0908 19.4821 15.956C19.4025 15.8195 19.1864 15.7398 18.8646 15.579Z" fill="#441F14"/>
</g>
<defs>
<clipPath id="clip0_121_401">
<rect width="26" height="26" fill="white"/>
</clipPath>
</defs>
</svg>
