<svg width="60" height="60" viewBox="0 0 60 60" fill="none" xmlns="http://www.w3.org/2000/svg">
<g clip-path="url(#clip0_47_441)">
<path fill-rule="evenodd" clip-rule="evenodd" d="M1.87499 22.5C1.59443 22.5001 1.31747 22.5632 1.06453 22.6846C0.81158 22.806 0.589099 22.9825 0.413482 23.2014C0.237865 23.4202 0.11359 23.6756 0.049815 23.9488C-0.0139595 24.222 -0.0156066 24.5061 0.0449949 24.78L6.23999 52.6575C6.70241 54.7397 7.86102 56.602 9.52455 57.9369C11.1881 59.2718 13.2571 59.9995 15.39 60H37.11C39.2429 59.9995 41.3119 59.2718 42.9754 57.9369C44.639 56.602 45.7976 54.7397 46.26 52.6575L46.7512 50.445C49.6197 50.9815 52.5844 50.3824 55.0195 48.7742C57.4545 47.1659 59.1694 44.6744 59.802 41.8256C60.4346 38.9768 59.9355 35.9937 58.4101 33.5059C56.8846 31.0182 54.4522 29.2205 51.6262 28.4925L52.455 24.78C52.5156 24.5061 52.5139 24.222 52.4502 23.9488C52.3864 23.6756 52.2621 23.4202 52.0865 23.2014C51.9109 22.9825 51.6884 22.806 51.4355 22.6846C51.1825 22.5632 50.9056 22.5001 50.625 22.5H1.87499ZM48.75 46.875C48.3531 46.875 47.9569 46.8436 47.565 46.7813L50.8162 32.1637C52.5506 32.6661 54.0457 33.777 55.0272 35.2926C56.0086 36.8082 56.4107 38.6269 56.1595 40.415C55.9084 42.2031 55.0209 43.8406 53.6599 45.0272C52.2989 46.2138 50.5556 46.8699 48.75 46.875Z" fill="#F9C16C"/>
<path d="M16.5 2.99997L16.4887 3.01497L16.4362 3.08622C16.1641 3.46217 15.9089 3.85006 15.6712 4.24872C15.4735 4.57068 15.2969 4.90513 15.1425 5.24997C15.045 5.47497 15.015 5.59497 15.0037 5.63622V5.65122C15.0461 5.98294 15.1628 6.30083 15.345 6.58122C15.6263 7.07997 16.0125 7.60122 16.5 8.24997L16.5375 8.29497C16.98 8.88747 17.5125 9.59622 17.925 10.3312C18.345 11.0812 18.75 12.0375 18.75 13.125C18.75 13.83 18.5063 14.505 18.3038 14.9775C18.0836 15.4786 17.8306 15.9647 17.5462 16.4325C17.2502 16.9231 16.9337 17.401 16.5975 17.865L16.53 17.9587L16.5112 17.9887L16.5038 17.9962C16.2059 18.3945 15.762 18.6582 15.2697 18.7293C14.7774 18.8003 14.2771 18.6728 13.8787 18.375C13.4804 18.0771 13.2167 17.6332 13.1457 17.1409C13.0747 16.6486 13.2021 16.1483 13.5 15.75L13.5112 15.735L13.5638 15.6637C13.836 15.2878 14.0912 14.8999 14.3288 14.5012C14.5293 14.1809 14.706 13.8462 14.8575 13.5C14.955 13.275 14.985 13.155 14.9963 13.1137C14.9572 12.7771 14.8418 12.4539 14.6587 12.1687C14.3077 11.5889 13.9207 11.0315 13.5 10.5L13.4625 10.455C12.9567 9.80676 12.4932 9.1266 12.075 8.41872C11.5642 7.57395 11.2801 6.61169 11.25 5.62497C11.25 4.91997 11.4937 4.24497 11.6962 3.77247C11.9175 3.25497 12.1988 2.74497 12.4538 2.31747C12.7498 1.82688 13.0663 1.34895 13.4025 0.884974L13.4962 0.753724C13.7941 0.355402 14.238 0.0917235 14.7303 0.0206941C15.2226 -0.0503353 15.7229 0.0771031 16.1212 0.374974C16.5196 0.672846 16.7833 1.11675 16.8543 1.60903C16.9253 2.10132 16.7979 2.60165 16.5 2.99997ZM27.75 2.99997L27.7387 3.01497L27.6862 3.08622C27.4141 3.46217 27.1589 3.85006 26.9212 4.24872C26.7235 4.57068 26.5469 4.90513 26.3925 5.24997C26.295 5.47497 26.265 5.59497 26.2537 5.63622V5.65122C26.2961 5.98294 26.4128 6.30083 26.595 6.58122C26.8763 7.07997 27.2625 7.60122 27.75 8.24997L27.7875 8.29497C28.23 8.88747 28.7625 9.59622 29.175 10.3312C29.595 11.0812 30 12.0375 30 13.125C30 13.83 29.7563 14.505 29.5538 14.9775C29.3336 15.4786 29.0806 15.9647 28.7962 16.4325C28.5002 16.9231 28.1837 17.401 27.8475 17.865L27.78 17.9587L27.7612 17.9887L27.7538 17.9962C27.4559 18.3945 27.012 18.6582 26.5197 18.7293C26.0274 18.8003 25.5271 18.6728 25.1288 18.375C24.7304 18.0771 24.4667 17.6332 24.3957 17.1409C24.3247 16.6486 24.4521 16.1483 24.75 15.75L24.7613 15.735L24.8138 15.6637C25.086 15.2878 25.3412 14.8999 25.5788 14.5012C25.7793 14.1809 25.956 13.8462 26.1075 13.5C26.205 13.275 26.235 13.155 26.2463 13.1137C26.2072 12.7771 26.0918 12.4539 25.9087 12.1687C25.5577 11.5889 25.1707 11.0315 24.75 10.5L24.7125 10.455C24.2067 9.80676 23.7432 9.1266 23.325 8.41872C22.8142 7.57395 22.5301 6.61169 22.5 5.62497C22.5 4.91997 22.7437 4.24497 22.9462 3.77247C23.1675 3.25497 23.4488 2.74497 23.7038 2.31747C23.9998 1.82688 24.3163 1.34895 24.6525 0.884974L24.7462 0.753724C25.0441 0.355402 25.488 0.0917235 25.9803 0.0206941C26.4726 -0.0503353 26.9729 0.0771031 27.3712 0.374974C27.7696 0.672846 28.0333 1.11675 28.1043 1.60903C28.1753 2.10132 28.0479 2.60165 27.75 2.99997ZM39 2.99997L38.9888 3.01497L38.9363 3.08622C38.6637 3.46191 38.4085 3.84981 38.1712 4.24872C37.9736 4.57073 37.797 4.90518 37.6425 5.24997C37.545 5.47497 37.515 5.59497 37.5038 5.63622V5.65122C37.5461 5.98294 37.6628 6.30083 37.845 6.58122C38.1263 7.07997 38.5125 7.60122 39 8.24997L39.0375 8.29497C39.48 8.88747 40.0125 9.59622 40.425 10.3312C40.845 11.0812 41.25 12.0375 41.25 13.125C41.25 13.83 41.0062 14.505 40.8037 14.9775C40.5848 15.4792 40.3317 15.9653 40.0462 16.4325C39.7517 16.9231 39.4364 17.4011 39.1013 17.865L39.03 17.9587L39.0112 17.9887L39.0038 17.9962C38.7059 18.3945 38.262 18.6582 37.7697 18.7293C37.2774 18.8003 36.7771 18.6728 36.3788 18.375C35.9804 18.0771 35.7168 17.6332 35.6457 17.1409C35.5747 16.6486 35.7021 16.1483 36 15.75L36.0112 15.735L36.0637 15.6637C36.336 15.2878 36.5912 14.8999 36.8288 14.5012C37.0293 14.1809 37.206 13.8462 37.3575 13.5C37.455 13.275 37.485 13.155 37.4962 13.1137C37.4572 12.7771 37.3418 12.4539 37.1588 12.1687C36.8077 11.5889 36.4207 11.0315 36 10.5L35.9625 10.455C35.4567 9.80676 34.9932 9.1266 34.575 8.41872C34.0642 7.57395 33.7801 6.61169 33.75 5.62497C33.75 4.91997 33.9938 4.24497 34.1963 3.77247C34.4175 3.25497 34.6988 2.74497 34.9538 2.31747C35.2498 1.82688 35.5663 1.34895 35.9025 0.884974L35.9962 0.753724C36.2941 0.355402 36.738 0.0917235 37.2303 0.0206941C37.7226 -0.0503353 38.2229 0.0771031 38.6212 0.374974C39.0196 0.672846 39.2832 1.11675 39.3543 1.60903C39.4253 2.10132 39.2979 2.60165 39 2.99997Z" fill="#F9C16C"/>
</g>
<defs>
<clipPath id="clip0_47_441">
<rect width="60" height="60" fill="white"/>
</clipPath>
</defs>
</svg>
