<svg width="76" height="66" viewBox="0 0 76 66" fill="none" xmlns="http://www.w3.org/2000/svg">
<path d="M19.5 1H56.5L75 32.9737L56.5 65H19.5L1 32.9737L19.5 1Z" fill="#F9C16C" stroke="#F9C16C" stroke-miterlimit="10" stroke-linejoin="round"/>
<g clip-path="url(#clip0_68_432)">
<path fill-rule="evenodd" clip-rule="evenodd" d="M23 29C22.8504 29.0001 22.7027 29.0337 22.5678 29.0984C22.4328 29.1632 22.3142 29.2574 22.2205 29.3741C22.1269 29.4907 22.0606 29.627 22.0266 29.7727C21.9926 29.9184 21.9917 30.0699 22.024 30.216L25.328 45.084C25.5746 46.1945 26.1925 47.1877 27.0798 47.8997C27.967 48.6116 29.0704 48.9998 30.208 49H41.792C42.9296 48.9998 44.033 48.6116 44.9202 47.8997C45.8075 47.1877 46.4254 46.1945 46.672 45.084L46.934 43.904C48.4638 44.1901 50.045 43.8706 51.3437 43.0129C52.6424 42.1552 53.557 40.8264 53.8944 39.307C54.2318 37.7876 53.9656 36.1966 53.1521 34.8698C52.3385 33.543 51.0412 32.5843 49.534 32.196L49.976 30.216C50.0083 30.0699 50.0074 29.9184 49.9734 29.7727C49.9394 29.627 49.8731 29.4907 49.7795 29.3741C49.6858 29.2574 49.5672 29.1632 49.4323 29.0984C49.2974 29.0337 49.1496 29.0001 49 29H23ZM48 42C47.7883 42 47.577 41.9833 47.368 41.95L49.102 34.154C50.027 34.4219 50.8244 35.0144 51.3478 35.8227C51.8713 36.631 52.0857 37.601 51.9518 38.5546C51.8178 39.5083 51.3445 40.3817 50.6186 41.0145C49.8927 41.6474 48.963 41.9973 48 42ZM27.28 44.65L24.246 31H47.754L44.72 44.65C44.5721 45.3164 44.2014 45.9124 43.6691 46.3396C43.1367 46.7669 42.4746 46.9998 41.792 47H30.208C29.5254 46.9998 28.8633 46.7669 28.331 46.3396C27.7986 45.9124 27.4279 45.3164 27.28 44.65Z" fill="#441F14"/>
<path d="M30.8 18.6001L30.794 18.6081L30.766 18.6461C30.6209 18.8466 30.4847 19.0534 30.358 19.2661C30.2525 19.4378 30.1583 19.6161 30.076 19.8001C30.024 19.9201 30.008 19.9841 30.002 20.0061V20.0141C30.0246 20.191 30.0868 20.3605 30.184 20.5101C30.334 20.7761 30.54 21.0541 30.8 21.4001L30.82 21.4241C31.056 21.7401 31.34 22.1181 31.56 22.5101C31.784 22.9101 32 23.4201 32 24.0001C32 24.3761 31.87 24.7361 31.762 24.9881C31.6446 25.2554 31.5096 25.5146 31.358 25.7641C31.2001 26.0257 31.0313 26.2806 30.852 26.5281L30.816 26.5781L30.806 26.5941L30.802 26.5981C30.6431 26.8105 30.4064 26.9511 30.1438 26.989C29.8813 27.0269 29.6144 26.9589 29.402 26.8001C29.1896 26.6412 29.0489 26.4044 29.0111 26.1419C28.9732 25.8793 29.0411 25.6125 29.2 25.4001L29.206 25.3921L29.234 25.3541C29.3792 25.1536 29.5153 24.9467 29.642 24.7341C29.7489 24.5632 29.8432 24.3847 29.924 24.2001C29.976 24.0801 29.992 24.0161 29.998 23.9941C29.9772 23.8145 29.9156 23.6422 29.818 23.4901C29.6308 23.1808 29.4244 22.8835 29.2 22.6001L29.18 22.5761C28.9102 22.2303 28.6631 21.8676 28.44 21.4901C28.1676 21.0395 28.016 20.5263 28 20.0001C28 19.6241 28.13 19.2641 28.238 19.0121C28.356 18.7361 28.506 18.4641 28.642 18.2361C28.7999 17.9744 28.9687 17.7195 29.148 17.4721L29.198 17.4021C29.3569 17.1896 29.5936 17.049 29.8562 17.0111C30.1187 16.9732 30.3856 17.0412 30.598 17.2001C30.8104 17.3589 30.9511 17.5957 30.9889 17.8582C31.0268 18.1208 30.9589 18.3876 30.8 18.6001ZM36.8 18.6001L36.794 18.6081L36.766 18.6461C36.6209 18.8466 36.4847 19.0534 36.358 19.2661C36.2525 19.4378 36.1583 19.6161 36.076 19.8001C36.024 19.9201 36.008 19.9841 36.002 20.0061V20.0141C36.0246 20.191 36.0868 20.3605 36.184 20.5101C36.334 20.7761 36.54 21.0541 36.8 21.4001L36.82 21.4241C37.056 21.7401 37.34 22.1181 37.56 22.5101C37.784 22.9101 38 23.4201 38 24.0001C38 24.3761 37.87 24.7361 37.762 24.9881C37.6446 25.2554 37.5096 25.5146 37.358 25.7641C37.2001 26.0257 37.0313 26.2806 36.852 26.5281L36.816 26.5781L36.806 26.5941L36.802 26.5981C36.6431 26.8105 36.4064 26.9511 36.1438 26.989C35.8813 27.0269 35.6144 26.9589 35.402 26.8001C35.1896 26.6412 35.0489 26.4044 35.0111 26.1419C34.9732 25.8793 35.0411 25.6125 35.2 25.4001L35.206 25.3921L35.234 25.3541C35.3792 25.1536 35.5153 24.9467 35.642 24.7341C35.7489 24.5632 35.8432 24.3847 35.924 24.2001C35.976 24.0801 35.992 24.0161 35.998 23.9941C35.9772 23.8145 35.9156 23.6422 35.818 23.4901C35.6308 23.1808 35.4244 22.8835 35.2 22.6001L35.18 22.5761C34.9102 22.2303 34.6631 21.8676 34.44 21.4901C34.1676 21.0395 34.016 20.5263 34 20.0001C34 19.6241 34.13 19.2641 34.238 19.0121C34.356 18.7361 34.506 18.4641 34.642 18.2361C34.7999 17.9744 34.9687 17.7195 35.148 17.4721L35.198 17.4021C35.3569 17.1896 35.5936 17.049 35.8562 17.0111C36.1187 16.9732 36.3856 17.0412 36.598 17.2001C36.8104 17.3589 36.9511 17.5957 36.9889 17.8582C37.0268 18.1208 36.9589 18.3876 36.8 18.6001ZM42.8 18.6001L42.794 18.6081L42.766 18.6461C42.6207 18.8464 42.4845 19.0533 42.358 19.2661C42.2526 19.4378 42.1584 19.6162 42.076 19.8001C42.024 19.9201 42.008 19.9841 42.002 20.0061V20.0141C42.0246 20.191 42.0868 20.3605 42.184 20.5101C42.334 20.7761 42.54 21.0541 42.8 21.4001L42.82 21.4241C43.056 21.7401 43.34 22.1181 43.56 22.5101C43.784 22.9101 44 23.4201 44 24.0001C44 24.3761 43.87 24.7361 43.762 24.9881C43.6452 25.2556 43.5102 25.5149 43.358 25.7641C43.2009 26.0258 43.0328 26.2806 42.854 26.5281L42.816 26.5781L42.806 26.5941L42.802 26.5981C42.6431 26.8105 42.4064 26.9511 42.1438 26.989C41.8813 27.0269 41.6144 26.9589 41.402 26.8001C41.1896 26.6412 41.0489 26.4044 41.0111 26.1419C40.9732 25.8793 41.0411 25.6125 41.2 25.4001L41.206 25.3921L41.234 25.3541C41.3792 25.1536 41.5153 24.9467 41.642 24.7341C41.7489 24.5632 41.8432 24.3847 41.924 24.2001C41.976 24.0801 41.992 24.0161 41.998 23.9941C41.9772 23.8145 41.9156 23.6422 41.818 23.4901C41.6308 23.1808 41.4244 22.8835 41.2 22.6001L41.18 22.5761C40.9102 22.2303 40.6631 21.8676 40.44 21.4901C40.1676 21.0395 40.016 20.5263 40 20.0001C40 19.6241 40.13 19.2641 40.238 19.0121C40.356 18.7361 40.506 18.4641 40.642 18.2361C40.7999 17.9744 40.9687 17.7195 41.148 17.4721L41.198 17.4021C41.3569 17.1896 41.5936 17.049 41.8562 17.0111C42.1187 16.9732 42.3856 17.0412 42.598 17.2001C42.8104 17.3589 42.9511 17.5957 42.9889 17.8582C43.0268 18.1208 42.9589 18.3876 42.8 18.6001Z" fill="#441F14"/>
</g>
<defs>
<clipPath id="clip0_68_432">
<rect width="32" height="32" fill="white" transform="translate(22 17)"/>
</clipPath>
</defs>
</svg>
